<svg xmlns="http://www.w3.org/2000/svg" viewBox="0 0 118.97 122.71"><defs><style>.cls-1{isolation:isolate;}.cls-2{fill:#e7e9f7;}.cls-3{fill:#ed8280;}.cls-4{fill:#648fff;}.cls-5{fill:#d1d7f4;}.cls-6{fill:#252e6a;}.cls-7{fill:#89a2f6;}.cls-8{fill:#2b3060;opacity:0.17;mix-blend-mode:multiply;}.cls-9{fill:#fff;}</style></defs><title>Docs Icon 3</title><g class="cls-1"><g id="Docs_Icon_3" data-name="Docs Icon 3"><rect class="cls-2" x="-20.52" y="-18.46" width="160" height="160"/><path class="cls-3" d="M103.57,106.93a1.23,1.23,0,0,1-1.18-1.26h0a1.2,1.2,0,0,1,1.26-1.17h0a1.21,1.21,0,0,1,1.17,1.25h0a1.21,1.21,0,0,1-1.21,1.18h0Zm3.36-1.25a1.21,1.21,0,0,1,1.09-1.33h0a1.21,1.21,0,0,1,1.33,1.09h0a1.21,1.21,0,0,1-1.09,1.33h-.12A1.22,1.22,0,0,1,106.93,105.68Zm-8,.79h0a1.21,1.21,0,0,1-1-1.4h0a1.21,1.21,0,0,1,1.4-1h0a1.21,1.21,0,0,1,1,1.4h0a1.22,1.22,0,0,1-1.2,1h-.2Zm12.52-1.38a1.21,1.21,0,0,1,.91-1.46h0a1.21,1.21,0,0,1,1.46.9h0a1.21,1.21,0,0,1-.9,1.46h0a1,1,0,0,1-.28,0h0A1.24,1.24,0,0,1,111.42,105.09Zm-17.09.3h0a1.22,1.22,0,0,1-.81-1.53h0a1.21,1.21,0,0,1,1.52-.8h0a1.21,1.21,0,0,1,.81,1.52h0a1.22,1.22,0,0,1-1.17.86h0A1.48,1.48,0,0,1,94.33,105.39Zm21.47-1.49a1.22,1.22,0,0,1,.7-1.57h0a1.21,1.21,0,0,1,1.57.7h0a1.21,1.21,0,0,1-.7,1.57h0a1.31,1.31,0,0,1-.43.08h0A1.22,1.22,0,0,1,115.8,103.9Zm-25.86-.2a1.22,1.22,0,0,1-.59-1.62h0a1.21,1.21,0,0,1,1.61-.59h0a1.21,1.21,0,0,1,.59,1.62h0a1.21,1.21,0,0,1-1.1.7h0A1.34,1.34,0,0,1,89.94,103.7Zm30-1.56a1.21,1.21,0,0,1,.48-1.65h0a1.21,1.21,0,0,1,1.65.48h0a1.21,1.21,0,0,1-.48,1.65h0a1.25,1.25,0,0,1-.58.15h0A1.22,1.22,0,0,1,120,102.14Zm-34.16-.7h0a1.22,1.22,0,0,1-.37-1.68h0a1.21,1.21,0,0,1,1.68-.37h0a1.21,1.21,0,0,1,.37,1.68h0a1.21,1.21,0,0,1-1,.56h0A1.2,1.2,0,0,1,85.82,101.44Zm38.06-1.6a1.23,1.23,0,0,1,.26-1.71h0a1.22,1.22,0,0,1,1.7.26h0a1.22,1.22,0,0,1-.26,1.7h0a1.2,1.2,0,0,1-.72.24h0A1.23,1.23,0,0,1,123.88,99.84ZM82,98.65a1.21,1.21,0,0,1-.14-1.71h0a1.22,1.22,0,0,1,1.71-.15h0a1.21,1.21,0,0,1,.14,1.71h0a1.22,1.22,0,0,1-.93.43h0A1.18,1.18,0,0,1,82,98.65ZM127.45,97a1.22,1.22,0,0,1,0-1.72h0a1.21,1.21,0,0,1,1.72,0h0a1.22,1.22,0,0,1,0,1.72h0a1.21,1.21,0,0,1-.85.34h0A1.17,1.17,0,0,1,127.45,97ZM78.66,95.39a1.21,1.21,0,0,1,.09-1.71h0a1.21,1.21,0,0,1,1.72.08h0a1.22,1.22,0,0,1-.09,1.72h0a1.2,1.2,0,0,1-.82.31h0A1.19,1.19,0,0,1,78.66,95.39Zm52-1.61a1.21,1.21,0,0,1-.2-1.71h0a1.21,1.21,0,0,1,1.71-.2h0a1.23,1.23,0,0,1,.2,1.71h0a1.23,1.23,0,0,1-1,.46h0A1.24,1.24,0,0,1,130.61,93.78ZM75.75,91.71A1.22,1.22,0,0,1,76.06,90h0a1.22,1.22,0,0,1,1.69.31h0A1.22,1.22,0,0,1,77.44,92h0a1.18,1.18,0,0,1-.69.22h0A1.21,1.21,0,0,1,75.75,91.71Zm57.56-1.58a1.21,1.21,0,0,1-.42-1.67h0a1.21,1.21,0,0,1,1.66-.42h0a1.22,1.22,0,0,1,.43,1.67h0a1.22,1.22,0,0,1-1,.59h0A1.16,1.16,0,0,1,133.31,90.13Zm-60-2.45A1.22,1.22,0,0,1,73.88,86h0a1.23,1.23,0,0,1,1.64.54h0A1.21,1.21,0,0,1,75,88.21h0a1.17,1.17,0,0,1-.55.13h0A1.21,1.21,0,0,1,73.35,87.68Zm62.15-1.52a1.23,1.23,0,0,1-.64-1.6h0a1.22,1.22,0,0,1,1.6-.64h0a1.22,1.22,0,0,1,.64,1.6h0a1.22,1.22,0,0,1-1.12.73h0A1.17,1.17,0,0,1,135.5,86.16Zm-64-2.8a1.21,1.21,0,0,1,.75-1.55h0a1.22,1.22,0,0,1,1.55.75h0a1.23,1.23,0,0,1-.75,1.55h0a1.39,1.39,0,0,1-.4.06h0A1.21,1.21,0,0,1,71.51,83.36Zm65.64-1.43a1.23,1.23,0,0,1-.86-1.5h0a1.23,1.23,0,0,1,1.5-.85h0a1.22,1.22,0,0,1,.85,1.5h0a1.22,1.22,0,0,1-1.17.89h0A1.12,1.12,0,0,1,137.15,81.93Zm-66.88-3.1h0a1.22,1.22,0,0,1,.94-1.44h0a1.22,1.22,0,0,1,1.44,1h0a1.23,1.23,0,0,1-1,1.44h0l-.24,0h0A1.21,1.21,0,0,1,70.27,78.83Zm67.94-1.31a1.22,1.22,0,0,1-1.05-1.37h0a1.22,1.22,0,0,1,1.37-1h0a1.2,1.2,0,0,1,1,1.36h0a1.22,1.22,0,0,1-1.2,1.06h-.16ZM69.64,74.17a1.21,1.21,0,0,1,1.13-1.29h0A1.22,1.22,0,0,1,72.07,74h0a1.23,1.23,0,0,1-1.13,1.3h-.09A1.22,1.22,0,0,1,69.64,74.17Zm67.81-2.38v0h0v0h0a1.22,1.22,0,0,1,1.21-1.22h0a1.22,1.22,0,0,1,1.22,1.21h0v0h0v0h0A1.21,1.21,0,0,1,138.66,73h0A1.21,1.21,0,0,1,137.45,71.79Zm-66.68-1a1.2,1.2,0,0,1-1.13-1.29h0a1.2,1.2,0,0,1,1.29-1.13h0a1.2,1.2,0,0,1,1.13,1.29h0a1.21,1.21,0,0,1-1.21,1.14h-.08Zm66.38-3.41a1.22,1.22,0,0,1,1-1.37h0a1.21,1.21,0,0,1,1.37,1h0a1.22,1.22,0,0,1-1,1.37h-.16A1.21,1.21,0,0,1,137.15,67.36ZM71.2,66.26a1.22,1.22,0,0,1-1-1.44h0a1.22,1.22,0,0,1,1.43-.95h0a1.23,1.23,0,0,1,1,1.44h0a1.23,1.23,0,0,1-1.19,1h0Zm65.08-3.18a1.22,1.22,0,0,1,.84-1.5h0a1.22,1.22,0,0,1,1.5.85h0a1.2,1.2,0,0,1-.85,1.49h0a.86.86,0,0,1-.32,0h0A1.22,1.22,0,0,1,136.28,63.08Zm-64-1.24a1.21,1.21,0,0,1-.75-1.55h0A1.2,1.2,0,0,1,73,59.54h0a1.21,1.21,0,0,1,.75,1.54h0a1.2,1.2,0,0,1-1.15.82h0A1.32,1.32,0,0,1,72.24,61.84ZM134.83,59a1.23,1.23,0,0,1,.65-1.6h0a1.22,1.22,0,0,1,1.59.64h0a1.22,1.22,0,0,1-.64,1.6h0a1.15,1.15,0,0,1-.48.1h0A1.23,1.23,0,0,1,134.83,59Zm-61-1.35A1.22,1.22,0,0,1,73.32,56h0A1.21,1.21,0,0,1,75,55.42h0a1.23,1.23,0,0,1,.54,1.64h0a1.23,1.23,0,0,1-1.09.67h0A1.38,1.38,0,0,1,73.85,57.6Zm59-2.54h0a1.22,1.22,0,0,1,.43-1.67h0a1.22,1.22,0,0,1,1.66.42h0a1.21,1.21,0,0,1-.42,1.67h0a1.26,1.26,0,0,1-.62.17h0A1.23,1.23,0,0,1,132.85,55.06ZM76,53.61a1.22,1.22,0,0,1-.31-1.69h0a1.21,1.21,0,0,1,1.69-.32h0a1.23,1.23,0,0,1,.31,1.7h0a1.21,1.21,0,0,1-1,.53h0A1.18,1.18,0,0,1,76,53.61Zm54.35-2.15a1.21,1.21,0,0,1,.2-1.71h0a1.21,1.21,0,0,1,1.71.2h0a1.21,1.21,0,0,1-.2,1.71h0a1.24,1.24,0,0,1-.75.26h0A1.23,1.23,0,0,1,130.37,51.46ZM78.7,50a1.23,1.23,0,0,1-.08-1.72h0a1.21,1.21,0,0,1,1.72-.08h0a1.21,1.21,0,0,1,.08,1.71h0a1.19,1.19,0,0,1-.9.4h0A1.24,1.24,0,0,1,78.7,50Zm48.73-1.73a1.21,1.21,0,0,1,0-1.71h0a1.22,1.22,0,0,1,1.72,0h0a1.21,1.21,0,0,1,0,1.72h0a1.18,1.18,0,0,1-.87.38h0A1.22,1.22,0,0,1,127.43,48.22ZM81.85,46.68A1.22,1.22,0,0,1,82,45h0a1.22,1.22,0,0,1,1.71.14h0a1.22,1.22,0,0,1-.14,1.72h0a1.24,1.24,0,0,1-.78.29h0A1.22,1.22,0,0,1,81.85,46.68Zm42.24-1.27a1.22,1.22,0,0,1-.26-1.7h0a1.21,1.21,0,0,1,1.7-.26h0a1.21,1.21,0,0,1,.26,1.7h0a1.23,1.23,0,0,1-1,.49h0A1.28,1.28,0,0,1,124.09,45.41Zm-38.7-1.56a1.22,1.22,0,0,1,.37-1.68h0a1.21,1.21,0,0,1,1.68.37h0a1.21,1.21,0,0,1-.37,1.68h0a1.2,1.2,0,0,1-.65.19h0A1.24,1.24,0,0,1,85.39,43.85Zm35-.79a1.23,1.23,0,0,1-.48-1.66h0a1.21,1.21,0,0,1,1.65-.48h0a1.22,1.22,0,0,1,.49,1.65h0a1.24,1.24,0,0,1-1.07.63h0A1.25,1.25,0,0,1,120.4,43.06ZM89.28,41.52a1.21,1.21,0,0,1,.59-1.61h0a1.22,1.22,0,0,1,1.62.59h0a1.21,1.21,0,0,1-.59,1.61h0a1.19,1.19,0,0,1-.51.12h0A1.22,1.22,0,0,1,89.28,41.52Zm27.16-.3h0a1.23,1.23,0,0,1-.71-1.57h0a1.23,1.23,0,0,1,1.58-.7h0a1.22,1.22,0,0,1,.7,1.57h0a1.23,1.23,0,0,1-1.14.78h0A1.31,1.31,0,0,1,116.44,41.22Zm-23-1.48a1.22,1.22,0,0,1,.8-1.53h0a1.23,1.23,0,0,1,1.53.8h0a1.21,1.21,0,0,1-.8,1.52h0a1.24,1.24,0,0,1-.37.06h0A1.21,1.21,0,0,1,93.45,39.74Zm18.81.19a1.21,1.21,0,0,1-.91-1.46h0a1.22,1.22,0,0,1,1.46-.91h0a1.23,1.23,0,0,1,.91,1.47h0a1.22,1.22,0,0,1-1.18.94h0A1.35,1.35,0,0,1,112.26,39.93ZM97.82,38.52a1.22,1.22,0,0,1,1-1.4h0a1.21,1.21,0,0,1,1.4,1h0a1.21,1.21,0,0,1-1,1.4h0l-.21,0h0A1.22,1.22,0,0,1,97.82,38.52Zm10.13.7a1.23,1.23,0,0,1-1.1-1.33h0a1.23,1.23,0,0,1,1.33-1.1h0a1.23,1.23,0,0,1,1.1,1.33h0a1.23,1.23,0,0,1-1.22,1.1H108Zm-5.63-1.31a1.21,1.21,0,0,1,1.17-1.26h0a1.21,1.21,0,0,1,1.26,1.17h0a1.22,1.22,0,0,1-1.17,1.26h0A1.21,1.21,0,0,1,102.32,37.91Z"/><polygon class="cls-4" points="72.61 142.36 159.27 92.33 72.61 42.29 -14.04 92.33 72.61 142.36"/><polygon class="cls-5" points="101.61 70.32 101.61 50.51 72.61 33.77 43.62 50.51 43.62 70.32 72.61 87.06 101.61 70.32"/><polygon class="cls-6" points="72.62 86.85 72.8 86.95 101.61 70.32 101.61 50.51 101.43 50.41 72.62 67.03 72.62 86.85"/><polygon class="cls-4" points="72.61 67.03 101.42 50.4 72.61 33.77 43.81 50.4 72.61 67.03"/><polygon class="cls-7" points="72.61 55.78 81.93 50.4 72.61 45.02 63.3 50.4 72.61 55.78"/><polygon class="cls-5" points="72.58 45.03 72.6 45.02 81.91 50.4 80.67 51.12 72.6 46.46 72.58 46.46 72.58 45.03"/><polygon class="cls-6" points="72.63 45.03 72.61 45.02 63.3 50.4 64.54 51.12 72.61 46.46 72.63 46.46 72.63 45.03"/><path class="cls-8" d="M43.62,64a14.93,14.93,0,0,1,4.49,5.12,6.11,6.11,0,0,1,.3.65c.12.09.26.22.41.35l.54.27a66.44,66.44,0,0,1,7,4.18A38.51,38.51,0,0,1,66,83.4l1.65.95V70.1L43.62,56.21Z"/><polygon class="cls-5" points="65.6 91.5 65.6 71.69 36.61 54.95 7.62 71.69 7.62 91.5 36.61 108.25 65.6 91.5"/><polygon class="cls-6" points="36.62 108.25 36.8 108.14 65.6 91.5 65.6 71.69 65.42 71.59 36.62 88.22 36.62 108.25"/><polygon class="cls-4" points="36.61 88.21 65.41 71.58 36.61 54.95 7.8 71.58 36.61 88.21"/><polygon class="cls-7" points="36.61 76.96 45.92 71.58 36.61 66.2 27.29 71.58 36.61 76.96"/><polygon class="cls-5" points="36.58 66.21 36.59 66.2 45.91 71.58 44.66 72.3 36.59 67.64 36.58 67.65 36.58 66.21"/><polygon class="cls-6" points="36.62 66.21 36.61 66.2 27.29 71.58 28.54 72.3 36.61 67.64 36.62 67.65 36.62 66.21"/><polygon class="cls-5" points="138.77 91.7 138.77 71.89 109.77 55.15 80.78 71.89 80.78 91.7 109.77 108.44 138.77 91.7"/><polygon class="cls-6" points="109.78 108.44 138.77 91.7 138.77 71.89 138.59 71.79 109.78 88.42 109.78 108.44"/><polygon class="cls-4" points="109.77 88.41 138.58 71.78 109.77 55.15 80.97 71.78 109.77 88.41"/><polygon class="cls-7" points="109.77 77.16 119.09 71.78 109.77 66.4 100.46 71.78 109.77 77.16"/><polygon class="cls-5" points="109.74 66.41 109.75 66.4 119.07 71.78 117.83 72.5 109.75 67.84 109.74 67.85 109.74 66.41"/><polygon class="cls-6" points="109.79 66.41 109.77 66.4 100.46 71.78 101.7 72.5 109.77 67.84 109.79 67.85 109.79 66.41"/><path class="cls-8" d="M80.73,85.69a13.88,13.88,0,0,1,4.14,4.71,4.87,4.87,0,0,1,.27.6l.39.33.49.24a61.19,61.19,0,0,1,6.41,3.86,35.41,35.41,0,0,1,9,8.17l2.18,1.31V91.77L80.73,78.54Z"/><polygon class="cls-5" points="101.61 112.89 101.61 93.07 72.61 76.33 43.62 93.07 43.62 112.89 72.61 129.63 101.61 112.89"/><polygon class="cls-6" points="72.62 129.62 72.8 129.52 101.61 112.89 101.61 93.07 101.43 92.97 72.62 109.6 72.62 129.62"/><polygon class="cls-4" points="72.61 109.59 101.42 92.96 72.61 76.33 43.81 92.96 72.61 109.59"/><polygon class="cls-7" points="72.61 98.34 81.93 92.96 72.61 87.59 63.3 92.96 72.61 98.34"/><polygon class="cls-5" points="72.58 87.59 72.6 87.59 81.91 92.96 80.67 93.68 72.6 89.02 72.58 89.03 72.58 87.59"/><polygon class="cls-6" points="72.63 87.59 72.61 87.59 63.3 92.96 64.54 93.68 72.61 89.02 72.63 89.03 72.63 87.59"/><polygon class="cls-9" points="93.95 103.29 97.75 102.13 93.95 100.97 92.79 97.17 91.62 100.97 87.83 102.13 91.62 103.29 92.79 107.09 93.95 103.29"/><polygon class="cls-3" points="44.86 23.86 48.87 22.63 44.86 21.39 43.63 17.38 42.4 21.39 38.38 22.63 42.4 23.86 43.63 27.87 44.86 23.86"/><polygon class="cls-6" points="51.55 31.66 53.74 30.99 51.55 30.32 50.88 28.12 50.2 30.32 48.01 30.99 50.2 31.66 50.88 33.86 51.55 31.66"/><path class="cls-6" d="M27.54,30.23,21.1,26.51V19.06l6.44-3.72L34,19.06v7.45Zm-3.73-5.29,3.73,2.15,3.73-2.15V20.63l-3.73-2.15-3.73,2.15Z"/><path class="cls-5" d="M106,52.33l-3.26-1.88V46.68L106,44.8l3.26,1.88v3.77Zm-1.88-2.68L106,50.74l1.89-1.09V47.48L106,46.39l-1.88,1.09Z"/><circle class="cls-6" cx="50.59" cy="16.11" r="0.87"/><circle class="cls-6" cx="111.6" cy="44.65" r="0.87"/><polygon class="cls-9" points="52.03 121.26 49.02 119.09 46.01 121.26 43 119.09 39.98 121.26 36.44 118.71 37.5 117.24 39.98 119.03 43 116.86 46.01 119.03 49.02 116.86 52.03 119.03 55.03 116.86 58.04 119.03 61.05 116.86 64.59 119.41 63.53 120.88 61.05 119.09 58.04 121.26 55.03 119.09 52.03 121.26"/><polygon class="cls-9" points="52.03 126.22 49.02 124.06 46.01 126.22 43 124.06 39.98 126.22 36.44 123.68 37.5 122.21 39.98 124 43 121.83 46.01 124 49.02 121.83 52.03 124 55.03 121.83 58.04 124 61.05 121.83 64.59 124.38 63.53 125.84 61.05 124.06 58.04 126.22 55.03 124.06 52.03 126.22"/><polygon class="cls-5" points="88.81 32.31 88.81 12.6 72.75 3.33 56.68 12.6 56.68 32.31 72.75 41.59 88.81 32.31"/><polygon class="cls-6" points="72.75 41.59 72.85 41.53 88.81 32.31 88.81 12.6 88.71 12.55 72.75 21.76 72.75 41.59"/><polygon class="cls-7" points="72.75 21.76 88.7 12.54 72.75 3.33 56.79 12.54 72.75 21.76"/><path class="cls-6" d="M61.54,24.66l-.4-1.2.81-.84.93.7a2.66,2.66,0,0,1,.75-.18L64,22.08l1.2.32.44,1.27a4.85,4.85,0,0,1,.78.59l.9-.21.89,1.29-.3,1a6.65,6.65,0,0,1,.41,1.16l.86.68.06,1.51-.75.22a4.41,4.41,0,0,1-.34,1.15l.34,1-.8.84-.73-.55a2.32,2.32,0,0,1-1,.29l-.26.8-1.19-.32-.34-1A5.36,5.36,0,0,1,63,31.36l-.7.16-.89-1.29.26-.87A7.17,7.17,0,0,1,61.25,28l-.8-.63-.06-1.51.82-.23A3.58,3.58,0,0,1,61.54,24.66ZM64.9,30c.92.25,1.62-.49,1.57-1.65a2.79,2.79,0,0,0-1.75-2.55c-.91-.24-1.62.5-1.57,1.66A2.78,2.78,0,0,0,64.9,30"/><polygon class="cls-5" points="88.81 84.02 88.81 64.31 72.75 55.03 56.68 64.31 56.68 84.02 72.75 93.29 88.81 84.02"/><polygon class="cls-6" points="72.75 93.29 72.85 93.23 88.81 84.02 88.81 64.31 88.71 64.25 72.75 73.46 72.75 93.29"/><polygon class="cls-7" points="72.75 73.46 88.7 64.25 72.75 55.03 56.79 64.25 72.75 73.46"/><path class="cls-6" d="M61.54,76.37l-.4-1.21.81-.84.93.7a3,3,0,0,1,.75-.18l.35-1,1.2.31.44,1.28a4.78,4.78,0,0,1,.78.58l.9-.21L68.19,77l-.3,1a6.65,6.65,0,0,1,.41,1.16l.86.68.06,1.51-.75.22a4.41,4.41,0,0,1-.34,1.15l.34,1-.8.84-.73-.55a2.2,2.2,0,0,1-1,.29l-.26.8-1.19-.32-.34-1A5.8,5.8,0,0,1,63,83.06l-.7.16-.89-1.29.26-.87a7,7,0,0,1-.43-1.36l-.8-.63-.06-1.51.82-.23A3.51,3.51,0,0,1,61.54,76.37Zm3.36,5.35c.92.24,1.62-.5,1.57-1.66a2.77,2.77,0,0,0-1.75-2.54c-.91-.25-1.62.49-1.57,1.65a2.81,2.81,0,0,0,1.75,2.55"/><polygon class="cls-5" points="52.69 59.84 52.69 40.13 36.62 30.86 20.56 40.13 20.56 59.84 36.62 69.11 52.69 59.84"/><polygon class="cls-6" points="36.63 69.11 52.69 59.84 52.69 40.13 52.59 40.07 36.63 49.29 36.63 69.11"/><polygon class="cls-7" points="36.62 49.28 52.58 40.07 36.62 30.86 20.66 40.07 36.62 49.28"/><path class="cls-6" d="M25.41,52.19,25,51l.8-.84.94.7a2.29,2.29,0,0,1,.75-.18l.35-1.06,1.19.32.45,1.27a4.71,4.71,0,0,1,.78.59l.9-.22.88,1.29-.3,1a6.5,6.5,0,0,1,.42,1.17l.86.68.06,1.5-.76.22A4.3,4.3,0,0,1,32,58.6l.33,1-.79.85-.73-.55a2.49,2.49,0,0,1-1.05.29l-.26.79-1.19-.32L28,59.74a4.64,4.64,0,0,1-1.09-.86l-.7.17-.89-1.29.26-.88a6.88,6.88,0,0,1-.44-1.35l-.79-.63-.06-1.51.81-.24A4.52,4.52,0,0,1,25.41,52.19Zm3.36,5.35c.92.25,1.63-.5,1.58-1.65a2.79,2.79,0,0,0-1.75-2.55C27.68,53.1,27,53.84,27,55a2.8,2.8,0,0,0,1.75,2.54"/><polygon class="cls-4" points="36.54 43.54 42.87 39.89 36.54 36.24 30.22 39.89 36.54 43.54"/><polygon class="cls-5" points="36.52 36.24 36.53 36.24 42.86 39.89 42.01 40.38 36.53 37.22 36.52 37.22 36.52 36.24"/><polygon class="cls-6" points="36.55 36.24 36.54 36.24 30.22 39.89 31.06 40.38 36.54 37.22 36.55 37.22 36.55 36.24"/><polygon class="cls-4" points="72.69 16.02 79.01 12.37 72.69 8.71 66.36 12.37 72.69 16.02"/><polygon class="cls-5" points="72.67 8.72 72.68 8.71 79 12.37 78.16 12.85 72.68 9.69 72.67 9.69 72.67 8.72"/><polygon class="cls-6" points="72.7 8.72 72.69 8.71 66.36 12.37 67.21 12.85 72.69 9.69 72.7 9.69 72.7 8.72"/><polygon class="cls-4" points="72.69 67.88 79.01 64.23 72.69 60.58 66.36 64.23 72.69 67.88"/><polygon class="cls-5" points="72.67 60.58 72.68 60.57 79 64.23 78.16 64.71 72.68 61.55 72.67 61.55 72.67 60.58"/><polygon class="cls-6" points="72.7 60.58 72.69 60.57 66.36 64.23 67.21 64.71 72.69 61.55 72.7 61.55 72.7 60.58"/></g></g></svg>