<svg xmlns="http://www.w3.org/2000/svg" viewBox="0 0 118.97 122.71"><defs><style>.cls-1{fill:#89a2f6;}.cls-2{fill:#f8fafa;}.cls-3{fill:#3c6df0;}.cls-4{fill:#fff;}.cls-5{fill:#001c59;}.cls-6{fill:#ed8280;}.cls-7{fill:#648fff;}.cls-8{fill:#3151b7;}.cls-9{fill:#e7e9f7;}</style></defs><title>Docs Icon 3 copy</title><g id="architecture-center"><rect class="cls-1" x="-22.58" y="-14.77" width="160" height="160"/><path class="cls-2" d="M66.77,61.7V37.92L87.36,26,108,37.92V61.7L87.36,73.59Z"/><circle class="cls-3" cx="114.82" cy="111.43" r="1.65"/><path class="cls-3" d="M88.78,90h0a1.41,1.41,0,0,1-1.4-1.36h0a1.42,1.42,0,0,1,1.36-1.44h0a1.41,1.41,0,0,1,1.44,1.36h0A1.4,1.4,0,0,1,88.82,90Zm-5.2-.18h-.14a1.38,1.38,0,0,1-1.25-1.52h0a1.39,1.39,0,0,1,1.53-1.25h0a1.39,1.39,0,0,1-.14,2.78ZM94,89.5h0a1.39,1.39,0,0,1-1.38-1.16h0a1.41,1.41,0,0,1,1.15-1.61h0a1.4,1.4,0,0,1,1.61,1.15h0a1.41,1.41,0,0,1-1.15,1.61H94ZM78.45,89h0a1.12,1.12,0,0,1-.32,0h0a1.4,1.4,0,0,1-1-1.68h0a1.39,1.39,0,0,1,1.68-1h0A1.39,1.39,0,0,1,78.45,89ZM99,88.31h0a1.41,1.41,0,0,1-1.34-1h0a1.39,1.39,0,0,1,.92-1.74h0a1.39,1.39,0,0,1,1.75.92h0a1.4,1.4,0,0,1-.93,1.75h0A2,2,0,0,1,99,88.31Zm-25.55-.87h0a1.24,1.24,0,0,1-.5-.1h0a1.4,1.4,0,0,1-.81-1.8h0a1.4,1.4,0,0,1,1.81-.8h0a1.4,1.4,0,0,1-.5,2.7Zm30.4-1h0a1.39,1.39,0,0,1-1.26-.81h0a1.4,1.4,0,0,1,.68-1.86h0a1.39,1.39,0,0,1,1.85.68h0a1.4,1.4,0,0,1-.68,1.86A1.37,1.37,0,0,1,103.88,86.44ZM68.76,85.25h0a1.35,1.35,0,0,1-.67-.18h0a1.39,1.39,0,0,1-.55-1.9h0a1.4,1.4,0,0,1,1.89-.55h0a1.4,1.4,0,0,1,.56,1.9A1.43,1.43,0,0,1,68.76,85.25Zm39.69-1.32h0a1.39,1.39,0,0,1-1.18-.64h0a1.4,1.4,0,0,1,.43-1.93h0a1.4,1.4,0,0,1,1.93.43h0a1.41,1.41,0,0,1-.43,1.93h0A1.36,1.36,0,0,1,108.45,83.93ZM64.38,82.44h0a1.42,1.42,0,0,1-.83-.27h0a1.4,1.4,0,0,1-.29-2h0a1.39,1.39,0,0,1,1.95-.29h0a1.4,1.4,0,0,1-.83,2.52Zm48.26-1.59h0a1.41,1.41,0,0,1-1.07-.5h0a1.41,1.41,0,0,1,.17-2h0a1.41,1.41,0,0,1,2,.17h0a1.4,1.4,0,0,1-1.07,2.3ZM60.41,79.08h0a1.39,1.39,0,0,1-1-.39h0a1.39,1.39,0,0,1,0-2h0a1.39,1.39,0,0,1,2,0h0a1.39,1.39,0,0,1,0,2A1.36,1.36,0,0,1,60.41,79.08Zm56-1.85h0a1.38,1.38,0,0,1-.93-.36h0a1.38,1.38,0,0,1-.1-2h0a1.38,1.38,0,0,1,2-.1h0a1.39,1.39,0,0,1-.94,2.43Zm-59.46-2h0a1.39,1.39,0,0,1-1.1-.53h0a1.39,1.39,0,0,1,.23-2h0A1.4,1.4,0,0,1,58,73h0a1.4,1.4,0,0,1-.23,2A1.39,1.39,0,0,1,56.92,75.22Zm62.69-2.07h0a1.39,1.39,0,0,1-.79-.25h0a1.39,1.39,0,0,1-.35-1.94h0a1.39,1.39,0,0,1,1.94-.35h0a1.39,1.39,0,0,1-.8,2.54ZM54,70.93h0a1.4,1.4,0,0,1-1.2-.68h0a1.4,1.4,0,0,1,.48-1.92h0a1.4,1.4,0,0,1,1.92.49h0a1.4,1.4,0,0,1-.49,1.91A1.32,1.32,0,0,1,54,70.93Zm68.3-2.25h0a1.42,1.42,0,0,1-.63-.15h0a1.4,1.4,0,0,1-.61-1.88h0a1.4,1.4,0,0,1,1.88-.61h0a1.4,1.4,0,0,1,.61,1.88A1.41,1.41,0,0,1,122.27,68.68Zm-70.65-2.4h0a1.4,1.4,0,0,1-1.29-.85h0a1.4,1.4,0,0,1,.74-1.83h0a1.4,1.4,0,0,1,1.83.74h0a1.4,1.4,0,0,1-.74,1.83A1.31,1.31,0,0,1,51.62,66.28Zm72.69-2.39h0a1.28,1.28,0,0,1-.46-.08h0A1.4,1.4,0,0,1,123,62h0a1.41,1.41,0,0,1,1.78-.87h0a1.4,1.4,0,0,1-.46,2.72Zm-74.4-2.53h0a1.39,1.39,0,0,1-1.35-1h0a1.4,1.4,0,0,1,1-1.72h0a1.41,1.41,0,0,1,1.72,1h0a1.4,1.4,0,0,1-1,1.71A1.12,1.12,0,0,1,49.91,61.36Zm75.78-2.49h0l-.28,0h0a1.41,1.41,0,0,1-1.09-1.65h0A1.39,1.39,0,0,1,126,56.11h0a1.4,1.4,0,0,1,1.09,1.65h0A1.39,1.39,0,0,1,125.69,58.87ZM48.87,56.26h0a1.4,1.4,0,0,1-1.38-1.21h0a1.4,1.4,0,0,1,1.2-1.57h0a1.4,1.4,0,0,1,1.57,1.2h0a1.4,1.4,0,0,1-1.2,1.57Zm77.52-2.54h-.1a1.4,1.4,0,0,1-1.3-1.48h0a1.41,1.41,0,0,1,1.49-1.31h0a1.4,1.4,0,0,1-.09,2.8ZM48.53,51.07h0a1.39,1.39,0,0,1-1.39-1.4h0v0h0v0h0a1.39,1.39,0,0,1,1.4-1.4h0a1.4,1.4,0,0,1,1.39,1.4h0v0h0v0A1.4,1.4,0,0,1,48.53,51.07Zm77.86-2.56h0A1.4,1.4,0,0,1,125,47.2h0a1.4,1.4,0,0,1,1.3-1.48h0a1.39,1.39,0,0,1,1.48,1.3h0a1.4,1.4,0,0,1-1.3,1.49Zm-77.5-2.72H48.7a1.4,1.4,0,0,1-1.2-1.57h0A1.41,1.41,0,0,1,49.08,43h0a1.41,1.41,0,0,1,1.19,1.58A1.38,1.38,0,0,1,48.89,45.79Zm76.82-2.44h0a1.4,1.4,0,0,1-1.37-1.12h0a1.41,1.41,0,0,1,1.09-1.65h0a1.4,1.4,0,0,1,1.65,1.1h0a1.4,1.4,0,0,1-1.1,1.64A1.24,1.24,0,0,1,125.71,43.35ZM49.93,40.69h0a1.18,1.18,0,0,1-.37,0h0a1.39,1.39,0,0,1-1-1.71h0a1.4,1.4,0,0,1,1.72-1h0a1.39,1.39,0,0,1-.37,2.74Zm74.41-2.36h0a1.4,1.4,0,0,1-1.32-.95h0a1.39,1.39,0,0,1,.87-1.77h0a1.39,1.39,0,0,1,1.77.86h0a1.4,1.4,0,0,1-.86,1.78A1.48,1.48,0,0,1,124.34,38.33ZM51.65,35.78h0a1.32,1.32,0,0,1-.55-.11h0a1.4,1.4,0,0,1-.74-1.83h0a1.4,1.4,0,0,1,1.83-.74h0a1.4,1.4,0,0,1-.54,2.68Zm70.66-2.25h0a1.38,1.38,0,0,1-1.24-.77h0a1.38,1.38,0,0,1,.61-1.87h0a1.4,1.4,0,0,1,1.88.61h0a1.4,1.4,0,0,1-1.25,2ZM54,31.15h0a1.41,1.41,0,0,1-.71-.2h0A1.4,1.4,0,0,1,52.81,29h0a1.39,1.39,0,0,1,1.91-.48h0a1.39,1.39,0,0,1,.48,1.91h0A1.39,1.39,0,0,1,54,31.15Zm65.66-2.1h0a1.41,1.41,0,0,1-1.15-.61h0a1.39,1.39,0,0,1,.36-1.94h0a1.4,1.4,0,0,1,1.94.36h0a1.39,1.39,0,0,1-.36,1.94A1.37,1.37,0,0,1,119.66,29.05ZM57,26.86h0a1.41,1.41,0,0,1-.87-.3h0a1.41,1.41,0,0,1-.23-2h0a1.41,1.41,0,0,1,2-.23h0a1.4,1.4,0,0,1,.22,2A1.37,1.37,0,0,1,57,26.86ZM116.43,25h0a1.39,1.39,0,0,1-1-.46h0a1.39,1.39,0,0,1,.1-2h0a1.39,1.39,0,0,1,2,.1h0a1.4,1.4,0,0,1-1,2.33ZM60.46,23h0a1.42,1.42,0,0,1-1-.42h0a1.4,1.4,0,0,1,0-2h0a1.38,1.38,0,0,1,2,0h0a1.39,1.39,0,0,1-1,2.36Zm52.24-1.67h0a1.39,1.39,0,0,1-.9-.33h0a1.41,1.41,0,0,1-.17-2h0a1.4,1.4,0,0,1,2-.16h0a1.4,1.4,0,0,1-.9,2.46ZM64.44,19.65h0a1.41,1.41,0,0,1-1.13-.56h0a1.41,1.41,0,0,1,.3-2h0a1.4,1.4,0,0,1,2,.3h0a1.39,1.39,0,0,1-.29,1.95A1.37,1.37,0,0,1,64.44,19.65Zm44.08-1.41h0a1.4,1.4,0,0,1-.76-.22h0a1.39,1.39,0,0,1-.42-1.93h0a1.4,1.4,0,0,1,1.93-.42h0a1.4,1.4,0,0,1-.75,2.57ZM68.83,16.86h0a1.41,1.41,0,0,1-1.23-.73h0a1.4,1.4,0,0,1,.56-1.9h0a1.39,1.39,0,0,1,1.89.56h0a1.41,1.41,0,0,1-.55,1.9A1.48,1.48,0,0,1,68.83,16.86ZM104,15.73h0a1.37,1.37,0,0,1-.59-.13h0a1.38,1.38,0,0,1-.67-1.85h0a1.39,1.39,0,0,1,1.85-.68h0a1.41,1.41,0,0,1,.68,1.86A1.39,1.39,0,0,1,104,15.73ZM73.55,14.67h0a1.39,1.39,0,0,1-1.3-.9h0a1.39,1.39,0,0,1,.8-1.8h0a1.4,1.4,0,0,1,1.81.8h0a1.41,1.41,0,0,1-.81,1.81h0A1.43,1.43,0,0,1,73.55,14.67Zm25.56-.81h0a1.54,1.54,0,0,1-.42-.07h0A1.4,1.4,0,0,1,97.77,12h0a1.39,1.39,0,0,1,1.75-.91h0a1.38,1.38,0,0,1,.92,1.74A1.41,1.41,0,0,1,99.11,13.86Zm-20.58-.72h0a1.41,1.41,0,0,1-1.36-1.08h0a1.41,1.41,0,0,1,1-1.68h0a1.4,1.4,0,0,1,1.68,1h0a1.4,1.4,0,0,1-1,1.68A1.87,1.87,0,0,1,78.53,13.14ZM94,12.65h0l-.23,0h0A1.39,1.39,0,0,1,92.67,11h0a1.39,1.39,0,0,1,1.61-1.15h0A1.4,1.4,0,0,1,94,12.65Zm-10.38-.36h0A1.4,1.4,0,0,1,82.27,11h0A1.4,1.4,0,0,1,83.53,9.5h0a1.4,1.4,0,0,1,1.53,1.25h0a1.41,1.41,0,0,1-1.26,1.53Zm5.21-.17h-.05a1.4,1.4,0,0,1-1.35-1.44h0a1.4,1.4,0,0,1,1.44-1.35h0a1.4,1.4,0,0,1,0,2.79Z"/><polygon class="cls-4" points="27.59 117.93 24.49 116.98 27.59 116.03 28.54 112.93 29.49 116.03 32.59 116.98 29.49 117.93 28.54 121.03 27.59 117.93"/><path class="cls-3" d="M102.75,102.69V96.76l5.14-3,5.14,3v5.93l-5.14,3ZM110.86,98l-3-1.72-3,1.72v3.43l3,1.71,3-1.71Z"/><rect class="cls-5" x="13.82" y="47.08" width="74" height="60.62" transform="translate(101.64 154.77) rotate(-180)"/><rect class="cls-4" x="10.59" y="52.78" width="72.91" height="50.67" transform="translate(94.09 156.23) rotate(-180)"/><rect class="cls-6" x="10.59" y="44.47" width="72.91" height="9.69" transform="translate(94.09 98.63) rotate(-180)"/><circle class="cls-6" cx="77.39" cy="49.68" r="2.04"/><circle class="cls-7" cx="71.18" cy="49.68" r="2.04"/><rect class="cls-1" x="74.82" y="87.12" width="3.12" height="16.64" transform="translate(152.75 190.88) rotate(-180)"/><circle class="cls-4" cx="64.97" cy="49.68" r="2.04"/><path class="cls-8" d="M23.21,71.17l5.45-3.43v-.16l-5.45-3.43V60.74l9,5.9v2l-9,6Z"/><path class="cls-8" d="M35.28,78.91V76.1H46.63v2.81Z"/><rect class="cls-5" x="52.97" y="86.77" width="44.55" height="30.71" transform="translate(150.49 204.25) rotate(-180)"/><rect class="cls-9" x="48.67" y="82.32" width="44.55" height="30.71" transform="translate(141.9 195.34) rotate(-180)"/><polygon class="cls-4" points="35.75 38.4 30.08 36.66 35.75 34.93 37.48 29.26 39.22 34.93 44.89 36.66 39.22 38.4 37.48 44.06 35.75 38.4"/><polygon class="cls-5" points="28.07 45.52 24.97 44.57 28.07 43.62 29.02 40.52 29.97 43.62 33.07 44.57 29.97 45.52 29.02 48.62 28.07 45.52"/><polygon class="cls-8" points="105.17 43.56 108.35 41.27 111.52 43.56 114.7 41.27 117.88 43.56 121.62 40.87 120.51 39.32 117.88 41.21 114.7 38.92 111.52 41.21 108.35 38.92 105.17 41.21 102 38.92 98.83 41.21 95.65 38.92 91.92 41.61 93.03 43.16 95.65 41.27 98.83 43.56 102 41.27 105.17 43.56"/><polygon class="cls-8" points="105.17 48.8 108.35 46.51 111.52 48.8 114.7 46.51 117.88 48.8 121.62 46.11 120.51 44.56 117.88 46.45 114.7 44.16 111.52 46.45 108.35 44.16 105.17 46.45 102 44.16 98.83 46.45 95.65 44.16 91.92 46.85 93.03 48.4 95.65 46.51 98.83 48.8 102 46.51 105.17 48.8"/><polygon class="cls-8" points="105.17 54.04 108.35 51.75 111.52 54.04 114.7 51.75 117.88 54.04 121.62 51.35 120.51 49.8 117.88 51.69 114.7 49.4 111.52 51.69 108.35 49.4 105.17 51.69 102 49.4 98.83 51.69 95.65 49.4 91.92 52.09 93.03 53.64 95.65 51.75 98.83 54.04 102 51.75 105.17 54.04"/><polygon class="cls-6" points="35.26 110.81 29.6 109.08 35.26 107.34 37 101.67 38.74 107.34 44.4 109.08 38.74 110.81 37 116.48 35.26 110.81"/><path class="cls-5" d="M22.5,44.94a12,12,0,0,1-11.91,12V44.48h11.9C22.5,44.63,22.5,44.79,22.5,44.94Z"/><rect class="cls-6" x="53.26" y="94.39" width="25.03" height="2.33"/><rect class="cls-6" x="53.26" y="99.02" width="18.04" height="2.33"/><rect class="cls-8" x="53.26" y="88.11" width="18.3" height="2.89"/><rect class="cls-5" x="53.26" y="104.49" width="35.52" height="2.33"/><circle class="cls-9" cx="8.22" cy="43.11" r="11.96"/><path class="cls-8" d="M3.29,41.35a4.59,4.59,0,0,1,9.14-.06h.11a3.44,3.44,0,1,1,0,6.87H3.9a3.43,3.43,0,0,1-.61-6.81Z"/></g></svg>