<?xml version="1.0" encoding="UTF-8"?>
<svg width="22px" height="16px" viewBox="0 0 22 16" version="1.1" xmlns="http://www.w3.org/2000/svg" xmlns:xlink="http://www.w3.org/1999/xlink">
    <!-- Generator: Sketch 52.2 (67145) - http://www.bohemiancoding.com/sketch -->
    <title>bee</title>
    <desc>Created with Sketch.</desc>
    <g id="bee" stroke="none" stroke-width="1" fill="none" fill-rule="evenodd">
        <g id="bee_24" fill="#152935" fill-rule="nonzero">
            <path d="M14.445,6.5 C13.752,5.309 12.477,4.5 11,4.5 C9.523,4.5 8.248,5.309 7.555,6.5 L14.445,6.5 Z M7.026,7.5 C7.00874911,7.63263632 7.00006445,7.76624656 7,7.9 L7,9.5 L15,9.5 L15,7.9 C15,7.765 14.991,7.631 14.974,7.5 L7.026,7.5 Z M7,12.1 C7,12.235 7.009,12.369 7.026,12.5 L14.974,12.5 C14.991,12.369 15,12.235 15,12.1 L15,10.5 L7,10.5 L7,12.1 Z M7.555,13.5 C8.248,14.691 9.523,15.5 11,15.5 C12.477,15.5 13.752,14.691 14.445,13.5 L7.555,13.5 Z M5.356,7.144 L4.165,10.503 C4.082,10.695 3.965,10.868 3.816,11.018 C3.42650558,11.4080455 2.86779524,11.5775341 2.3272428,11.4696245 C1.78669036,11.361715 1.33588026,10.9906976 1.126,10.481 C0.956321089,10.0774436 0.956321089,9.62255637 1.126,9.219 C1.29013308,8.82122902 1.6035067,8.50354785 1.999,8.334 L5.356,7.144 Z M7,5.5 L1.636,7.402 C0.285820759,7.96382909 -0.355452641,9.51200797 0.202,10.864 C0.469505326,11.5138498 0.985336925,12.0300414 1.635,12.298 C1.958,12.432 2.301,12.5 2.644,12.5 L2.654,12.5 C2.997,12.5 3.34,12.432 3.663,12.298 C4.31203729,12.0291045 4.82755732,11.5132247 5.096,10.864 L7,5.5 Z M16.644,7.144 L20.001,8.335 C20.6088543,8.59310829 21.002598,9.19062137 21,9.851 C21.0008737,10.2885135 20.8269988,10.7082613 20.517,11.017 C20.0438925,11.4882517 19.3336041,11.6283363 18.717,11.372 C18.5173968,11.2900155 18.3361839,11.1689802 18.184,11.016 C18.0355853,10.8684117 17.9170806,10.693541 17.835,10.501 L16.644,7.144 Z M15,5.5 L16.902,10.864 C17.032,11.178 17.222,11.47 17.476,11.724 C17.73,11.978 18.022,12.169 18.335,12.298 C18.658,12.432 19.001,12.5 19.344,12.5 L19.354,12.5 C20.238659,12.4995551 21.0646614,12.0573586 21.5555674,11.3214014 C22.0464734,10.5854441 22.1374313,9.65295055 21.798,8.836 C21.5284538,8.18739797 21.0127899,7.67209372 20.364,7.403 L15,5.5 Z M8.5,1.5 C8.77614237,1.5 9,1.72385763 9,2 C9,2.27614237 8.77614237,2.5 8.5,2.5 C8.22385763,2.5 8,2.27614237 8,2 C8,1.72385763 8.22385763,1.5 8.5,1.5 Z M8.5,0.5 C7.67157288,0.5 7,1.17157288 7,2 C7,2.82842712 7.67157288,3.5 8.5,3.5 C9.32842712,3.5 10,2.82842712 10,2 C10,1.17157288 9.32842712,0.5 8.5,0.5 Z M13.5,1.5 C13.7761424,1.5 14,1.72385763 14,2 C14,2.27614237 13.7761424,2.5 13.5,2.5 C13.2238576,2.5 13,2.27614237 13,2 C13,1.72385763 13.2238576,1.5 13.5,1.5 Z M13.5,0.5 C12.6715729,0.5 12,1.17157288 12,2 C12,2.82842712 12.6715729,3.5 13.5,3.5 C14.3284271,3.5 15,2.82842712 15,2 C15,1.17157288 14.3284271,0.5 13.5,0.5 Z" id="Shape"></path>
        </g>
    </g>
</svg>