<svg xmlns="http://www.w3.org/2000/svg" viewBox="0 0 118.97 122.71"><defs><style>.cls-1{fill:#e7e9f7;}.cls-2{fill:#fff;}.cls-3{fill:#5392ff;}.cls-4{fill:#3151b7;}.cls-5{fill:#89a2f6;}.cls-6{fill:#ea8281;}.cls-7{fill:#001c59;}.cls-8{fill:#ed8280;}.cls-9{fill:#3c6df0;}.cls-10{opacity:0.47;}</style></defs><title>Docs Icon 1 copy 2</title><g id="watson-sdk"><rect class="cls-1" x="-20.7" y="-19.9" width="160" height="160"/><polygon class="cls-2" points="81.01 52.16 84.79 51 81.01 49.85 79.86 46.07 78.7 49.85 74.92 51 78.7 52.16 79.86 55.94 81.01 52.16"/><polygon class="cls-3" points="73.27 61.06 76.38 60.1 73.27 59.15 72.31 56.03 71.35 59.15 68.24 60.1 71.35 61.06 72.31 64.17 73.27 61.06"/><path class="cls-3" d="M41.78,104.23A1.81,1.81,0,0,1,40,102.36h0a1.81,1.81,0,0,1,1.87-1.75h0a1.81,1.81,0,0,1,1.75,1.87h0a1.81,1.81,0,0,1-1.81,1.75h0Zm5-1.85a1.81,1.81,0,0,1,1.62-2h0a1.81,1.81,0,0,1,2,1.63h0a1.81,1.81,0,0,1-1.62,2h-.18A1.81,1.81,0,0,1,46.78,102.38Zm-12,1.17h0a1.82,1.82,0,0,1-1.49-2.09h0A1.82,1.82,0,0,1,35.41,100h0a1.81,1.81,0,0,1,1.49,2.08h0a1.8,1.8,0,0,1-1.78,1.52h0Zm18.65-2a1.81,1.81,0,0,1,1.35-2.18h0A1.8,1.8,0,0,1,57,100.66h0a1.81,1.81,0,0,1-1.35,2.18h0a2,2,0,0,1-.42,0h0A1.81,1.81,0,0,1,53.47,101.5ZM28,101.93h0a1.8,1.8,0,0,1-1.2-2.26h0a1.81,1.81,0,0,1,2.26-1.2h0a1.82,1.82,0,0,1,1.2,2.27h0A1.83,1.83,0,0,1,28.55,102h0A1.7,1.7,0,0,1,28,101.93Zm32-2.2a1.82,1.82,0,0,1,1-2.35h0a1.82,1.82,0,0,1,2.34,1.05h0a1.79,1.79,0,0,1-1,2.33h0a1.64,1.64,0,0,1-.65.13h0A1.81,1.81,0,0,1,60,99.73Zm-38.51-.31A1.81,1.81,0,0,1,20.6,97h0A1.82,1.82,0,0,1,23,96.13h0a1.82,1.82,0,0,1,.88,2.41h0a1.82,1.82,0,0,1-1.65,1h0A1.75,1.75,0,0,1,21.48,99.42ZM66.21,97.1a1.82,1.82,0,0,1,.71-2.46h0a1.81,1.81,0,0,1,2.46.72h0a1.8,1.8,0,0,1-.71,2.46h0a1.84,1.84,0,0,1-.87.22h0A1.81,1.81,0,0,1,66.21,97.1Zm-50.86-1h0a1.81,1.81,0,0,1-.56-2.5h0A1.81,1.81,0,0,1,17.3,93h0a1.81,1.81,0,0,1,.55,2.5h0a1.81,1.81,0,0,1-1.53.83h0A1.82,1.82,0,0,1,15.35,96.06ZM72,93.67a1.82,1.82,0,0,1,.38-2.53h0a1.81,1.81,0,0,1,2.54.38h0a1.81,1.81,0,0,1-.39,2.53h0a1.7,1.7,0,0,1-1.07.35h0A1.82,1.82,0,0,1,72,93.67ZM9.72,91.91a1.82,1.82,0,0,1-.22-2.55h0a1.82,1.82,0,0,1,2.56-.22h0a1.81,1.81,0,0,1,.21,2.55h0a1.82,1.82,0,0,1-1.38.64h0A1.78,1.78,0,0,1,9.72,91.91Zm67.61-2.42a1.8,1.8,0,0,1,0-2.56h0a1.81,1.81,0,0,1,2.56,0h0a1.82,1.82,0,0,1,0,2.57h0a1.86,1.86,0,0,1-1.26.51h0A1.8,1.8,0,0,1,77.33,89.49ZM4.69,87.06a1.82,1.82,0,0,1,.13-2.56h0a1.8,1.8,0,0,1,2.55.12h0a1.81,1.81,0,0,1-.12,2.56h0A1.83,1.83,0,0,1,6,87.65H6A1.82,1.82,0,0,1,4.69,87.06ZM82,84.65a1.82,1.82,0,0,1-.29-2.55h0a1.81,1.81,0,0,1,2.54-.29h0a1.8,1.8,0,0,1,.3,2.54h0a1.82,1.82,0,0,1-1.42.69h0A1.87,1.87,0,0,1,82,84.65ZM.35,81.58a1.8,1.8,0,0,1,.47-2.52h0a1.8,1.8,0,0,1,2.51.46h0A1.81,1.81,0,0,1,2.87,82h0a1.84,1.84,0,0,1-1,.32h0A1.81,1.81,0,0,1,.35,81.58Zm85.71-2.36a1.81,1.81,0,0,1-.63-2.48h0a1.81,1.81,0,0,1,2.48-.63h0a1.81,1.81,0,0,1,.63,2.48h0a1.81,1.81,0,0,1-1.56.89h0A1.74,1.74,0,0,1,86.06,79.22ZM-3.22,75.57a1.82,1.82,0,0,1,.79-2.44h0a1.82,1.82,0,0,1,2.44.8H0a1.81,1.81,0,0,1-.8,2.43h0a1.7,1.7,0,0,1-.81.2h0A1.81,1.81,0,0,1-3.22,75.57Zm92.55-2.26a1.82,1.82,0,0,1-1-2.38h0a1.81,1.81,0,0,1,2.37-1h0a1.82,1.82,0,0,1,1,2.38h0A1.8,1.8,0,0,1,90,73.45h0A1.75,1.75,0,0,1,89.33,73.31ZM-6,69.14a1.81,1.81,0,0,1,1.12-2.31h0a1.81,1.81,0,0,1,2.3,1.11h0a1.81,1.81,0,0,1-1.11,2.31h0a1.8,1.8,0,0,1-.6.1h0A1.82,1.82,0,0,1-6,69.14ZM91.77,67a1.82,1.82,0,0,1-1.27-2.23h0a1.82,1.82,0,0,1,2.23-1.27h0A1.82,1.82,0,0,1,94,65.74h0a1.82,1.82,0,0,1-1.75,1.33h0A2,2,0,0,1,91.77,67ZM-7.81,62.39h0A1.81,1.81,0,0,1-6.4,60.25h0a1.82,1.82,0,0,1,2.14,1.42h0a1.82,1.82,0,0,1-1.41,2.14h0a2.31,2.31,0,0,1-.37,0h0A1.81,1.81,0,0,1-7.81,62.39Zm101.16-2a1.82,1.82,0,0,1-1.56-2h0a1.8,1.8,0,0,1,2-1.55h0a1.8,1.8,0,0,1,1.56,2h0a1.82,1.82,0,0,1-1.79,1.58h0Zm-102.09-5A1.81,1.81,0,0,1-7,53.53h0a1.8,1.8,0,0,1,1.92,1.69h0a1.82,1.82,0,0,1-1.68,1.93h-.13A1.8,1.8,0,0,1-8.74,55.46Zm101-3.55v-.06h0v0h0A1.81,1.81,0,0,1,94,50h0a1.8,1.8,0,0,1,1.81,1.81h0v.05h0v.06h0A1.81,1.81,0,0,1,94,53.72h0A1.81,1.81,0,0,1,92.22,51.91ZM-7.06,50.4a1.81,1.81,0,0,1-1.69-1.93h0a1.8,1.8,0,0,1,1.92-1.69h0a1.83,1.83,0,0,1,1.7,1.93h0A1.82,1.82,0,0,1-6.94,50.4h-.12Zm98.84-5.09a1.81,1.81,0,0,1,1.55-2h0a1.82,1.82,0,0,1,2,1.55h0a1.81,1.81,0,0,1-1.55,2h0l-.25,0h0A1.81,1.81,0,0,1,91.78,45.31Zm-98.2-1.64a1.8,1.8,0,0,1-1.41-2.13h0A1.81,1.81,0,0,1-5.7,40.12h0a1.83,1.83,0,0,1,1.42,2.14h0a1.83,1.83,0,0,1-1.78,1.45h0A1.47,1.47,0,0,1-6.42,43.67Zm96.89-4.73a1.81,1.81,0,0,1,1.27-2.23h0A1.81,1.81,0,0,1,94,38h0A1.82,1.82,0,0,1,92.7,40.2h0a1.58,1.58,0,0,1-.48.06h0A1.82,1.82,0,0,1,90.47,38.94ZM-4.88,37.09A1.82,1.82,0,0,1-6,34.79h0a1.8,1.8,0,0,1,2.3-1.12h0A1.81,1.81,0,0,1-2.57,36h0a1.82,1.82,0,0,1-1.72,1.22h0A1.78,1.78,0,0,1-4.88,37.09Zm93.21-4.3a1.81,1.81,0,0,1,1-2.38h0a1.83,1.83,0,0,1,2.38,1h0a1.82,1.82,0,0,1-1,2.38h0a1.84,1.84,0,0,1-.72.14h0A1.8,1.8,0,0,1,88.33,32.79Zm-90.8-2a1.81,1.81,0,0,1-.8-2.43h0a1.81,1.81,0,0,1,2.43-.81h0A1.81,1.81,0,0,1,0,30H0a1.79,1.79,0,0,1-1.62,1h0A1.81,1.81,0,0,1-2.47,30.78ZM85.38,27h0A1.82,1.82,0,0,1,86,24.51h0a1.81,1.81,0,0,1,2.48.63h0a1.83,1.83,0,0,1-.62,2.49h0a1.88,1.88,0,0,1-.93.25h0A1.81,1.81,0,0,1,85.38,27ZM.76,24.84a1.81,1.81,0,0,1-.47-2.51h0a1.81,1.81,0,0,1,2.52-.47h0a1.81,1.81,0,0,1,.47,2.51h0a1.82,1.82,0,0,1-1.5.79h0A1.76,1.76,0,0,1,.76,24.84Zm80.92-3.2A1.8,1.8,0,0,1,82,19.1h0a1.81,1.81,0,0,1,2.54.29h0a1.82,1.82,0,0,1-.29,2.55h0a1.82,1.82,0,0,1-1.12.39h0A1.83,1.83,0,0,1,81.68,21.64ZM4.75,19.39a1.82,1.82,0,0,1-.13-2.56h0a1.81,1.81,0,0,1,2.56-.12h0a1.8,1.8,0,0,1,.13,2.55h0a1.8,1.8,0,0,1-1.34.6H6A1.83,1.83,0,0,1,4.75,19.39Zm72.56-2.57a1.81,1.81,0,0,1,0-2.56h0a1.8,1.8,0,0,1,2.56,0h0a1.8,1.8,0,0,1,.05,2.56h0a1.79,1.79,0,0,1-1.31.55h0A1.79,1.79,0,0,1,77.31,16.82ZM9.43,14.52A1.81,1.81,0,0,1,9.64,12h0a1.8,1.8,0,0,1,2.55.21h0A1.8,1.8,0,0,1,12,14.73h0a1.76,1.76,0,0,1-1.17.43h0A1.82,1.82,0,0,1,9.43,14.52Zm62.9-1.89A1.81,1.81,0,0,1,72,10.1h0a1.8,1.8,0,0,1,2.53-.39h0a1.81,1.81,0,0,1,.38,2.53h0A1.81,1.81,0,0,1,73.4,13h0A1.87,1.87,0,0,1,72.33,12.63ZM14.71,10.31a1.81,1.81,0,0,1,.55-2.5h0a1.81,1.81,0,0,1,2.5.55h0a1.81,1.81,0,0,1-.54,2.5h0a1.86,1.86,0,0,1-1,.29h0A1.82,1.82,0,0,1,14.71,10.31ZM66.84,9.13a1.81,1.81,0,0,1-.72-2.46h0A1.81,1.81,0,0,1,68.58,6h0a1.81,1.81,0,0,1,.72,2.46h0a1.81,1.81,0,0,1-1.59.94h0A1.84,1.84,0,0,1,66.84,9.13ZM20.51,6.85a1.81,1.81,0,0,1,.87-2.41h0a1.82,1.82,0,0,1,2.41.88h0a1.81,1.81,0,0,1-.88,2.4h0a1.75,1.75,0,0,1-.76.17h0A1.79,1.79,0,0,1,20.51,6.85Zm40.43-.46h0a1.81,1.81,0,0,1-1-2.34h0a1.81,1.81,0,0,1,2.34-1h0a1.81,1.81,0,0,1,1,2.34h0a1.8,1.8,0,0,1-1.69,1.16h0A1.61,1.61,0,0,1,60.94,6.39ZM26.71,4.18A1.8,1.8,0,0,1,27.9,1.92h0a1.8,1.8,0,0,1,2.27,1.19h0A1.8,1.8,0,0,1,29,5.37h0a1.7,1.7,0,0,1-.54.09h0A1.81,1.81,0,0,1,26.71,4.18Zm28,.29A1.79,1.79,0,0,1,53.37,2.3h0A1.8,1.8,0,0,1,55.54,1h0a1.81,1.81,0,0,1,1.35,2.18h0a1.82,1.82,0,0,1-1.76,1.4h0A1.52,1.52,0,0,1,54.71,4.47ZM33.22,2.38A1.81,1.81,0,0,1,34.7.29h0a1.81,1.81,0,0,1,2.09,1.49h0a1.81,1.81,0,0,1-1.48,2.08h0a1.6,1.6,0,0,1-.3,0h0A1.82,1.82,0,0,1,33.22,2.38Zm15.07,1a1.82,1.82,0,0,1-1.63-2h0a1.83,1.83,0,0,1,2-1.63h0a1.81,1.81,0,0,1,1.63,2h0a1.81,1.81,0,0,1-1.8,1.64h-.18ZM39.91,1.46A1.81,1.81,0,0,1,41.66-.41h0a1.8,1.8,0,0,1,1.87,1.74h0a1.81,1.81,0,0,1-1.74,1.88h-.07A1.82,1.82,0,0,1,39.91,1.46Z"/><rect class="cls-4" x="31.8" y="76.08" width="65.18" height="35.04"/><polygon class="cls-4" points="97.01 76.08 72.98 76.08 83.41 59.42 107.44 59.42 97.01 76.08"/><rect class="cls-5" x="31.8" y="75.95" width="41.17" height="35.21"/><polygon class="cls-5" points="72.98 76.08 31.8 76.08 20.67 59.52 61.84 59.52 72.98 76.08"/><polygon class="cls-6" points="103.97 99.96 108.17 96.93 112.37 99.96 116.57 96.93 120.78 99.96 125.72 96.4 124.25 94.36 120.78 96.85 116.57 93.83 112.37 96.85 108.17 93.83 103.98 96.85 99.78 93.83 95.58 96.85 91.39 93.83 86.46 97.38 87.93 99.43 91.39 96.93 95.58 99.96 99.78 96.93 103.97 99.96"/><polygon class="cls-6" points="103.97 106.89 108.17 103.86 112.37 106.89 116.57 103.86 120.78 106.88 125.72 103.33 124.25 101.29 120.78 103.78 116.57 100.76 112.37 103.78 108.17 100.76 103.98 103.78 99.78 100.76 95.58 103.78 91.39 100.76 86.46 104.31 87.93 106.36 91.39 103.86 95.58 106.89 99.78 103.86 103.97 106.89"/><polygon class="cls-6" points="103.97 113.81 108.17 110.79 112.37 113.81 116.57 110.79 120.78 113.81 125.72 110.26 124.25 108.21 120.78 110.71 116.57 107.69 112.37 110.71 108.17 107.68 103.98 110.71 99.78 107.68 95.58 110.71 91.39 107.68 86.46 111.24 87.93 113.28 91.39 110.79 95.58 113.81 99.78 110.79 103.97 113.81"/><rect class="cls-7" x="13.1" y="27.82" width="42.05" height="25.63"/><rect class="cls-2" x="10.89" y="25.76" width="41.43" height="24.63"/><rect class="cls-8" x="17.24" y="30.63" width="18.3" height="2.89"/><rect class="cls-4" x="17.24" y="37.02" width="25.03" height="2.33"/><rect class="cls-4" x="17.24" y="41.54" width="18.04" height="2.33"/><circle class="cls-9" cx="66.79" cy="30.32" r="1.65"/><g class="cls-10"><path class="cls-9" d="M56.72,23.58V17.65l5.14-3,5.13,3v5.93l-5.13,3Zm8.11-4.68-3-1.72-3,1.72v3.43l3,1.72,3-1.72Z"/></g><path class="cls-2" d="M45.72,92.38A7.17,7.17,0,0,1,60,92.29h.18a5.38,5.38,0,0,1,0,10.75H46.66a5.37,5.37,0,0,1-.94-10.66Z"/></g></svg>