<svg id="Layer_1" data-name="Layer 1" xmlns="http://www.w3.org/2000/svg" viewBox="0 0 1693 1996.66"><defs><style>.cls-1{fill:#0f6fff}</style></defs><title>ContainerService_Logo_LightBackground</title><path d="M154 585.61c0 26.86 14.78 53.73 44.31 74.11l694.72 479.41c59.08 40.77 155.77 40.78 214.86 0l694.77-479.34c29.55-20.38 44.32-47.26 44.32-74.13v828.13c0 26.87-14.77 53.74-44.32 74.13l-694.77 479.34c-59.09 40.77-155.78 40.76-214.86 0l-694.72-479.42c-29.54-20.38-44.31-47.25-44.31-74.13z" transform="translate(-154 -1.17)"/><path class="cls-1" d="M154 585.61c0 26.86 14.78 53.73 44.31 74.11L691 999.68l202.1-139.43c59.09-40.77 155.78-40.76 214.86 0L1310 999.7l492.67-339.9c29.55-20.39 44.32-47.26 44.32-74.13v-.38c0-26.88-14.77-53.75-44.31-74.13L1108 31.75C1048.88-9 952.2-9 893.11 31.74L198.34 511.08C168.79 531.46 154 558.34 154 585.2v818.2z" transform="translate(-154 -1.17)"/><path class="cls-1" d="M0 1412.55z"/></svg>