<?xml version="1.0" encoding="UTF-8"?>
<svg width="16px" height="16px" viewBox="0 0 16 16" version="1.1" xmlns="http://www.w3.org/2000/svg" xmlns:xlink="http://www.w3.org/1999/xlink">
    <!-- Generator: Sketch 49.3 (51167) - http://www.bohemiancoding.com/sketch -->
    <title>copy-hover</title>
    <desc>Created with Sketch.</desc>
    <defs></defs>
    <g id="copy-hover" stroke="none" stroke-width="1" fill="none" fill-rule="evenodd">
        <g id="copy" fill="#7CC7FF" fill-rule="nonzero">
            <path d="M1.00000187,9.99999988 L0,10.0000001 L0,2.00842236 C-2.58518872e-07,0.904674734 0.894147747,0.00958482502 1.99789476,0.00842299807 L9.99956249,2.77002982e-07 L10.0006151,0.999999723 L1.99894738,1.00842244 C1.44707387,1.00900336 0.999999871,1.45654831 1,2.00842212 L1.00000187,9.99999988 Z" id="line"></path>
            <path d="M11.0000888,4.20710678 L11.0000888,8.00128586 L14.7942679,8.00128586 L11.0000888,4.20710678 Z M15.0000888,9.00128586 L11.0000888,9.00128586 C10.4478041,9.00128586 10.0000888,8.55357061 10.0000888,8.00128586 L10.0000888,4 L4.5000888,4 C4.22394643,4 4.0000888,4.22385763 4.0000888,4.5 L4.0000888,14.5 C4.0000888,14.7761424 4.22394643,15 4.5000888,15 L14.5000888,15 C14.7762312,15 15.0000888,14.7761424 15.0000888,14.5 L15.0000888,9.00128586 Z M11.0000888,3 C11.132697,3 11.259874,3.05267842 11.3536422,3.14644661 L15.8536422,7.64644661 C15.9474104,7.7402148 16.0000888,7.86739176 16.0000888,8 L16.0000888,14.5 C16.0000888,15.3284271 15.3285159,16 14.5000888,16 L4.5000888,16 C3.67166168,16 3.0000888,15.3284271 3.0000888,14.5 L3.0000888,4.5 C3.0000888,3.67157288 3.67166168,3 4.5000888,3 L11.0000888,3 Z" id="paper"></path>
        </g>
    </g>
</svg>