<?xml version="1.0" encoding="UTF-8"?>
<svg width="358px" height="217px" viewBox="0 0 358 217" version="1.1" xmlns="http://www.w3.org/2000/svg" xmlns:xlink="http://www.w3.org/1999/xlink">
    <!-- Generator: Sketch 51.3 (57544) - http://www.bohemiancoding.com/sketch -->
    <title>Disabled_Video_Light</title>
    <desc>Created with Sketch.</desc>
    <defs></defs>
    <g id="Disabled_Video_Light" stroke="none" stroke-width="1" fill="none" fill-rule="evenodd">
        <rect fill="#F4F7FB" x="0" y="0" width="358" height="217"></rect>
        <g id="play--solid" opacity="0.239453125" transform="translate(164.000000, 94.000000)" fill="#5A6872">
            <path d="M15,30 C6.71572875,30 1.01453063e-15,23.2842712 0,15 C-1.01453063e-15,6.71572875 6.71572875,1.52179594e-15 15,0 C23.2842712,5.07265313e-16 30,6.71572875 30,15 C30,23.2842712 23.2842712,30 15,30 Z M10.306875,8.955 L10.306875,21.06 C10.3064294,21.2284655 10.3964197,21.3842135 10.5425937,21.467963 C10.6887676,21.5517125 10.8686409,21.5505813 11.01375,21.465 L21.3225,15.405 C21.465704,15.3207873 21.5536367,15.1670675 21.5536367,15.0009375 C21.5536367,14.8348075 21.465704,14.6810877 21.3225,14.596875 L11.01375,8.55 C10.8689297,8.46458955 10.6894581,8.46328175 10.5434085,8.54657265 C10.3973588,8.62986355 10.3071031,8.78499464 10.306875,8.953125 L10.306875,8.955 Z" id="Shape"></path>
        </g>
    </g>
</svg>