<?xml version="1.0" encoding="UTF-8"?>
<svg width="32px" height="32px" viewBox="0 0 32 32" version="1.1" xmlns="http://www.w3.org/2000/svg" xmlns:xlink="http://www.w3.org/1999/xlink">
    <!-- Generator: Sketch 52.3 (67297) - http://www.bohemiancoding.com/sketch -->
    <title>enterprise-architect-32</title>
    <desc>Created with Sketch.</desc>
    <defs>
        <path d="M10,0 C6.13400675,-8.8817842e-16 3,3.13400675 3,7 C3,10.8659932 6.13400675,14 10,14 C13.8659932,14 17,10.8659932 17,7 C17,3.13400675 13.8659932,3.10862447e-15 10,0 Z M10,2 C12.7614237,2 15,4.23857625 15,7 C15,9.76142375 12.7614237,12 10,12 C7.23857625,12 5,9.76142375 5,7 C5.00314117,4.23987841 7.23987841,2.00314117 10,2 Z M20,28 L18,28 L18,23 C17.9967489,20.239924 15.760076,18.0032511 13,18 L7,18 C4.23992404,18.0032511 2.00325114,20.239924 2,23 L2,28 L0,28 L0,23 C0.00451860542,19.13588 3.13587997,16.0045186 7,16 L13,16 C16.86412,16.0045186 19.9954814,19.13588 20,23 L20,28 Z" id="path-1"></path>
    </defs>
    <g id="enterprise-architect-32" stroke="none" stroke-width="1" fill="none" fill-rule="evenodd">
        <g id="Group-2" transform="translate(1.000000, 2.000000)">
            <g id="🎨Color">
                <mask id="mask-2" fill="white">
                    <use xlink:href="#path-1"></use>
                </mask>
                <use id="Mask" fill="#000000" fill-rule="nonzero" xlink:href="#path-1"></use>
                <g mask="url(#mask-2)" fill="#3D70B2" id="Fill-4">
                    <g transform="translate(-47.000000, -48.000000)">
                        <polygon points="0 124 124 124 124 1.42108547e-14 0 1.42108547e-14"></polygon>
                    </g>
                </g>
            </g>
            <path d="M27,20 L28,20 C29.1045695,20 30,20.8954305 30,22 L30,26 C30,27.1045695 29.1045695,28 28,28 L24,28 C22.8954305,28 22,27.1045695 22,26 L22,22 C22,20.8954305 22.8954305,20 24,20 L25,20 L25,18 L24,18 C22.8954305,18 22,17.1045695 22,16 L22,12 C22,10.8954305 22.8954305,10 24,10 L25,10 L25,8 L24,8 C22.8954305,8 22,7.1045695 22,6 L22,2 C22,0.8954305 22.8954305,2.02906125e-16 24,0 L28,0 C29.1045695,-2.02906125e-16 30,0.8954305 30,2 L30,6 C30,7.1045695 29.1045695,8 28,8 L27,8 L27,10 L28,10 C29.1045695,10 30,10.8954305 30,12 L30,16 C30,17.1045695 29.1045695,18 28,18 L27,18 L27,20 Z M24,2 L24,6 L28,6 L28,2 L24,2 Z M24,12 L24,16 L28,16 L28,12 L24,12 Z M24,22 L24,26 L28,26 L28,22 L24,22 Z" id="Combined-Shape" fill="#3D70B2" fill-rule="nonzero"></path>
        </g>
    </g>
</svg>