<svg xmlns="http://www.w3.org/2000/svg" viewBox="0 0 118.97 122.71"><defs><style>.cls-1{fill:#e7e9f7;}.cls-2{fill:#ed8280;}.cls-3,.cls-9{fill:#3c6df0;}.cls-4{fill:#5392ff;}.cls-5{fill:#fff;}.cls-6{fill:#252e6a;}.cls-7{fill:#001c59;}.cls-8{fill:#89a2f6;}.cls-9{opacity:0.47;}</style></defs><title>Docs Icon 2 copy</title><g id="Docs_Icon_7" data-name="Docs Icon 7"><g id="Docs_Icon_8" data-name="Docs Icon 8"><rect class="cls-1" x="-20.52" y="-18.65" width="160" height="160"/><path class="cls-2" d="M35.84,76.41,11.11,62.13V33.58L35.84,19.3,60.57,33.58V62.13Z"/><path class="cls-3" d="M35.89,90.5A1.48,1.48,0,0,1,34.46,89h0A1.46,1.46,0,0,1,36,87.55h0a1.49,1.49,0,0,1,1.43,1.52h0a1.49,1.49,0,0,1-1.48,1.43h0ZM40,89a1.48,1.48,0,0,1,1.32-1.61h0a1.47,1.47,0,0,1,1.61,1.32h0a1.47,1.47,0,0,1-1.32,1.61h-.15A1.46,1.46,0,0,1,40,89Zm-9.74,1h0A1.49,1.49,0,0,1,29,88.24h0A1.47,1.47,0,0,1,30.71,87h0a1.47,1.47,0,0,1,1.21,1.69h0A1.46,1.46,0,0,1,30.47,90h-.25Zm15.19-1.67a1.47,1.47,0,0,1,1.09-1.78h0a1.48,1.48,0,0,1,1.78,1.1h0a1.48,1.48,0,0,1-1.1,1.77h0a1.27,1.27,0,0,1-.34,0h0A1.46,1.46,0,0,1,45.41,88.27Zm-20.73.36h0a1.48,1.48,0,0,1-1-1.85h0a1.47,1.47,0,0,1,1.84-1h0a1.47,1.47,0,0,1,1,1.84h0a1.49,1.49,0,0,1-1.41,1h0A1.67,1.67,0,0,1,24.68,88.63Zm26-1.8a1.47,1.47,0,0,1,.84-1.91h0a1.49,1.49,0,0,1,1.91.85h0a1.47,1.47,0,0,1-.85,1.9h0a1.39,1.39,0,0,1-.53.1h0A1.45,1.45,0,0,1,50.72,86.83Zm-31.35-.25a1.48,1.48,0,0,1-.72-2h0a1.48,1.48,0,0,1,2-.72h0a1.47,1.47,0,0,1,.71,2h0a1.47,1.47,0,0,1-1.33.86h0A1.51,1.51,0,0,1,19.37,86.58Zm36.41-1.89a1.47,1.47,0,0,1,.58-2h0a1.48,1.48,0,0,1,2,.58h0a1.47,1.47,0,0,1-.58,2h0a1.43,1.43,0,0,1-.71.19h0A1.46,1.46,0,0,1,55.78,84.69Zm-41.41-.85h0a1.47,1.47,0,0,1-.45-2h0a1.47,1.47,0,0,1,2-.45h0a1.46,1.46,0,0,1,.45,2h0a1.48,1.48,0,0,1-1.25.68h0A1.45,1.45,0,0,1,14.37,83.84ZM60.51,81.9a1.46,1.46,0,0,1,.31-2.06h0a1.46,1.46,0,0,1,2.06.31h0a1.46,1.46,0,0,1-.31,2.06h0a1.42,1.42,0,0,1-.88.28h0A1.46,1.46,0,0,1,60.51,81.9ZM9.79,80.46a1.47,1.47,0,0,1-.18-2.07h0a1.48,1.48,0,0,1,2.08-.18h0a1.47,1.47,0,0,1,.18,2.07h0a1.47,1.47,0,0,1-1.13.52h0A1.42,1.42,0,0,1,9.79,80.46Zm55-2a1.48,1.48,0,0,1,0-2.09h0a1.48,1.48,0,0,1,2.09,0h0a1.46,1.46,0,0,1,0,2.08h0a1.44,1.44,0,0,1-1,.42h0A1.46,1.46,0,0,1,64.83,78.5Zm-59.14-2a1.48,1.48,0,0,1,.11-2.08h0a1.47,1.47,0,0,1,2.08.1h0a1.47,1.47,0,0,1-.1,2.08h0a1.45,1.45,0,0,1-1,.38h0A1.5,1.5,0,0,1,5.69,76.51Zm63-2a1.47,1.47,0,0,1-.24-2.07h0a1.48,1.48,0,0,1,2.07-.24h0a1.47,1.47,0,0,1,.24,2.07h0a1.46,1.46,0,0,1-1.16.56h0A1.45,1.45,0,0,1,68.66,74.55Zm-66.5-2.5a1.48,1.48,0,0,1,.38-2h0a1.48,1.48,0,0,1,2.05.38h0a1.48,1.48,0,0,1-.37,2.05h0a1.54,1.54,0,0,1-.84.26h0A1.47,1.47,0,0,1,2.16,72.05Zm69.78-1.91a1.48,1.48,0,0,1-.52-2h0a1.46,1.46,0,0,1,2-.52h0a1.48,1.48,0,0,1,.52,2h0a1.47,1.47,0,0,1-1.27.72h0A1.43,1.43,0,0,1,71.94,70.14Zm-72.68-3a1.47,1.47,0,0,1,.64-2h0a1.48,1.48,0,0,1,2,.65h0a1.49,1.49,0,0,1-.65,2h0A1.5,1.5,0,0,1,.57,68h0A1.44,1.44,0,0,1-.74,67.16ZM74.6,65.32a1.48,1.48,0,0,1-.79-1.93h0a1.49,1.49,0,0,1,1.94-.79h0a1.48,1.48,0,0,1,.78,1.94h0a1.48,1.48,0,0,1-1.36.9h0A1.42,1.42,0,0,1,74.6,65.32ZM-3,61.92A1.48,1.48,0,0,1-2.07,60h0A1.48,1.48,0,0,1-.19,61h0a1.48,1.48,0,0,1-.91,1.88h0a1.34,1.34,0,0,1-.48.08h0A1.49,1.49,0,0,1-3,61.92Zm79.57-1.73a1.47,1.47,0,0,1-1-1.81h0a1.48,1.48,0,0,1,1.81-1h0a1.47,1.47,0,0,1,1,1.81h0A1.49,1.49,0,0,1,77,60.24h0A1.28,1.28,0,0,1,76.59,60.19ZM-4.48,56.43h0a1.48,1.48,0,0,1,1.15-1.74h0a1.48,1.48,0,0,1,1.74,1.16h0a1.48,1.48,0,0,1-1.15,1.74h0l-.3,0h0A1.46,1.46,0,0,1-4.48,56.43Zm82.35-1.59a1.47,1.47,0,0,1-1.27-1.65h0a1.48,1.48,0,0,1,1.66-1.27h0a1.48,1.48,0,0,1,1.27,1.66h0a1.48,1.48,0,0,1-1.46,1.28h0ZM-5.24,50.79a1.48,1.48,0,0,1,1.37-1.57h0A1.48,1.48,0,0,1-2.3,50.6h0a1.48,1.48,0,0,1-1.37,1.57h-.1A1.48,1.48,0,0,1-5.24,50.79ZM77,47.9v0h0v0h0a1.47,1.47,0,0,1,1.47-1.48h0a1.46,1.46,0,0,1,1.48,1.47h0v0h0v0h0a1.47,1.47,0,0,1-1.48,1.47h0A1.47,1.47,0,0,1,77,47.9ZM-3.87,46.67A1.48,1.48,0,0,1-5.25,45.1h0a1.48,1.48,0,0,1,1.57-1.37h0A1.48,1.48,0,0,1-2.3,45.3h0a1.48,1.48,0,0,1-1.47,1.37h-.1Zm80.46-4.14a1.48,1.48,0,0,1,1.26-1.66h0a1.48,1.48,0,0,1,1.66,1.26h0a1.47,1.47,0,0,1-1.26,1.66h0l-.2,0h0A1.48,1.48,0,0,1,76.59,42.53ZM-3.35,41.2A1.48,1.48,0,0,1-4.5,39.46h0a1.47,1.47,0,0,1,1.74-1.15h0A1.46,1.46,0,0,1-1.61,40h0A1.48,1.48,0,0,1-3,41.23h0Zm78.88-3.86a1.46,1.46,0,0,1,1-1.81h0a1.46,1.46,0,0,1,1.81,1h0a1.47,1.47,0,0,1-1,1.81h0a1.31,1.31,0,0,1-.39.05h0A1.47,1.47,0,0,1,75.53,37.34Zm-77.62-1.5A1.47,1.47,0,0,1-3,34h0a1.47,1.47,0,0,1,1.87-.91h0a1.48,1.48,0,0,1,.91,1.88h0a1.47,1.47,0,0,1-1.39,1h0A1.61,1.61,0,0,1-2.09,35.84Zm75.87-3.5a1.48,1.48,0,0,1,.78-1.94h0a1.49,1.49,0,0,1,1.94.78h0a1.49,1.49,0,0,1-.78,1.94h0a1.51,1.51,0,0,1-.58.12h0A1.49,1.49,0,0,1,73.78,32.34ZM-.13,30.7a1.48,1.48,0,0,1-.66-2h0a1.47,1.47,0,0,1,2-.65h0a1.48,1.48,0,0,1,.66,2h0a1.48,1.48,0,0,1-1.32.81h0A1.56,1.56,0,0,1-.13,30.7Zm71.51-3.08h0a1.46,1.46,0,0,1,.52-2h0a1.47,1.47,0,0,1,2,.51h0a1.49,1.49,0,0,1-.51,2h0a1.5,1.5,0,0,1-.76.21h0A1.49,1.49,0,0,1,71.38,27.62ZM2.5,25.87a1.48,1.48,0,0,1-.38-2.05h0a1.47,1.47,0,0,1,2.05-.38h0a1.47,1.47,0,0,1,.38,2h0a1.5,1.5,0,0,1-1.22.64h0A1.48,1.48,0,0,1,2.5,25.87Zm65.87-2.61a1.49,1.49,0,0,1,.24-2.07h0a1.48,1.48,0,0,1,2.08.24h0a1.49,1.49,0,0,1-.24,2.07h0a1.51,1.51,0,0,1-.92.32h0A1.49,1.49,0,0,1,68.37,23.26ZM5.75,21.43a1.46,1.46,0,0,1-.11-2.08h0a1.47,1.47,0,0,1,2.08-.11h0a1.47,1.47,0,0,1,.11,2.09h0a1.47,1.47,0,0,1-1.09.48h0A1.48,1.48,0,0,1,5.75,21.43Zm59.06-2.09a1.48,1.48,0,0,1,0-2.08h0a1.47,1.47,0,0,1,2.09,0h0a1.47,1.47,0,0,1,0,2.08h0a1.48,1.48,0,0,1-1.07.45h0A1.51,1.51,0,0,1,64.81,19.34ZM9.55,17.46a1.46,1.46,0,0,1,.18-2.07h0a1.46,1.46,0,0,1,2.07.17h0a1.47,1.47,0,0,1-.17,2.08h0a1.47,1.47,0,0,1-1,.35h0A1.48,1.48,0,0,1,9.55,17.46Zm51.21-1.54a1.46,1.46,0,0,1-.31-2.06h0a1.46,1.46,0,0,1,2.06-.31h0a1.47,1.47,0,0,1,.31,2.06h0a1.47,1.47,0,0,1-1.19.6h0A1.51,1.51,0,0,1,60.76,15.92ZM13.86,14a1.47,1.47,0,0,1,.44-2h0a1.48,1.48,0,0,1,2,.45h0a1.48,1.48,0,0,1-.45,2h0a1.51,1.51,0,0,1-.79.23h0A1.46,1.46,0,0,1,13.86,14Zm42.43-1a1.47,1.47,0,0,1-.58-2h0a1.46,1.46,0,0,1,2-.58h0a1.47,1.47,0,0,1,.58,2h0a1.45,1.45,0,0,1-1.29.76h0A1.42,1.42,0,0,1,56.29,13.07ZM18.57,11.22a1.47,1.47,0,0,1,.71-2h0a1.47,1.47,0,0,1,2,.71h0a1.47,1.47,0,0,1-.71,2h0a1.51,1.51,0,0,1-.62.14h0A1.47,1.47,0,0,1,18.57,11.22Zm32.91-.37h0a1.48,1.48,0,0,1-.85-1.91h0a1.48,1.48,0,0,1,1.91-.85h0A1.49,1.49,0,0,1,53.39,10h0A1.48,1.48,0,0,1,52,11h0A1.71,1.71,0,0,1,51.48,10.85ZM23.62,9.05a1.48,1.48,0,0,1,1-1.85h0a1.48,1.48,0,0,1,1.85,1h0a1.48,1.48,0,0,1-1,1.85h0a1.68,1.68,0,0,1-.44.07h0A1.49,1.49,0,0,1,23.62,9.05Zm22.8.24a1.47,1.47,0,0,1-1.1-1.78h0a1.47,1.47,0,0,1,1.77-1.09h0a1.46,1.46,0,0,1,1.1,1.77h0a1.48,1.48,0,0,1-1.43,1.14h0A2,2,0,0,1,46.42,9.29ZM28.92,7.58a1.48,1.48,0,0,1,1.21-1.7h0a1.47,1.47,0,0,1,1.7,1.21h0a1.48,1.48,0,0,1-1.21,1.7h0l-.24,0h0A1.48,1.48,0,0,1,28.92,7.58Zm12.27.84a1.47,1.47,0,0,1-1.32-1.61h0a1.49,1.49,0,0,1,1.61-1.33h0A1.48,1.48,0,0,1,42.8,7.1h0a1.48,1.48,0,0,1-1.47,1.33h-.14ZM34.37,6.83a1.47,1.47,0,0,1,1.42-1.52h0a1.48,1.48,0,0,1,1.53,1.42h0a1.48,1.48,0,0,1-1.43,1.53h0A1.48,1.48,0,0,1,34.37,6.83Z"/><polygon class="cls-4" points="69.96 97.56 65.48 94.33 61 97.56 56.51 94.33 52.02 97.56 46.74 93.77 48.31 91.58 52.02 94.25 56.51 91.02 61 94.24 65.48 91.02 69.96 94.24 74.44 91.01 78.92 94.24 83.4 91.02 88.67 94.81 87.1 96.99 83.4 94.33 78.92 97.56 74.44 94.33 69.96 97.56"/><polygon class="cls-4" points="69.96 104.96 65.48 101.73 61 104.96 56.51 101.73 52.02 104.96 46.74 101.16 48.31 98.98 52.02 101.64 56.51 98.42 61 101.64 65.48 98.41 69.96 101.64 74.44 98.41 78.92 101.64 83.4 98.41 88.67 102.21 87.1 104.39 83.4 101.73 78.92 104.96 74.44 101.73 69.96 104.96"/><polygon class="cls-4" points="69.96 112.36 65.48 109.13 61 112.36 56.51 109.13 52.02 112.36 46.74 108.56 48.31 106.38 52.02 109.04 56.51 105.81 61 109.04 65.48 105.81 69.96 109.04 74.44 105.81 78.92 109.04 83.4 105.81 88.67 109.61 87.1 111.79 83.4 109.13 78.92 112.36 74.44 109.13 69.96 112.36"/><polygon class="cls-5" points="112.02 41.59 116.31 40.27 112.02 38.95 110.7 34.66 109.39 38.95 105.09 40.27 109.39 41.59 110.7 45.88 112.02 41.59"/><polygon class="cls-6" points="105.94 50.76 109.3 49.73 105.94 48.7 104.92 45.34 103.89 48.7 100.53 49.73 103.89 50.76 104.92 54.11 105.94 50.76"/><rect class="cls-7" x="70.29" y="72.74" width="47.01" height="25.27"/><polygon class="cls-7" points="117.32 72.74 99.99 72.74 107.52 60.73 124.84 60.73 117.32 72.74"/><rect class="cls-8" x="70.29" y="72.74" width="29.7" height="25.27"/><polygon class="cls-8" points="99.99 72.75 70.29 72.75 62.26 60.8 91.96 60.8 99.99 72.75"/><path class="cls-8" d="M117,104.18l-6.46-3.73V93L117,89.26,123.48,93v7.46Zm-3.74-5.3L117,101l3.74-2.16V94.56L117,92.4l-3.74,2.16Z"/></g></g><g id="Docs_Icon_9" data-name="Docs Icon 9"><g id="Courses-and-Badges"><g id="Badges---acclaim"><g id="explorer-mini"><g id="badge-explore"><circle id="Oval-5" class="cls-5" cx="35.84" cy="47.86" r="17.6"/></g></g></g></g><g id="Courses-and-Badges-2" data-name="Courses-and-Badges"><g id="Badges---acclaim-2" data-name="Badges---acclaim"><g id="explorer-mini-2" data-name="explorer-mini"><g id="Hex"><g id="Group-102"><polygon id="Fill-28" class="cls-9" points="38.4 43.15 33.29 43.15 30.73 47.63 33.29 52.12 38.4 52.12 40.95 47.63 38.4 43.15"/><polygon id="Fill-30" class="cls-9" points="38.4 52.77 33.29 52.77 30.73 57.25 33.29 61.73 38.4 61.73 40.95 57.25 38.4 52.77"/><polygon id="Fill-32" class="cls-3" points="46.81 38.34 41.71 38.34 39.15 42.82 41.71 47.31 46.81 47.31 49.37 42.82 46.81 38.34"/><polygon id="Fill-34" class="cls-9" points="46.81 47.96 41.71 47.96 39.15 52.44 41.71 56.92 46.81 56.92 49.37 52.44 46.81 47.96"/><polygon id="Fill-36" class="cls-9" points="29.98 38.34 24.87 38.34 22.32 42.82 24.87 47.31 29.98 47.31 32.53 42.82 29.98 38.34"/><polygon id="Fill-38" class="cls-3" points="29.98 47.96 24.87 47.96 22.32 52.44 24.87 56.92 29.98 56.92 32.53 52.44 29.98 47.96"/></g><g id="Group-26"><polygon id="Fill-26" class="cls-8" points="38.3 33.98 33.27 33.98 30.76 38.34 33.27 42.7 38.3 42.7 40.81 38.34 38.3 33.98"/></g></g></g></g></g></g></svg>