<svg xmlns="http://www.w3.org/2000/svg" xmlns:xlink="http://www.w3.org/1999/xlink" viewBox="0 0 118.97 122.71"><defs><style>.cls-1,.cls-11,.cls-2{fill:#d1d7f4;}.cls-1{clip-rule:evenodd;}.cls-3{fill:#3151b7;}.cls-4{fill:#ed8280;}.cls-5{fill:#3c6df0;}.cls-6{fill:#e7e9f7;}.cls-7{fill:#001c59;}.cls-8{fill:#fff;}.cls-9{fill:#252e6a;}.cls-10{fill:#5392ff;}.cls-11{fill-rule:evenodd;}.cls-12{clip-path:url(#clip-path);}.cls-13{clip-path:url(#clip-path-2);}</style><clipPath id="clip-path"><path class="cls-1" d="M89.71,33.08v6a.23.23,0,0,0,.23.23.2.2,0,0,0,.11,0l5.09-3a.23.23,0,0,0,.08-.31.2.2,0,0,0-.08-.08l-5.09-3a.22.22,0,0,0-.31.08A.21.21,0,0,0,89.71,33.08ZM92,43.45a7.4,7.4,0,1,1,7.39-7.39A7.39,7.39,0,0,1,92,43.45Z"/></clipPath><clipPath id="clip-path-2"><rect class="cls-2" x="84.62" y="28.66" width="14.79" height="14.79"/></clipPath></defs><title>Docs Icon 5</title><g id="ibm-developer"><rect class="cls-3" x="-20.44" y="-18.33" width="160" height="160"/><path class="cls-4" d="M48.93,58.54,25.77,45.17V18.43L48.93,5.06,72.08,18.43V45.17Z"/><path class="cls-5" d="M47.29,77a1.58,1.58,0,0,1-1.53-1.62h0a1.58,1.58,0,0,1,1.63-1.52h0a1.58,1.58,0,0,1,1.52,1.62h0A1.58,1.58,0,0,1,47.33,77h0Zm4.33-1.61A1.57,1.57,0,0,1,53,73.68h0a1.56,1.56,0,0,1,1.71,1.41h0a1.55,1.55,0,0,1-1.4,1.71h0l-.16,0h0A1.58,1.58,0,0,1,51.62,75.4Zm-10.37,1h0A1.57,1.57,0,0,1,40,74.61h0a1.57,1.57,0,0,1,1.81-1.29h0a1.57,1.57,0,0,1,1.29,1.8h0a1.56,1.56,0,0,1-1.55,1.31h0A1.18,1.18,0,0,1,41.25,76.41Zm16.18-1.77a1.57,1.57,0,0,1,1.16-1.89h0a1.56,1.56,0,0,1,1.89,1.16h0a1.57,1.57,0,0,1-1.16,1.89h0a1.57,1.57,0,0,1-.37,0h0A1.57,1.57,0,0,1,57.43,74.64ZM35.35,75h0a1.58,1.58,0,0,1-1-2h0a1.57,1.57,0,0,1,2-1h0a1.57,1.57,0,0,1,1,2h0a1.58,1.58,0,0,1-1.5,1.11h0A1.91,1.91,0,0,1,35.35,75Zm27.73-1.91a1.58,1.58,0,0,1,.9-2h0A1.58,1.58,0,0,1,66,72h0a1.56,1.56,0,0,1-.9,2h0a1.65,1.65,0,0,1-.57.11h0A1.56,1.56,0,0,1,63.08,73.11Zm-33.39-.27a1.57,1.57,0,0,1-.76-2.09h0A1.56,1.56,0,0,1,31,70h0a1.57,1.57,0,0,1,.76,2.09h0a1.56,1.56,0,0,1-1.42.91h0A1.58,1.58,0,0,1,29.69,72.84Zm38.78-2a1.57,1.57,0,0,1,.62-2.13h0a1.57,1.57,0,0,1,2.13.62h0a1.57,1.57,0,0,1-.62,2.13h0a1.59,1.59,0,0,1-.75.2h0A1.57,1.57,0,0,1,68.47,70.83Zm-44.1-.91h0a1.58,1.58,0,0,1-.48-2.17h0a1.56,1.56,0,0,1,2.17-.48h0a1.57,1.57,0,0,1,.48,2.17h0a1.59,1.59,0,0,1-1.33.72h0A1.55,1.55,0,0,1,24.37,69.92Zm49.14-2.07a1.56,1.56,0,0,1,.33-2.19h0A1.57,1.57,0,0,1,76,66h0a1.57,1.57,0,0,1-.34,2.19h0a1.51,1.51,0,0,1-.93.31h0A1.56,1.56,0,0,1,73.51,67.85Zm-54-1.52a1.56,1.56,0,0,1-.18-2.21h0a1.56,1.56,0,0,1,2.21-.19h0a1.56,1.56,0,0,1,.18,2.21h0a1.56,1.56,0,0,1-1.2.56h0A1.54,1.54,0,0,1,19.49,66.33Zm58.62-2.1a1.58,1.58,0,0,1,0-2.22h0a1.58,1.58,0,0,1,2.23,0h0a1.58,1.58,0,0,1,0,2.22h0a1.6,1.6,0,0,1-1.09.44h0A1.57,1.57,0,0,1,78.11,64.23Zm-63-2.11a1.58,1.58,0,0,1,.11-2.22h0a1.58,1.58,0,0,1,2.22.11h0a1.58,1.58,0,0,1-.11,2.22h0a1.57,1.57,0,0,1-1.05.4h0A1.58,1.58,0,0,1,15.13,62.12ZM82.19,60a1.57,1.57,0,0,1-.26-2.21h0a1.57,1.57,0,0,1,2.21-.25h0a1.57,1.57,0,0,1,.26,2.2h0a1.58,1.58,0,0,1-1.24.6h0A1.55,1.55,0,0,1,82.19,60ZM11.37,57.37a1.58,1.58,0,0,1,.4-2.19h0a1.58,1.58,0,0,1,2.19.4h0a1.58,1.58,0,0,1-.4,2.19h0a1.67,1.67,0,0,1-.9.28h0A1.59,1.59,0,0,1,11.37,57.37Zm74.31-2a1.58,1.58,0,0,1-.55-2.16h0a1.58,1.58,0,0,1,2.15-.55h0a1.58,1.58,0,0,1,.55,2.16h0a1.58,1.58,0,0,1-1.35.77h0A1.56,1.56,0,0,1,85.68,55.33ZM8.27,52.16A1.57,1.57,0,0,1,9,50.05H9a1.56,1.56,0,0,1,2.11.69h0a1.57,1.57,0,0,1-.69,2.11h0a1.61,1.61,0,0,1-.71.17h0A1.57,1.57,0,0,1,8.27,52.16Zm80.24-2a1.57,1.57,0,0,1-.83-2.06h0a1.58,1.58,0,0,1,2.06-.84h0a1.58,1.58,0,0,1,.83,2.07h0a1.57,1.57,0,0,1-1.45,1h0A1.66,1.66,0,0,1,88.51,50.2ZM5.9,46.58a1.56,1.56,0,0,1,1-2h0a1.57,1.57,0,0,1,2,1h0a1.57,1.57,0,0,1-1,2h0a1.58,1.58,0,0,1-.52.09h0A1.56,1.56,0,0,1,5.9,46.58Zm84.73-1.85a1.57,1.57,0,0,1-1.1-1.92h0a1.58,1.58,0,0,1,1.93-1.11h0a1.58,1.58,0,0,1,1.1,1.94h0A1.57,1.57,0,0,1,91,44.79h0A1.51,1.51,0,0,1,90.63,44.73Zm-86.34-4h0a1.57,1.57,0,0,1,1.23-1.85h0a1.57,1.57,0,0,1,1.85,1.23h0A1.56,1.56,0,0,1,6.14,42h0a1.63,1.63,0,0,1-.31,0h0A1.57,1.57,0,0,1,4.29,40.73ZM92,39a1.57,1.57,0,0,1-1.35-1.76h0a1.56,1.56,0,0,1,1.76-1.35h0a1.56,1.56,0,0,1,1.35,1.76h0a1.57,1.57,0,0,1-1.55,1.37h0ZM3.49,34.72A1.57,1.57,0,0,1,5,33.05H5a1.58,1.58,0,0,1,1.67,1.47h0a1.57,1.57,0,0,1-1.46,1.67H5.05A1.57,1.57,0,0,1,3.49,34.72ZM91,31.64v0h0v0h0A1.57,1.57,0,0,1,92.59,30h0a1.57,1.57,0,0,1,1.57,1.57h0v.05h0v0h0a1.57,1.57,0,0,1-1.57,1.57h0A1.57,1.57,0,0,1,91,31.64ZM5,30.33a1.56,1.56,0,0,1-1.47-1.66h0A1.56,1.56,0,0,1,5.15,27.2h0a1.57,1.57,0,0,1,1.46,1.67h0a1.57,1.57,0,0,1-1.56,1.47H5Zm85.69-4.41A1.55,1.55,0,0,1,92,24.16h0a1.57,1.57,0,0,1,1.77,1.34h0a1.58,1.58,0,0,1-1.35,1.77h-.21A1.56,1.56,0,0,1,90.64,25.92ZM5.5,24.51a1.57,1.57,0,0,1-1.23-1.85h0a1.57,1.57,0,0,1,1.85-1.23h0a1.57,1.57,0,0,1,1.23,1.85h0a1.57,1.57,0,0,1-1.54,1.26h0Zm84-4.11a1.57,1.57,0,0,1,1.09-1.93h0a1.57,1.57,0,0,1,1.93,1.09h0a1.57,1.57,0,0,1-1.09,1.93h0a1.52,1.52,0,0,1-.42.06h0A1.57,1.57,0,0,1,89.51,20.4ZM6.84,18.8a1.56,1.56,0,0,1-1-2h0a1.56,1.56,0,0,1,2-1h0a1.57,1.57,0,0,1,1,2h0a1.56,1.56,0,0,1-1.48,1.06h0A1.52,1.52,0,0,1,6.84,18.8Zm80.81-3.73A1.56,1.56,0,0,1,88.47,13h0a1.58,1.58,0,0,1,2.07.83h0a1.58,1.58,0,0,1-.83,2.06h0a1.68,1.68,0,0,1-.62.13h0A1.56,1.56,0,0,1,87.65,15.07ZM8.92,13.33a1.58,1.58,0,0,1-.69-2.11h0a1.57,1.57,0,0,1,2.11-.7h0A1.57,1.57,0,0,1,11,12.63h0a1.56,1.56,0,0,1-1.4.86h0A1.63,1.63,0,0,1,8.92,13.33Zm76.17-3.28h0a1.58,1.58,0,0,1,.55-2.16h0a1.57,1.57,0,0,1,2.15.55h0a1.57,1.57,0,0,1-.54,2.15h0a1.62,1.62,0,0,1-.81.22h0A1.57,1.57,0,0,1,85.09,10.05ZM11.72,8.18A1.57,1.57,0,0,1,11.32,6h0a1.56,1.56,0,0,1,2.18-.41h0a1.56,1.56,0,0,1,.41,2.18h0a1.6,1.6,0,0,1-1.3.69h0A1.58,1.58,0,0,1,11.72,8.18ZM81.89,5.4a1.56,1.56,0,0,1,.25-2.2h0a1.57,1.57,0,0,1,2.21.25h0a1.57,1.57,0,0,1-.26,2.21h0a1.53,1.53,0,0,1-1,.34h0A1.56,1.56,0,0,1,81.89,5.4ZM15.19,3.45a1.56,1.56,0,0,1-.12-2.21h0a1.57,1.57,0,0,1,2.22-.12h0a1.57,1.57,0,0,1,.11,2.22h0a1.57,1.57,0,0,1-1.16.52h0A1.56,1.56,0,0,1,15.19,3.45Zm62.9-2.23a1.56,1.56,0,0,1,0-2.21h0a1.56,1.56,0,0,1,2.22,0h0a1.56,1.56,0,0,1,0,2.22h0a1.55,1.55,0,0,1-1.13.48h0A1.56,1.56,0,0,1,78.09,1.22Zm-58.85-2A1.57,1.57,0,0,1,19.42-3h0a1.57,1.57,0,0,1,2.22.18h0a1.57,1.57,0,0,1-.18,2.21h0a1.59,1.59,0,0,1-1,.38h0A1.57,1.57,0,0,1,19.24-.77ZM73.78-2.41a1.58,1.58,0,0,1-.34-2.2h0a1.57,1.57,0,0,1,2.2-.33h0A1.56,1.56,0,0,1,76-2.75h0a1.56,1.56,0,0,1-1.26.64h0A1.59,1.59,0,0,1,73.78-2.41Zm-50-2a1.57,1.57,0,0,1,.48-2.17h0a1.57,1.57,0,0,1,2.17.48h0A1.58,1.58,0,0,1,26-3.94h0a1.65,1.65,0,0,1-.85.25h0A1.57,1.57,0,0,1,23.82-4.42Zm45.2-1a1.58,1.58,0,0,1-.63-2.13h0a1.57,1.57,0,0,1,2.13-.62h0a1.57,1.57,0,0,1,.62,2.13h0a1.58,1.58,0,0,1-1.38.82h0A1.59,1.59,0,0,1,69-5.45Zm-40.18-2a1.58,1.58,0,0,1,.76-2.09h0a1.57,1.57,0,0,1,2.09.76h0a1.56,1.56,0,0,1-.76,2.08h0a1.55,1.55,0,0,1-.66.15h0A1.58,1.58,0,0,1,28.84-7.42Zm35.06-.4h0a1.57,1.57,0,0,1-.91-2h0a1.58,1.58,0,0,1,2-.9h0a1.57,1.57,0,0,1,.9,2h0a1.57,1.57,0,0,1-1.46,1h0A1.55,1.55,0,0,1,63.9-7.82ZM34.23-9.73a1.57,1.57,0,0,1,1-2h0a1.56,1.56,0,0,1,2,1h0a1.57,1.57,0,0,1-1,2h0a1.53,1.53,0,0,1-.47.07h0A1.55,1.55,0,0,1,34.23-9.73Zm24.27.25a1.57,1.57,0,0,1-1.17-1.89h0a1.59,1.59,0,0,1,1.89-1.17h0a1.57,1.57,0,0,1,1.17,1.89h0a1.57,1.57,0,0,1-1.53,1.21h0A1.47,1.47,0,0,1,58.5-9.48ZM39.87-11.3a1.57,1.57,0,0,1,1.28-1.81h0A1.58,1.58,0,0,1,43-11.82h0A1.59,1.59,0,0,1,41.68-10h0l-.26,0h0A1.57,1.57,0,0,1,39.87-11.3Zm13.07.9a1.58,1.58,0,0,1-1.42-1.72h0a1.58,1.58,0,0,1,1.72-1.41h0a1.57,1.57,0,0,1,1.41,1.72h0a1.57,1.57,0,0,1-1.56,1.42h-.15Zm-7.27-1.7a1.57,1.57,0,0,1,1.52-1.62h0a1.57,1.57,0,0,1,1.62,1.52h0a1.57,1.57,0,0,1-1.52,1.62h0A1.57,1.57,0,0,1,45.67-12.1Z"/><path class="cls-6" d="M118.54,107.91l-6.37-20.68H78.53l6.65,20.5Z"/><polygon class="cls-7" points="120.82 108.55 83.56 108.55 83.56 106.45 120.16 106.45 120.82 108.55"/><polygon class="cls-8" points="87.48 109.26 50.23 109.26 50.23 106.45 87.47 106.45 87.48 109.26"/><path class="cls-7" d="M120.64,107.91l-6.38-20.68H112l6.65,20.5S120.91,107.91,120.64,107.91Z"/><rect class="cls-8" x="38.26" y="15.2" width="114.12" height="75.96" rx="11.5" ry="11.5"/><circle class="cls-9" cx="95.02" cy="84.14" r="2.52"/><rect class="cls-4" x="53.29" y="44.31" width="9.8" height="1.55"/><rect class="cls-2" x="53.29" y="47.86" width="6" height="1.55"/><rect class="cls-4" x="53.29" y="51.41" width="4.04" height="1.55"/><rect class="cls-2" x="53.29" y="54.96" width="9.18" height="1.55"/><rect class="cls-4" x="53.29" y="58.51" width="10.86" height="1.55"/><polygon class="cls-10" points="19.46 113.58 14.52 110.02 9.58 113.58 4.63 110.02 -0.32 113.58 -6.14 109.4 -4.41 106.99 -0.32 109.93 4.63 106.37 9.58 109.93 14.52 106.37 19.46 109.92 24.4 106.36 29.34 109.93 34.28 106.37 40.09 110.55 38.35 112.96 34.28 110.02 29.34 113.58 24.4 110.02 19.46 113.58"/><polygon class="cls-10" points="19.46 121.74 14.52 118.18 9.58 121.74 4.63 118.18 -0.32 121.74 -6.14 117.56 -4.41 115.15 -0.32 118.08 4.63 114.52 9.58 118.08 14.52 114.52 19.46 118.08 24.4 114.52 29.34 118.08 34.28 114.52 40.09 118.71 38.35 121.11 34.28 118.18 29.34 121.74 24.4 118.18 19.46 121.74"/><polygon class="cls-10" points="19.46 129.9 14.52 126.34 9.58 129.9 4.63 126.33 -0.32 129.89 -6.14 125.71 -4.41 123.3 -0.32 126.24 4.63 122.68 9.58 126.24 14.52 122.68 19.46 126.24 24.4 122.68 29.34 126.24 34.28 122.68 40.09 126.86 38.35 129.27 34.28 126.34 29.34 129.9 24.4 126.34 19.46 129.9"/><rect class="cls-7" x="51.12" y="77.94" width="24.76" height="39.54" rx="8.6" ry="8.6" transform="translate(127 195.41) rotate(-180)"/><rect class="cls-4" x="47.39" y="77.94" width="24.76" height="39.54" rx="8.6" ry="8.6" transform="translate(119.53 195.41) rotate(-180)"/><rect class="cls-8" x="48.72" y="83.53" width="21.81" height="27.76" transform="translate(119.24 194.82) rotate(180)"/><rect class="cls-7" x="56.18" y="80.11" width="7.17" height="0.9" transform="translate(119.53 161.12) rotate(-180)"/><rect class="cls-7" x="58.22" y="112.77" width="3.08" height="3.08" transform="translate(119.53 228.63) rotate(-180)"/><rect class="cls-10" x="50.46" y="85.69" width="4.61" height="4.61" rx="2.31" ry="2.31"/><rect class="cls-2" x="56.65" y="87.09" width="12.2" height="1.81"/><rect class="cls-10" x="50.46" y="93.08" width="4.61" height="4.61" rx="2.31" ry="2.31"/><rect class="cls-2" x="56.65" y="94.48" width="12.2" height="1.81"/><rect class="cls-10" x="50.46" y="100.48" width="4.61" height="4.61" rx="2.31" ry="2.31"/><rect class="cls-2" x="56.65" y="101.88" width="12.2" height="1.81"/><rect class="cls-2" x="72.57" y="49.22" width="37.57" height="2.56"/><rect class="cls-2" x="72.57" y="55.38" width="37.57" height="2.56"/><rect class="cls-2" x="72.57" y="61.55" width="37.57" height="2.56"/><rect class="cls-4" x="53.29" y="30.11" width="9.8" height="1.55"/><rect class="cls-2" x="53.29" y="33.66" width="6" height="1.55"/><rect class="cls-4" x="53.29" y="37.21" width="4.04" height="1.55"/><rect class="cls-2" x="53.29" y="40.76" width="9.18" height="1.55"/><path class="cls-11" d="M89.71,33.08v6a.23.23,0,0,0,.23.23.2.2,0,0,0,.11,0l5.09-3a.23.23,0,0,0,.08-.31.2.2,0,0,0-.08-.08l-5.09-3a.22.22,0,0,0-.31.08A.21.21,0,0,0,89.71,33.08ZM92,43.45a7.4,7.4,0,1,1,7.39-7.39A7.39,7.39,0,0,1,92,43.45Z"/><g class="cls-12"><rect class="cls-2" x="84.62" y="28.66" width="14.79" height="14.79"/><g class="cls-13"><rect class="cls-2" x="80" y="24.04" width="24.03" height="24.03"/></g></g></g></svg>