<?xml version="1.0" encoding="UTF-8"?>
<svg width="32px" height="32px" viewBox="0 0 32 32" version="1.1" xmlns="http://www.w3.org/2000/svg" xmlns:xlink="http://www.w3.org/1999/xlink">
    <!-- Generator: Sketch 52.3 (67297) - http://www.bohemiancoding.com/sketch -->
    <title>it-operations-32</title>
    <desc>Created with Sketch.</desc>
    <defs>
        <path d="M10,0 C6.13400675,-8.8817842e-16 3,3.13400675 3,7 C3,10.8659932 6.13400675,14 10,14 C13.8659932,14 17,10.8659932 17,7 C17,3.13400675 13.8659932,3.10862447e-15 10,0 Z M10,2 C12.7614237,2 15,4.23857625 15,7 C15,9.76142375 12.7614237,12 10,12 C7.23857625,12 5,9.76142375 5,7 C5.00314117,4.23987841 7.23987841,2.00314117 10,2 Z M20,28 L18,28 L18,23 C17.9967489,20.239924 15.760076,18.0032511 13,18 L7,18 C4.23992404,18.0032511 2.00325114,20.239924 2,23 L2,28 L0,28 L0,23 C0.00451860542,19.13588 3.13587997,16.0045186 7,16 L13,16 C16.86412,16.0045186 19.9954814,19.13588 20,23 L20,28 Z" id="path-1"></path>
    </defs>
    <g id="it-operations-32" stroke="none" stroke-width="1" fill="none" fill-rule="evenodd">
        <g id="Group-2" transform="translate(1.000000, 2.000000)">
            <g id="🎨Color">
                <mask id="mask-2" fill="white">
                    <use xlink:href="#path-1"></use>
                </mask>
                <use id="Mask" fill="#000000" fill-rule="nonzero" xlink:href="#path-1"></use>
                <g mask="url(#mask-2)" fill="#3D70B2" id="Fill-4">
                    <g transform="translate(-47.000000, -48.000000)">
                        <polygon points="0 124 124 124 124 1.42108547e-14 0 1.42108547e-14"></polygon>
                    </g>
                </g>
            </g>
            <g id="Group-4" transform="translate(19.000000, 8.000000)" fill="#3D70B2" fill-rule="nonzero">
                <path d="M5,10 L5,9 L2,9 C0.8954305,9 1.3527075e-16,8.1045695 0,7 L0,2 C-1.3527075e-16,0.8954305 0.8954305,2.02906125e-16 2,0 L10,0 C11.1045695,-2.02906125e-16 12,0.8954305 12,2 L12,7 C12,8.1045695 11.1045695,9 10,9 L7,9 L7,10 L9,10 L9,12 L3,12 L3,10 L5,10 Z M2,2 L2,7 L10,7 L10,2 L2,2 Z" id="Combined-Shape"></path>
            </g>
        </g>
    </g>
</svg>