<svg xmlns="http://www.w3.org/2000/svg" viewBox="0 0 118.97 122.71"><defs><style>.cls-1{fill:#3151b7;}.cls-2{fill:#ed8280;}.cls-3{fill:#001c59;}.cls-4{fill:#3c6df0;}.cls-5{fill:#fff;}.cls-6{fill:#89a2f6;}.cls-7{fill:#648fff;}.cls-8{fill:#e7e9f7;}</style></defs><title>Docs Icon 2</title><g id="Docs_Icon_2" data-name="Docs Icon 2"><rect class="cls-1" x="-20.52" y="-18.65" width="160" height="160"/><path class="cls-2" d="M64.83,57.82V34L85.42,22.15,106,34V57.82L85.42,69.71Z"/><circle class="cls-3" cx="112.88" cy="107.55" r="1.65"/><path class="cls-4" d="M86.84,86.14h0a1.4,1.4,0,0,1-1.4-1.35h0a1.4,1.4,0,0,1,1.36-1.44h0a1.4,1.4,0,0,1,1.44,1.35h0a1.4,1.4,0,0,1-1.36,1.44ZM81.64,86H81.5a1.39,1.39,0,0,1-1.25-1.53h0a1.39,1.39,0,0,1,1.53-1.25h0A1.4,1.4,0,0,1,81.64,86ZM92,85.63h0a1.4,1.4,0,0,1-1.38-1.17h0a1.39,1.39,0,0,1,1.15-1.6h0A1.39,1.39,0,0,1,93.4,84h0a1.4,1.4,0,0,1-1.15,1.61h0Zm-15.51-.52h0a1.86,1.86,0,0,1-.33,0h0a1.41,1.41,0,0,1-1-1.69h0a1.4,1.4,0,0,1,1.68-1h0a1.4,1.4,0,0,1-.32,2.76Zm20.57-.68h0a1.4,1.4,0,0,1-1.33-1h0a1.4,1.4,0,0,1,.92-1.75h0a1.4,1.4,0,0,1,1.75.92h0a1.4,1.4,0,0,1-.93,1.75h0A1.52,1.52,0,0,1,97.08,84.43Zm-25.54-.87h0a1.52,1.52,0,0,1-.51-.09h0a1.4,1.4,0,0,1-.8-1.81h0a1.4,1.4,0,0,1,1.81-.8h0a1.4,1.4,0,0,1-.5,2.7Zm30.4-1h0a1.39,1.39,0,0,1-1.26-.81h0a1.39,1.39,0,0,1,.68-1.85h0a1.39,1.39,0,0,1,1.85.68h0a1.39,1.39,0,0,1-.68,1.85A1.37,1.37,0,0,1,101.94,82.56ZM66.82,81.37h0a1.35,1.35,0,0,1-.67-.18h0a1.38,1.38,0,0,1-.55-1.89h0a1.39,1.39,0,0,1,1.89-.55h0a1.39,1.39,0,0,1-.67,2.62Zm39.69-1.31h0a1.4,1.4,0,0,1-1.18-.65h0a1.39,1.39,0,0,1,.43-1.92h0a1.39,1.39,0,0,1,1.93.42h0a1.4,1.4,0,0,1-.43,1.93h0A1.36,1.36,0,0,1,106.51,80.06Zm-44.07-1.5h0a1.29,1.29,0,0,1-.83-.27h0a1.39,1.39,0,0,1-.29-2h0a1.39,1.39,0,0,1,2-.29h0a1.39,1.39,0,0,1,.29,2A1.37,1.37,0,0,1,62.44,78.56ZM110.7,77h0a1.39,1.39,0,0,1-1.07-.5h0a1.39,1.39,0,0,1,.17-2h0a1.4,1.4,0,0,1,2,.16h0A1.4,1.4,0,0,1,110.7,77ZM58.47,75.2h0a1.39,1.39,0,0,1-1-.39h0a1.4,1.4,0,0,1,0-2h0a1.41,1.41,0,0,1,2,0h0a1.4,1.4,0,0,1-1,2.4Zm56-1.85h0a1.38,1.38,0,0,1-.93-.36h0a1.38,1.38,0,0,1-.1-2h0a1.4,1.4,0,0,1,2-.1h0a1.39,1.39,0,0,1-.94,2.43ZM55,71.34h0a1.38,1.38,0,0,1-1.1-.53h0a1.39,1.39,0,0,1,.23-2h0a1.39,1.39,0,0,1,2,.23h0a1.39,1.39,0,0,1-.23,2A1.33,1.33,0,0,1,55,71.34Zm62.69-2.06h0a1.47,1.47,0,0,1-.79-.25h0a1.41,1.41,0,0,1-.36-1.94h0a1.4,1.4,0,0,1,2-.36h0a1.39,1.39,0,0,1,.35,1.94A1.37,1.37,0,0,1,117.67,69.28ZM52,67.05h0a1.38,1.38,0,0,1-1.2-.68h0a1.4,1.4,0,0,1,.48-1.92h0a1.41,1.41,0,0,1,1.92.49h0A1.39,1.39,0,0,1,52,67.05Zm68.3-2.25h0a1.42,1.42,0,0,1-.63-.15h0a1.39,1.39,0,0,1-.61-1.87h0a1.4,1.4,0,0,1,1.88-.62h0a1.4,1.4,0,0,1-.64,2.64ZM49.68,62.41h0a1.4,1.4,0,0,1-1.29-.85h0a1.4,1.4,0,0,1,.74-1.84h0a1.4,1.4,0,0,1,1.83.74h0a1.41,1.41,0,0,1-.74,1.84A1.49,1.49,0,0,1,49.68,62.41ZM122.37,60h0a1.48,1.48,0,0,1-.46-.08h0a1.41,1.41,0,0,1-.86-1.78h0a1.4,1.4,0,0,1,1.78-.86h0a1.4,1.4,0,0,1-.46,2.72ZM48,57.49h0a1.4,1.4,0,0,1-1.35-1h0a1.4,1.4,0,0,1,1-1.72h0a1.41,1.41,0,0,1,1.72,1h0a1.41,1.41,0,0,1-1,1.72A1.49,1.49,0,0,1,48,57.49ZM123.75,55h0a1.33,1.33,0,0,1-.28,0h0a1.41,1.41,0,0,1-1.09-1.65h0A1.4,1.4,0,0,1,124,52.23h0a1.4,1.4,0,0,1,1.09,1.65h0A1.41,1.41,0,0,1,123.75,55ZM46.93,52.39h0a1.41,1.41,0,0,1-1.38-1.22h0a1.39,1.39,0,0,1,1.2-1.56h0a1.38,1.38,0,0,1,1.57,1.19h0a1.39,1.39,0,0,1-1.2,1.57Zm77.52-2.55h-.1a1.41,1.41,0,0,1-1.3-1.49h0a1.4,1.4,0,0,1,1.49-1.3h0a1.4,1.4,0,0,1-.09,2.79ZM46.59,47.19h0A1.39,1.39,0,0,1,45.2,45.8h0v0h0v0h0a1.38,1.38,0,0,1,1.4-1.39h0A1.39,1.39,0,0,1,48,45.72h0v0h0v0A1.4,1.4,0,0,1,46.59,47.19Zm77.86-2.56h0a1.39,1.39,0,0,1-1.39-1.3h0a1.39,1.39,0,0,1,1.3-1.48h0a1.38,1.38,0,0,1,1.48,1.3h0a1.39,1.39,0,0,1-1.3,1.48ZM47,41.92h-.19a1.41,1.41,0,0,1-1.2-1.58h0a1.4,1.4,0,0,1,1.58-1.19h0A1.4,1.4,0,0,1,47,41.92Zm76.82-2.45h0a1.4,1.4,0,0,1-1.37-1.12h0a1.4,1.4,0,0,1,1.09-1.64h0a1.41,1.41,0,0,1,1.65,1.09h0a1.4,1.4,0,0,1-1.1,1.65ZM48,36.82h0a1.57,1.57,0,0,1-.37,0h0a1.4,1.4,0,0,1-1-1.72h0a1.39,1.39,0,0,1,1.72-1h0a1.4,1.4,0,0,1,1,1.71A1.42,1.42,0,0,1,48,36.82Zm74.41-2.37h0a1.39,1.39,0,0,1-1.32-.94h0a1.41,1.41,0,0,1,.87-1.78h0a1.4,1.4,0,0,1,1.77.87h0a1.39,1.39,0,0,1-.86,1.77A1.48,1.48,0,0,1,122.4,34.45ZM49.71,31.91h0a1.33,1.33,0,0,1-.55-.12h0A1.4,1.4,0,0,1,48.42,30h0a1.4,1.4,0,0,1,1.83-.74h0a1.4,1.4,0,0,1-.54,2.69Zm70.66-2.26h0a1.41,1.41,0,0,1-1.25-.76h0a1.41,1.41,0,0,1,.62-1.88h0a1.4,1.4,0,0,1,1.88.62h0A1.39,1.39,0,0,1,121,29.5,1.42,1.42,0,0,1,120.37,29.65ZM52.06,27.27h0a1.32,1.32,0,0,1-.71-.2h0a1.4,1.4,0,0,1-.49-1.91h0a1.41,1.41,0,0,1,1.92-.49h0a1.4,1.4,0,0,1,.48,1.92h0A1.38,1.38,0,0,1,52.06,27.27Zm65.66-2.1h0a1.39,1.39,0,0,1-1.15-.6h0a1.4,1.4,0,0,1,.36-1.95h0a1.4,1.4,0,0,1,1.94.37h0a1.4,1.4,0,0,1-.36,1.94A1.43,1.43,0,0,1,117.72,25.17ZM55,23h0a1.41,1.41,0,0,1-.87-.3h0a1.41,1.41,0,0,1-.23-2h0a1.41,1.41,0,0,1,2-.22h0a1.4,1.4,0,0,1,.22,2A1.37,1.37,0,0,1,55,23Zm59.47-1.91h0a1.38,1.38,0,0,1-1-.45h0a1.4,1.4,0,0,1,.1-2h0a1.39,1.39,0,0,1,2,.1h0a1.39,1.39,0,0,1-.1,2A1.35,1.35,0,0,1,114.49,21.08Zm-56-1.94h0a1.43,1.43,0,0,1-1-.43h0a1.4,1.4,0,0,1,0-2h0a1.4,1.4,0,0,1,2,0h0a1.39,1.39,0,0,1,0,2A1.41,1.41,0,0,1,58.52,19.14Zm52.24-1.68h0a1.39,1.39,0,0,1-.9-.33h0a1.4,1.4,0,0,1-.17-2h0a1.4,1.4,0,0,1,2-.16h0a1.4,1.4,0,0,1,.16,2A1.36,1.36,0,0,1,110.76,17.46ZM62.5,15.78h0a1.42,1.42,0,0,1-1.13-.57h0a1.39,1.39,0,0,1,.3-2h0a1.38,1.38,0,0,1,1.95.3h0a1.39,1.39,0,0,1-.29,1.95A1.44,1.44,0,0,1,62.5,15.78Zm44.08-1.41h0a1.4,1.4,0,0,1-.76-.22h0a1.39,1.39,0,0,1-.42-1.93h0a1.39,1.39,0,0,1,1.93-.42h0a1.38,1.38,0,0,1,.42,1.92A1.4,1.4,0,0,1,106.58,14.37ZM66.89,13h0a1.38,1.38,0,0,1-1.23-.73h0a1.39,1.39,0,0,1,.56-1.89h0a1.4,1.4,0,0,1,1.89.55h0a1.41,1.41,0,0,1-.55,1.9A1.36,1.36,0,0,1,66.89,13ZM102,11.86h0a1.37,1.37,0,0,1-.59-.13h0a1.41,1.41,0,0,1-.68-1.86h0a1.4,1.4,0,0,1,1.86-.67h0a1.39,1.39,0,0,1-.59,2.66ZM71.61,10.79h0a1.39,1.39,0,0,1-1.3-.89h0a1.4,1.4,0,0,1,.8-1.81h0a1.4,1.4,0,0,1,1.81.81h0a1.4,1.4,0,0,1-.81,1.8h0A1.43,1.43,0,0,1,71.61,10.79ZM97.17,10h0a1.52,1.52,0,0,1-.42-.06h0a1.39,1.39,0,0,1-.92-1.75h0a1.39,1.39,0,0,1,1.75-.92h0A1.4,1.4,0,0,1,97.17,10ZM76.59,9.26h0a1.4,1.4,0,0,1-1.36-1.08h0a1.41,1.41,0,0,1,1-1.68h0a1.41,1.41,0,0,1,1.68,1h0a1.39,1.39,0,0,1-1,1.68A1.22,1.22,0,0,1,76.59,9.26ZM92.1,8.77h0l-.23,0h0a1.39,1.39,0,0,1-1.14-1.61h0A1.4,1.4,0,0,1,92.34,6h0a1.4,1.4,0,0,1-.24,2.78ZM81.72,8.41h0a1.4,1.4,0,0,1-1.39-1.26h0a1.41,1.41,0,0,1,1.26-1.53h0a1.41,1.41,0,0,1,1.53,1.26h0A1.39,1.39,0,0,1,81.86,8.4Zm5.21-.16h-.05A1.4,1.4,0,0,1,85.53,6.8h0A1.4,1.4,0,0,1,87,5.45h0a1.4,1.4,0,0,1,0,2.8Z"/><polygon class="cls-5" points="25.64 114.05 22.55 113.1 25.64 112.15 26.6 109.05 27.55 112.15 30.65 113.1 27.55 114.05 26.6 117.15 25.64 114.05"/><path class="cls-5" d="M100.81,98.81V92.88l5.14-3,5.14,3v5.93l-5.14,3Zm8.11-4.68-3-1.72-3,1.72v3.43l3,1.72,3-1.72Z"/><rect class="cls-3" x="11.88" y="43.2" width="74" height="60.62" transform="translate(97.76 147.02) rotate(-180)"/><rect class="cls-5" x="8.65" y="48.91" width="72.91" height="50.67" transform="translate(90.21 148.48) rotate(-180)"/><rect class="cls-6" x="8.65" y="40.59" width="72.91" height="9.69" transform="translate(90.21 90.88) rotate(-180)"/><circle class="cls-2" cx="75.45" cy="45.8" r="2.04"/><circle class="cls-7" cx="69.24" cy="45.8" r="2.04"/><rect class="cls-6" x="72.88" y="83.25" width="3.12" height="16.64" transform="translate(148.87 183.13) rotate(-180)"/><circle class="cls-5" cx="63.03" cy="45.8" r="2.04"/><path class="cls-2" d="M21.27,67.3l5.45-3.44V63.7l-5.45-3.43V56.86l9,5.91v2l-9,6Z"/><path class="cls-2" d="M33.34,75V72.22H44.69V75Z"/><rect class="cls-3" x="51.03" y="82.9" width="44.55" height="30.71" transform="translate(146.61 196.5) rotate(-180)"/><rect class="cls-8" x="46.73" y="78.44" width="44.55" height="30.71" transform="translate(138.02 187.59) rotate(-180)"/><polygon class="cls-5" points="33.81 34.52 28.14 32.79 33.81 31.05 35.55 25.39 37.28 31.05 42.95 32.79 37.28 34.52 35.55 40.19 33.81 34.52"/><polygon class="cls-3" points="26.13 41.64 23.03 40.69 26.13 39.74 27.08 36.64 28.03 39.74 31.13 40.69 28.03 41.64 27.08 44.74 26.13 41.64"/><polygon class="cls-5" points="103.23 39.68 106.41 37.39 109.58 39.68 112.76 37.39 115.94 39.68 119.68 36.99 118.57 35.45 115.94 37.33 112.76 35.05 109.58 37.33 106.41 35.05 103.23 37.33 100.06 35.05 96.89 37.33 93.71 35.05 89.98 37.73 91.09 39.28 93.71 37.39 96.89 39.68 100.06 37.39 103.23 39.68"/><polygon class="cls-5" points="103.23 44.92 106.41 42.63 109.58 44.92 112.76 42.63 115.94 44.92 119.68 42.23 118.57 40.69 115.94 42.57 112.76 40.29 109.58 42.57 106.41 40.29 103.23 42.57 100.06 40.28 96.89 42.57 93.71 40.29 89.98 42.97 91.09 44.52 93.71 42.63 96.89 44.92 100.06 42.63 103.23 44.92"/><polygon class="cls-5" points="103.23 50.16 106.41 47.88 109.58 50.16 112.76 47.87 115.94 50.16 119.68 47.47 118.57 45.93 115.94 47.81 112.76 45.53 109.58 47.81 106.41 45.53 103.23 47.81 100.06 45.53 96.89 47.81 93.71 45.53 89.98 48.22 91.09 49.76 93.71 47.88 96.89 50.16 100.06 47.88 103.23 50.16"/><polygon class="cls-2" points="33.32 106.94 27.66 105.2 33.32 103.46 35.06 97.8 36.8 103.46 42.46 105.2 36.8 106.94 35.06 112.6 33.32 106.94"/><path class="cls-3" d="M20.56,41.06A12,12,0,0,1,8.64,53V40.6H20.55C20.56,40.76,20.56,40.91,20.56,41.06Z"/><rect class="cls-6" x="51.32" y="90.52" width="25.03" height="2.33"/><rect class="cls-6" x="51.32" y="95.15" width="18.04" height="2.33"/><rect class="cls-2" x="51.32" y="84.23" width="18.3" height="2.89"/><rect class="cls-3" x="51.32" y="100.61" width="35.52" height="2.33"/><circle class="cls-5" cx="6.28" cy="39.23" r="11.96"/><path class="cls-1" d="M1.35,37.47a4.59,4.59,0,0,1,9.14-.06h.11a3.44,3.44,0,0,1,0,6.88H2a3.44,3.44,0,0,1-.61-6.82Z"/></g></svg>