<?xml version="1.0" encoding="UTF-8"?>
<svg width="32px" height="32px" viewBox="0 0 32 32" version="1.1" xmlns="http://www.w3.org/2000/svg" xmlns:xlink="http://www.w3.org/1999/xlink">
    <!-- Generator: Sketch 52.2 (67145) - http://www.bohemiancoding.com/sketch -->
    <title>quick-start</title>
    <desc>Created with Sketch.</desc>
    <defs>
        <path d="M23.275,16.9642857 L17.8571429,11.6080357 L23.2767857,6.25 L24.5535714,7.5125 L20.4107143,11.6080357 L24.5517857,15.7017857 L23.275,16.9642857 Z M8.92857143,1.78571429 C11.3941283,1.78571429 13.3928571,3.78444308 13.3928571,6.25 C13.3928571,8.71555692 11.3941283,10.7142857 8.92857143,10.7142857 C6.46301451,10.7142857 4.46428571,8.71555692 4.46428571,6.25 C4.46709033,3.78560573 6.46417715,1.7885189 8.92857143,1.78571429 Z M8.92857143,0 C5.47679174,-7.93016446e-16 2.67857143,2.79822031 2.67857143,6.25 C2.67857143,9.70177969 5.47679174,12.5 8.92857143,12.5 C12.3803511,12.5 15.1785714,9.70177969 15.1785714,6.25 C15.1785714,2.79822031 12.3803511,2.77555756e-15 8.92857143,0 Z M17.8571429,25 L16.0714286,25 L16.0714286,20.5357143 C16.0685258,18.0713607 14.0714964,16.0743314 11.6071429,16.0714286 L6.25,16.0714286 C3.78564646,16.0743314 1.78861709,18.0713607 1.78571429,20.5357143 L1.78571429,25 L0,25 L0,20.5357143 C0.00403446912,17.0856071 2.79989283,14.2897488 6.25,14.2857143 L11.6071429,14.2857143 C15.05725,14.2897488 17.8531084,17.0856071 17.8571429,20.5357143 L17.8571429,25 Z" id="path-1"></path>
    </defs>
    <g id="quick-start" stroke="none" stroke-width="1" fill="none" fill-rule="evenodd">
        <g id="🎨Color" transform="translate(4.000000, 4.000000)">
            <mask id="mask-2" fill="white">
                <use xlink:href="#path-1"></use>
            </mask>
            <use id="Mask" fill="#000000" fill-rule="nonzero" xlink:href="#path-1"></use>
            <g id="color/fill/black-core" mask="url(#mask-2)" fill="#152934">
                <g transform="translate(-42.857143, -42.857143)" id="Fill-4">
                    <polygon points="0 111 111 111 111 1.2721007e-14 0 1.2721007e-14"></polygon>
                </g>
            </g>
        </g>
    </g>
</svg>