<svg id="Docs_Icon_6" data-name="Docs Icon 6" xmlns="http://www.w3.org/2000/svg" viewBox="0 0 118.97 122.71"><defs><style>.cls-1{fill:#e7e9f7;}.cls-2{fill:#ed8280;}.cls-3{fill:#3c6df0;}.cls-4{fill:#fff;}.cls-5{fill:#5392ff;}.cls-6{fill:#252e6a;}.cls-7{fill:#001c59;}.cls-8{fill:#89a2f6;}</style></defs><title>Docs Icon 6</title><rect class="cls-1" x="-20.52" y="-18.65" width="160" height="160"/><path class="cls-2" d="M28,66.42,6.25,53.87V28.76L28,16.21,49.73,28.76V53.87Z"/><path class="cls-3" d="M24.4,89.27A1.47,1.47,0,0,1,23,87.75h0a1.48,1.48,0,0,1,1.52-1.43h0a1.48,1.48,0,0,1,1.43,1.52h0a1.48,1.48,0,0,1-1.48,1.43h0Zm4.07-1.51a1.48,1.48,0,0,1,1.32-1.62h0a1.47,1.47,0,0,1,1.61,1.33h0a1.46,1.46,0,0,1-1.32,1.61h-.15A1.48,1.48,0,0,1,28.47,87.76Zm-9.74.95h0A1.48,1.48,0,0,1,17.52,87h0a1.49,1.49,0,0,1,1.7-1.21h0a1.48,1.48,0,0,1,1.21,1.7h0A1.47,1.47,0,0,1,19,88.73h0A1.06,1.06,0,0,1,18.73,88.71ZM33.92,87A1.47,1.47,0,0,1,35,85.27h0a1.47,1.47,0,0,1,1.78,1.09h0a1.48,1.48,0,0,1-1.1,1.78h0a1.86,1.86,0,0,1-.34,0h0A1.48,1.48,0,0,1,33.92,87Zm-20.73.36h0a1.48,1.48,0,0,1-1-1.85h0a1.48,1.48,0,0,1,1.84-1h0a1.48,1.48,0,0,1,1,1.85h0a1.49,1.49,0,0,1-1.41,1h0A1.75,1.75,0,0,1,13.19,87.4Zm26-1.8a1.46,1.46,0,0,1,.84-1.9h0a1.47,1.47,0,0,1,1.91.84h0a1.49,1.49,0,0,1-.85,1.91h0a1.61,1.61,0,0,1-.53.1h0A1.46,1.46,0,0,1,39.23,85.6ZM7.88,85.35a1.47,1.47,0,0,1-.72-1.95h0a1.48,1.48,0,0,1,2-.72h0a1.47,1.47,0,0,1,.71,2h0a1.47,1.47,0,0,1-1.33.85h0A1.37,1.37,0,0,1,7.88,85.35Zm36.41-1.88a1.49,1.49,0,0,1,.58-2h0a1.47,1.47,0,0,1,2,.59h0a1.46,1.46,0,0,1-.58,2h0a1.53,1.53,0,0,1-.71.18h0A1.48,1.48,0,0,1,44.29,83.47ZM2.88,82.61h0a1.49,1.49,0,0,1-.45-2h0a1.47,1.47,0,0,1,2-.45h0a1.47,1.47,0,0,1,.45,2h0a1.47,1.47,0,0,1-1.24.68h0A1.47,1.47,0,0,1,2.88,82.61ZM49,80.67a1.48,1.48,0,0,1,.31-2.06h0a1.48,1.48,0,0,1,2.06.31h0A1.46,1.46,0,0,1,51.08,81h0a1.42,1.42,0,0,1-.87.29h0A1.49,1.49,0,0,1,49,80.67ZM-1.7,79.24a1.47,1.47,0,0,1-.17-2.08h0A1.46,1.46,0,0,1,.2,77h0a1.45,1.45,0,0,1,.18,2.07h0a1.46,1.46,0,0,1-1.13.53h0A1.49,1.49,0,0,1-1.7,79.24Zm55-2a1.47,1.47,0,0,1,0-2.08h0a1.48,1.48,0,0,1,2.09,0h0a1.47,1.47,0,0,1,0,2.09h0a1.47,1.47,0,0,1-1,.41h0A1.48,1.48,0,0,1,53.34,77.27Zm-59.13-2a1.47,1.47,0,0,1,.1-2.08h0a1.46,1.46,0,0,1,2.08.1h0a1.46,1.46,0,0,1-.1,2.08h0a1.5,1.5,0,0,1-1,.38h0A1.47,1.47,0,0,1-5.79,75.29Zm63-2a1.48,1.48,0,0,1-.24-2.07h0A1.48,1.48,0,0,1,59,71h0a1.48,1.48,0,0,1,.24,2.08h0a1.48,1.48,0,0,1-1.15.55h0A1.5,1.5,0,0,1,57.17,73.33Zm-66.49-2.5a1.46,1.46,0,0,1,.37-2h0a1.47,1.47,0,0,1,2,.37h0a1.47,1.47,0,0,1-.37,2h0a1.46,1.46,0,0,1-.84.26h0A1.46,1.46,0,0,1-9.32,70.83Zm69.77-1.92a1.48,1.48,0,0,1-.52-2h0a1.48,1.48,0,0,1,2-.52h0a1.49,1.49,0,0,1,.52,2h0a1.49,1.49,0,0,1-1.27.72h0A1.47,1.47,0,0,1,60.45,68.91Zm-72.68-3a1.48,1.48,0,0,1,.64-2h0a1.5,1.5,0,0,1,2,.65h0a1.48,1.48,0,0,1-.65,2h0a1.44,1.44,0,0,1-.67.16h0A1.47,1.47,0,0,1-12.23,65.94ZM63.11,64.1a1.48,1.48,0,0,1-.78-1.94h0a1.47,1.47,0,0,1,1.93-.78h0A1.47,1.47,0,0,1,65,63.31h0a1.46,1.46,0,0,1-1.36.9h0A1.44,1.44,0,0,1,63.11,64.1Zm-77.57-3.4a1.48,1.48,0,0,1,.91-1.88h0a1.47,1.47,0,0,1,1.87.91h0a1.48,1.48,0,0,1-.9,1.88h0a1.67,1.67,0,0,1-.49.08h0A1.47,1.47,0,0,1-14.46,60.7ZM65.1,59a1.48,1.48,0,0,1-1-1.81h0a1.49,1.49,0,0,1,1.82-1h0a1.47,1.47,0,0,1,1,1.81h0A1.48,1.48,0,0,1,65.49,59h0A1.74,1.74,0,0,1,65.1,59ZM-16,55.21h0a1.48,1.48,0,0,1,1.15-1.74h0a1.47,1.47,0,0,1,1.74,1.15h0a1.47,1.47,0,0,1-1.15,1.74h0a1.53,1.53,0,0,1-.3,0h0A1.47,1.47,0,0,1-16,55.21Zm82.35-1.59A1.48,1.48,0,0,1,65.11,52h0a1.48,1.48,0,0,1,1.66-1.26h0A1.47,1.47,0,0,1,68,52.35h0a1.48,1.48,0,0,1-1.46,1.28h-.2Zm-83.11-4A1.47,1.47,0,0,1-15.35,48h0a1.48,1.48,0,0,1,1.57,1.37h0a1.49,1.49,0,0,1-1.38,1.57h-.1A1.47,1.47,0,0,1-16.73,49.57Zm82.19-2.9s0,0,0,0h0s0,0,0,0h0a1.47,1.47,0,0,1,1.47-1.48h0a1.47,1.47,0,0,1,1.48,1.47h0v.05h0v0h0a1.47,1.47,0,0,1-1.47,1.48h0A1.48,1.48,0,0,1,65.46,46.67Zm-80.82-1.23a1.46,1.46,0,0,1-1.37-1.56h0a1.48,1.48,0,0,1,1.56-1.38h0a1.49,1.49,0,0,1,1.38,1.57h0a1.48,1.48,0,0,1-1.47,1.38h-.1ZM65.1,41.3a1.48,1.48,0,0,1,1.27-1.66h0A1.49,1.49,0,0,1,68,40.91h0a1.48,1.48,0,0,1-1.27,1.66h-.2A1.48,1.48,0,0,1,65.1,41.3ZM-14.83,40A1.48,1.48,0,0,1-16,38.23h0a1.48,1.48,0,0,1,1.74-1.15h0a1.47,1.47,0,0,1,1.15,1.74h0A1.47,1.47,0,0,1-14.54,40h0A1.36,1.36,0,0,1-14.83,40ZM64,36.11a1.48,1.48,0,0,1,1-1.81h0a1.46,1.46,0,0,1,1.81,1h0a1.47,1.47,0,0,1-1,1.81h0a1.37,1.37,0,0,1-.39.06h0A1.48,1.48,0,0,1,64,36.11Zm-77.62-1.5a1.46,1.46,0,0,1-.91-1.87h0a1.48,1.48,0,0,1,1.87-.92h0a1.48,1.48,0,0,1,.91,1.88h0a1.48,1.48,0,0,1-1.39,1h0A1.36,1.36,0,0,1-13.58,34.61Zm75.87-3.5a1.47,1.47,0,0,1,.78-1.93h0A1.48,1.48,0,0,1,65,30h0a1.47,1.47,0,0,1-.78,1.93h0a1.47,1.47,0,0,1-.58.12h0A1.5,1.5,0,0,1,62.29,31.11Zm-73.91-1.64a1.47,1.47,0,0,1-.65-2h0a1.46,1.46,0,0,1,2-.65h0a1.47,1.47,0,0,1,.65,2h0a1.48,1.48,0,0,1-1.32.81h0A1.43,1.43,0,0,1-11.62,29.47ZM59.9,26.39h0a1.47,1.47,0,0,1,.51-2h0a1.49,1.49,0,0,1,2,.51h0a1.48,1.48,0,0,1-.51,2h0a1.5,1.5,0,0,1-.75.21h0A1.46,1.46,0,0,1,59.9,26.39ZM-9,24.64a1.48,1.48,0,0,1-.38-2.05h0a1.48,1.48,0,0,1,2-.38h0a1.48,1.48,0,0,1,.38,2.05h0a1.5,1.5,0,0,1-1.22.64h0A1.43,1.43,0,0,1-9,24.64ZM56.89,22A1.48,1.48,0,0,1,57.13,20h0a1.49,1.49,0,0,1,2.07.24h0A1.49,1.49,0,0,1,59,22.28h0a1.5,1.5,0,0,1-.92.31h0A1.48,1.48,0,0,1,56.89,22ZM-5.74,20.2a1.48,1.48,0,0,1-.11-2.08h0A1.48,1.48,0,0,1-3.76,18h0a1.47,1.47,0,0,1,.1,2.08h0a1.47,1.47,0,0,1-1.09.48h0A1.43,1.43,0,0,1-5.74,20.2Zm59.06-2.09a1.47,1.47,0,0,1,0-2.08h0a1.47,1.47,0,0,1,2.08,0h0a1.47,1.47,0,0,1,0,2.09h0a1.48,1.48,0,0,1-1.06.45h0A1.48,1.48,0,0,1,53.32,18.11ZM-1.93,16.24a1.47,1.47,0,0,1,.17-2.08h0a1.47,1.47,0,0,1,2.08.17h0a1.48,1.48,0,0,1-.17,2.08h0a1.46,1.46,0,0,1-1,.35h0A1.48,1.48,0,0,1-1.93,16.24Zm51.2-1.54A1.48,1.48,0,0,1,49,12.64h0A1.47,1.47,0,0,1,51,12.32h0a1.46,1.46,0,0,1,.31,2.06h0a1.47,1.47,0,0,1-1.19.6h0A1.5,1.5,0,0,1,49.27,14.7ZM2.37,12.81a1.47,1.47,0,0,1,.44-2h0a1.48,1.48,0,0,1,2,.44h0a1.47,1.47,0,0,1-.45,2h0a1.42,1.42,0,0,1-.79.23h0A1.46,1.46,0,0,1,2.37,12.81Zm42.43-1a1.48,1.48,0,0,1-.58-2h0a1.47,1.47,0,0,1,2-.59h0a1.48,1.48,0,0,1,.59,2h0a1.49,1.49,0,0,1-1.3.77h0A1.53,1.53,0,0,1,44.8,11.85ZM7.08,10a1.49,1.49,0,0,1,.71-2h0a1.48,1.48,0,0,1,2,.72h0A1.46,1.46,0,0,1,9,10.7H9a1.37,1.37,0,0,1-.62.14h0A1.47,1.47,0,0,1,7.08,10ZM40,9.62h0a1.47,1.47,0,0,1-.86-1.9h0a1.48,1.48,0,0,1,1.91-.85h0a1.47,1.47,0,0,1,.85,1.9h0a1.48,1.48,0,0,1-1.38,1h0A1.37,1.37,0,0,1,40,9.62ZM12.14,7.82a1.46,1.46,0,0,1,1-1.84h0A1.46,1.46,0,0,1,15,7h0a1.47,1.47,0,0,1-1,1.84h0a1.35,1.35,0,0,1-.44.07h0A1.46,1.46,0,0,1,12.14,7.82Zm22.79.24a1.47,1.47,0,0,1-1.1-1.77h0a1.47,1.47,0,0,1,1.77-1.1h0A1.47,1.47,0,0,1,36.7,7h0A1.47,1.47,0,0,1,35.27,8.1h0A1.32,1.32,0,0,1,34.93,8.06ZM17.43,6.35a1.49,1.49,0,0,1,1.21-1.7h0a1.48,1.48,0,0,1,1.7,1.21h0a1.47,1.47,0,0,1-1.21,1.7h0a1,1,0,0,1-.24,0h0A1.49,1.49,0,0,1,17.43,6.35Zm12.27.84a1.47,1.47,0,0,1-1.32-1.61h0A1.47,1.47,0,0,1,30,4.26h0a1.47,1.47,0,0,1,1.32,1.61h0A1.47,1.47,0,0,1,29.85,7.2H29.7ZM22.88,5.6A1.47,1.47,0,0,1,24.3,4.08h0A1.48,1.48,0,0,1,25.83,5.5h0A1.48,1.48,0,0,1,24.41,7h-.06A1.48,1.48,0,0,1,22.88,5.6Z"/><circle class="cls-4" cx="27.71" cy="38.89" r="12.63"/><polygon class="cls-5" points="58.48 96.33 53.99 93.11 49.51 96.33 45.02 93.1 40.53 96.33 35.26 92.54 36.83 90.36 40.53 93.02 45.02 89.79 49.51 93.02 53.99 89.79 58.47 93.02 62.95 89.79 67.43 93.02 71.92 89.79 77.18 93.58 75.61 95.77 71.92 93.11 67.43 96.33 62.95 93.11 58.48 96.33"/><polygon class="cls-5" points="58.48 103.73 53.99 100.5 49.51 103.73 45.02 100.5 40.53 103.73 35.26 99.94 36.83 97.75 40.53 100.42 45.02 97.19 49.51 100.42 53.99 97.19 58.47 100.42 62.95 97.19 67.43 100.42 71.92 97.19 77.18 100.98 75.61 103.17 71.92 100.5 67.43 103.73 62.95 100.5 58.48 103.73"/><polygon class="cls-5" points="58.48 111.13 53.99 107.9 49.51 111.13 45.02 107.9 40.53 111.13 35.26 107.34 36.83 105.15 40.53 107.82 45.02 104.59 49.51 107.82 53.99 104.59 58.47 107.81 62.95 104.59 67.43 107.82 71.92 104.59 77.18 108.38 75.61 110.56 71.92 107.9 67.43 111.13 62.95 107.9 58.48 111.13"/><polygon class="cls-4" points="100.53 40.36 104.83 39.04 100.53 37.73 99.21 33.43 97.9 37.73 93.6 39.04 97.9 40.36 99.21 44.65 100.53 40.36"/><polygon class="cls-6" points="94.46 49.53 97.81 48.5 94.46 47.47 93.43 44.12 92.4 47.47 89.04 48.5 92.4 49.53 93.43 52.89 94.46 49.53"/><rect class="cls-7" x="58.81" y="71.52" width="47.01" height="25.27"/><polygon class="cls-7" points="105.83 71.52 88.5 71.52 96.03 59.5 113.36 59.5 105.83 71.52"/><rect class="cls-8" x="58.81" y="71.52" width="29.7" height="25.27"/><polygon class="cls-8" points="88.5 71.52 58.81 71.52 50.77 59.57 80.47 59.57 88.5 71.52"/><path class="cls-8" d="M105.53,103l-6.47-3.73V91.76L105.53,88,112,91.76v7.47Zm-3.74-5.31,3.74,2.16,3.74-2.16V93.33l-3.74-2.16-3.74,2.16Z"/><path class="cls-3" d="M34.3,39.94v-1.8l-1.71-.48a4.54,4.54,0,0,0-.41-.93L33,35.24,31.7,34l-1.56.82a5.37,5.37,0,0,0-1-.39l-.5-1.63H26.76l-.5,1.63a5,5,0,0,0-1,.39L23.71,34l-1.34,1.28.86,1.49a4.54,4.54,0,0,0-.41.93l-1.71.48v1.8l1.71.48a4.62,4.62,0,0,0,.41.94l-.86,1.49,1.34,1.27,1.57-.81a5,5,0,0,0,1,.39l.5,1.63h1.89l.5-1.63a5.37,5.37,0,0,0,1-.39l1.56.81L33,42.85l-.86-1.49a4.62,4.62,0,0,0,.41-.94ZM29.73,39a2,2,0,1,1-2-1.93A2,2,0,0,1,29.73,39Z"/></svg>