<svg xmlns="http://www.w3.org/2000/svg" viewBox="0 0 118.97 122.71"><defs><style>.cls-1{fill:#d2d6f5;}.cls-2{fill:#89a2f6;}.cls-3{fill:#3c6df0;}.cls-4{fill:#e7e9f7;}.cls-5{fill:#001c59;}.cls-6{fill:#fff;}.cls-7{fill:#252e6a;}.cls-8{fill:#d1d7f4;}.cls-9{fill:#ed8280;}</style></defs><title>Docs Icon 1 copy</title><g id="skills-gateway"><rect class="cls-1" x="-20.52" y="-17.09" width="160" height="160"/><path class="cls-2" d="M91.29,134.74h0A2.24,2.24,0,0,1,89,132.57h0a2.24,2.24,0,0,1,2.17-2.31h0a2.25,2.25,0,0,1,2.32,2.17h0a2.24,2.24,0,0,1-2.18,2.31Zm-8.36-.27h0l-.23,0h0a2.23,2.23,0,0,1-2-2.45h0a2.24,2.24,0,0,1,2.45-2h0a2.25,2.25,0,0,1-.22,4.48Zm16.67-.55h0a2.22,2.22,0,0,1-2.21-1.87h0a2.24,2.24,0,0,1,1.84-2.58h0a2.24,2.24,0,0,1,2.59,1.84h0A2.25,2.25,0,0,1,100,133.9h0A2.3,2.3,0,0,1,99.6,133.92Zm-24.91-.84h0a2.24,2.24,0,0,1-.52-.06h0a2.24,2.24,0,0,1-1.67-2.7h0a2.24,2.24,0,0,1,2.7-1.66h0a2.24,2.24,0,0,1-.51,4.42ZM107.74,132h0a2.23,2.23,0,0,1-2.14-1.58h0a2.24,2.24,0,0,1,1.48-2.81h0a2.26,2.26,0,0,1,2.81,1.48h0a2.25,2.25,0,0,1-1.49,2.81h0A2.51,2.51,0,0,1,107.74,132Zm-41-1.39h0a2.33,2.33,0,0,1-.81-.16h0a2.24,2.24,0,0,1-1.29-2.9h0a2.26,2.26,0,0,1,2.9-1.29h0a2.25,2.25,0,0,1-.8,4.35ZM115.55,129h0a2.23,2.23,0,0,1-2-1.3h0a2.23,2.23,0,0,1,1.08-3h0a2.24,2.24,0,0,1,3,1.09h0a2.25,2.25,0,0,1-2,3.19Zm-56.43-1.92h0A2.23,2.23,0,0,1,58,126.8h0a2.25,2.25,0,0,1-.88-3h0a2.24,2.24,0,0,1,3-.88h0a2.24,2.24,0,0,1-1.08,4.21ZM122.89,125h0a2.24,2.24,0,0,1-1.9-1h0a2.24,2.24,0,0,1,.69-3.1h0a2.24,2.24,0,0,1,3.1.69h0a2.24,2.24,0,0,1-.69,3.09h0A2.2,2.2,0,0,1,122.89,125Zm-70.81-2.4h0a2.2,2.2,0,0,1-1.33-.43h0a2.24,2.24,0,0,1-.47-3.14h0a2.24,2.24,0,0,1,3.14-.47h0a2.24,2.24,0,0,1-1.34,4ZM129.62,120h0a2.27,2.27,0,0,1-1.72-.79h0a2.24,2.24,0,0,1,.27-3.16h0a2.25,2.25,0,0,1,3.16.27h0a2.25,2.25,0,0,1-.26,3.16A2.22,2.22,0,0,1,129.62,120ZM45.7,117.17h0a2.25,2.25,0,0,1-1.56-.63h0a2.24,2.24,0,0,1,0-3.17h0a2.24,2.24,0,0,1,3.17-.05h0a2.23,2.23,0,0,1,.05,3.17A2.19,2.19,0,0,1,45.7,117.17Zm89.93-3h0a2.24,2.24,0,0,1-1.51-.58h0a2.22,2.22,0,0,1-.15-3.16h0a2.24,2.24,0,0,1,3.17-.16h0a2.24,2.24,0,0,1-1.51,3.9ZM40.1,111h0a2.24,2.24,0,0,1-1.77-.85h0A2.24,2.24,0,0,1,38.7,107h0a2.23,2.23,0,0,1,3.15.37h0A2.23,2.23,0,0,1,40.1,111Zm100.72-3.32h0a2.28,2.28,0,0,1-1.27-.39h0a2.26,2.26,0,0,1-.58-3.13h0a2.26,2.26,0,0,1,3.12-.57h0a2.24,2.24,0,0,1-1.27,4.09ZM35.36,104.08h0a2.25,2.25,0,0,1-1.94-1.1h0a2.24,2.24,0,0,1,.79-3.07h0a2.23,2.23,0,0,1,3.07.78h0a2.24,2.24,0,0,1-1.92,3.39Zm109.73-3.61h0a2.16,2.16,0,0,1-1-.25h0a2.23,2.23,0,0,1-1-3h0a2.26,2.26,0,0,1,3-1h0a2.25,2.25,0,0,1-1,4.25ZM31.58,96.62h0a2.23,2.23,0,0,1-2.07-1.37h0a2.24,2.24,0,0,1,1.19-2.94h0a2.23,2.23,0,0,1,2.94,1.18h0a2.26,2.26,0,0,1-1.19,3A2.22,2.22,0,0,1,31.58,96.62Zm116.79-3.84h0a2.1,2.1,0,0,1-.74-.13h0a2.24,2.24,0,0,1-1.38-2.85h0a2.24,2.24,0,0,1,2.85-1.39h0a2.25,2.25,0,0,1-.73,4.37ZM28.83,88.71h0a2.24,2.24,0,0,1-2.16-1.65h0a2.25,2.25,0,0,1,1.57-2.76h0A2.26,2.26,0,0,1,31,85.88h0a2.25,2.25,0,0,1-1.58,2.75A2,2,0,0,1,28.83,88.71Zm121.75-4h0a2.35,2.35,0,0,1-.45,0h0A2.25,2.25,0,0,1,148.38,82h0A2.25,2.25,0,0,1,151,80.27h0a2.25,2.25,0,0,1,1.75,2.65h0A2.24,2.24,0,0,1,150.58,84.71ZM27.17,80.52h0a2.24,2.24,0,0,1-2.22-2h0a2.24,2.24,0,0,1,1.93-2.52h0A2.24,2.24,0,0,1,29.4,78h0a2.25,2.25,0,0,1-1.93,2.52ZM151.7,76.43h-.16A2.25,2.25,0,0,1,149.45,74h0a2.26,2.26,0,0,1,2.39-2.09h0a2.25,2.25,0,0,1-.14,4.49ZM26.63,72.17h0a2.24,2.24,0,0,1-2.25-2.24h0v-.07h0v-.07h0a2.24,2.24,0,0,1,2.25-2.24h0a2.24,2.24,0,0,1,2.24,2.25h0v.06h0v.07A2.24,2.24,0,0,1,26.63,72.17ZM151.7,68.06h0A2.25,2.25,0,0,1,149.46,66h0a2.23,2.23,0,0,1,2.1-2.38h0a2.23,2.23,0,0,1,2.38,2.09h0a2.25,2.25,0,0,1-2.09,2.38ZM27.19,63.7h0a1.51,1.51,0,0,1-.3,0h0A2.25,2.25,0,0,1,25,61.15h0a2.26,2.26,0,0,1,2.53-1.92h0a2.25,2.25,0,0,1-.31,4.47ZM150.6,59.78h0a2.25,2.25,0,0,1-2.19-1.8h0a2.25,2.25,0,0,1,1.75-2.65h0a2.25,2.25,0,0,1,2.65,1.76h0a2.24,2.24,0,0,1-1.76,2.64A2.3,2.3,0,0,1,150.6,59.78ZM28.87,55.51h0a2.06,2.06,0,0,1-.6-.08h0a2.25,2.25,0,0,1-1.56-2.76h0a2.24,2.24,0,0,1,2.76-1.57h0a2.25,2.25,0,0,1-.6,4.41ZM148.41,51.7h0a2.24,2.24,0,0,1-2.12-1.51h0a2.24,2.24,0,0,1,1.39-2.85h0a2.23,2.23,0,0,1,2.85,1.39h0a2.24,2.24,0,0,1-1.38,2.85A2.39,2.39,0,0,1,148.41,51.7ZM31.63,47.62h0a2.32,2.32,0,0,1-.89-.18h0a2.26,2.26,0,0,1-1.18-2.95h0a2.25,2.25,0,0,1,2.95-1.18h0a2.25,2.25,0,0,1-.88,4.31ZM145.15,44h0a2.23,2.23,0,0,1-2-1.23h0a2.24,2.24,0,0,1,1-3h0a2.25,2.25,0,0,1,3,1h0a2.25,2.25,0,0,1-2,3.26ZM35.41,40.17h0a2.2,2.2,0,0,1-1.15-.32h0a2.23,2.23,0,0,1-.77-3.07h0A2.24,2.24,0,0,1,36.56,36h0a2.24,2.24,0,0,1,.78,3.08h0A2.24,2.24,0,0,1,35.41,40.17ZM140.89,36.8h0a2.26,2.26,0,0,1-1.85-1h0a2.26,2.26,0,0,1,.58-3.13h0a2.24,2.24,0,0,1,3.12.59h0a2.25,2.25,0,0,1-1.85,3.51ZM40.16,33.29h0a2.25,2.25,0,0,1-1.39-.48h0a2.26,2.26,0,0,1-.37-3.16h0a2.24,2.24,0,0,1,3.15-.36h0a2.24,2.24,0,0,1-1.39,4Zm95.55-3.06h0a2.23,2.23,0,0,1-1.66-.74h0a2.22,2.22,0,0,1,.16-3.16h0a2.24,2.24,0,0,1,3.17.15h0a2.25,2.25,0,0,1-1.67,3.75ZM45.78,27.1h0a2.24,2.24,0,0,1-1.61-.68h0a2.25,2.25,0,0,1,0-3.18h0a2.25,2.25,0,0,1,3.18.06h0a2.25,2.25,0,0,1-1.62,3.8Zm83.93-2.68h0a2.21,2.21,0,0,1-1.45-.54h0a2.24,2.24,0,0,1-.26-3.16h0a2.23,2.23,0,0,1,3.16-.26h0a2.25,2.25,0,0,1-1.45,4ZM52.18,21.71h0a2.26,2.26,0,0,1-1.81-.91h0a2.24,2.24,0,0,1,.48-3.14h0a2.22,2.22,0,0,1,3.13.48h0a2.24,2.24,0,0,1-1.8,3.57ZM123,19.44h0a2.21,2.21,0,0,1-1.21-.35h0a2.24,2.24,0,0,1-.68-3.1h0a2.24,2.24,0,0,1,3.1-.68h0A2.24,2.24,0,0,1,123,19.44ZM59.23,17.21h0a2.25,2.25,0,0,1-2-1.16h0A2.25,2.25,0,0,1,58.15,13h0a2.25,2.25,0,0,1,3.05.89h0a2.25,2.25,0,0,1-.9,3.05A2.3,2.3,0,0,1,59.23,17.21Zm56.44-1.8h0a2.3,2.3,0,0,1-1-.21h0a2.24,2.24,0,0,1-1.08-3h0a2.24,2.24,0,0,1,3-1.09h0a2.25,2.25,0,0,1-1,4.28ZM66.82,13.7h0a2.26,2.26,0,0,1-2.1-1.44h0A2.25,2.25,0,0,1,66,9.36h0a2.25,2.25,0,0,1,2.91,1.29h0a2.25,2.25,0,0,1-1.3,2.9h0A2.22,2.22,0,0,1,66.82,13.7Zm41.05-1.3h0a2.17,2.17,0,0,1-.66-.11h0a2.24,2.24,0,0,1-1.48-2.81h0A2.24,2.24,0,0,1,108.54,8h0a2.25,2.25,0,0,1-.67,4.39ZM74.81,11.24h0a2.26,2.26,0,0,1-2.18-1.73h0a2.24,2.24,0,0,1,1.67-2.7h0A2.24,2.24,0,0,1,77,8.48h0a2.23,2.23,0,0,1-1.67,2.69A1.86,1.86,0,0,1,74.81,11.24Zm24.93-.79h0a2.31,2.31,0,0,1-.37,0h0a2.25,2.25,0,0,1-1.84-2.59h0A2.24,2.24,0,0,1,100.12,6h0a2.25,2.25,0,0,1-.38,4.46ZM83.06,9.87h0a2.24,2.24,0,0,1-2.23-2h0a2.24,2.24,0,0,1,2-2.45h0a2.25,2.25,0,0,1,2.45,2h0a2.25,2.25,0,0,1-2,2.45Zm8.36-.26h-.08a2.25,2.25,0,0,1-2.16-2.33h0A2.24,2.24,0,0,1,91.5,5.12h0a2.25,2.25,0,0,1-.08,4.49Z"/><path class="cls-3" d="M13.57,70.85a1.81,1.81,0,0,1,1.62-2h0a1.8,1.8,0,0,1,2,1.62h0a1.8,1.8,0,0,1-1.61,2h0l-.18,0h0A1.82,1.82,0,0,1,13.57,70.85Z"/><path class="cls-3" d="M19.24,69a1.8,1.8,0,0,1,1.35-2.17h0a1.81,1.81,0,0,1,2.17,1.34h0a1.8,1.8,0,0,1-1.34,2.17h0a2,2,0,0,1-.42,0h0A1.81,1.81,0,0,1,19.24,69Z"/><path class="cls-3" d="M25.74,67.21a1.79,1.79,0,0,1,1-2.33h0a1.8,1.8,0,0,1,2.33,1h0a1.8,1.8,0,0,1-1,2.33h0a1.64,1.64,0,0,1-.65.13h0A1.81,1.81,0,0,1,25.74,67.21Z"/><path class="cls-3" d="M31.94,64.59a1.8,1.8,0,0,1,.71-2.45h0a1.82,1.82,0,0,1,2.45.72h0a1.81,1.81,0,0,1-.71,2.45h0a1.84,1.84,0,0,1-.87.22h0A1.79,1.79,0,0,1,31.94,64.59Z"/><path class="cls-3" d="M37.73,61.17a1.8,1.8,0,0,1,.38-2.52h0a1.8,1.8,0,0,1,2.52.38h0a1.79,1.79,0,0,1-.38,2.52h0a1.7,1.7,0,0,1-1.07.35h0A1.79,1.79,0,0,1,37.73,61.17Z"/><path class="cls-3" d="M43,57a1.79,1.79,0,0,1,0-2.55h0a1.8,1.8,0,0,1,2.55,0h0a1.8,1.8,0,0,1,0,2.55h0a1.81,1.81,0,0,1-1.26.51h0A1.76,1.76,0,0,1,43,57Z"/><path class="cls-3" d="M47.71,52.18a1.79,1.79,0,0,1-.3-2.53h0a1.81,1.81,0,0,1,2.54-.3h0a1.81,1.81,0,0,1,.29,2.54h0a1.78,1.78,0,0,1-1.42.68h0A1.75,1.75,0,0,1,47.71,52.18Z"/><path class="cls-3" d="M51.72,46.78a1.81,1.81,0,0,1-.63-2.48h0a1.81,1.81,0,0,1,2.47-.63h0a1.81,1.81,0,0,1,.63,2.48h0a1.8,1.8,0,0,1-1.55.88h0A1.79,1.79,0,0,1,51.72,46.78Z"/><path class="cls-3" d="M55,40.88A1.8,1.8,0,0,1,54,38.51h0a1.8,1.8,0,0,1,2.36-.95h0a1.81,1.81,0,0,1,1,2.37h0A1.81,1.81,0,0,1,55.68,41h0A1.76,1.76,0,0,1,55,40.88Z"/><path class="cls-3" d="M57.41,34.6a1.8,1.8,0,0,1-1.27-2.21h0a1.82,1.82,0,0,1,2.22-1.27h0a1.8,1.8,0,0,1,1.26,2.22h0a1.79,1.79,0,0,1-1.74,1.33h0A1.58,1.58,0,0,1,57.41,34.6Z"/><path class="cls-3" d="M59,28.06a1.8,1.8,0,0,1-1.55-2h0a1.81,1.81,0,0,1,2-1.55h0a1.81,1.81,0,0,1,1.56,2h0a1.82,1.82,0,0,1-1.79,1.57h0Z"/><path class="cls-3" d="M57.85,19.56s0,0,0-.06h0s0,0,0,0h0a1.81,1.81,0,0,1,1.81-1.81h0a1.79,1.79,0,0,1,1.8,1.8h0v.05h0v.06h0a1.79,1.79,0,0,1-1.8,1.8h0A1.8,1.8,0,0,1,57.85,19.56Z"/><path class="cls-4" d="M83.92,102.91l-5.87-19h-31l6.13,18.88Z"/><polygon class="cls-5" points="86.02 103.5 51.69 103.5 51.69 101.57 85.42 101.57 86.02 103.5"/><polygon class="cls-6" points="55.3 104.16 20.97 104.16 20.97 101.57 55.29 101.57 55.3 104.16"/><path class="cls-5" d="M85.85,102.91,80,83.86h-2.1L84,102.74S86.1,102.91,85.85,102.91Z"/><path class="cls-5" d="M106,17.49h4.35A10.72,10.72,0,0,1,121.07,28.2V76.76a10.72,10.72,0,0,1-10.72,10.72H106a0,0,0,0,1,0,0v-70A0,0,0,0,1,106,17.49Z"/><rect class="cls-6" x="9.95" y="17.49" width="105.15" height="69.99" rx="11.5" ry="11.5"/><circle class="cls-7" cx="62.25" cy="81.01" r="2.32"/><rect class="cls-8" x="64.17" y="28.1" width="32.84" height="2.36"/><rect class="cls-8" x="64.17" y="33.77" width="32.84" height="2.36"/><rect class="cls-8" x="64.17" y="39.45" width="32.84" height="2.36"/><rect class="cls-8" x="64.17" y="45.13" width="32.84" height="2.36"/><rect class="cls-9" x="23.09" y="67.61" width="3.32" height="2.97"/><rect class="cls-9" x="29.4" y="63.92" width="3.32" height="6.66"/><rect class="cls-8" x="35.72" y="64.78" width="3.32" height="5.8"/><rect class="cls-9" x="42.04" y="61.32" width="3.32" height="9.26"/><rect class="cls-8" x="48.36" y="58.42" width="3.32" height="12.16"/><rect class="cls-8" x="54.68" y="60.38" width="3.32" height="10.21"/><rect class="cls-8" x="61" y="62.11" width="3.32" height="8.47"/><rect class="cls-9" x="67.32" y="59.3" width="3.32" height="11.28"/><rect class="cls-8" x="73.64" y="58.42" width="3.32" height="12.16"/><rect class="cls-9" x="79.96" y="65.17" width="3.32" height="5.41"/><polygon class="cls-2" points="120.7 66.66 115.49 62.9 110.28 66.66 105.06 62.9 99.85 66.66 93.71 62.25 95.54 59.71 99.85 62.8 105.07 59.05 110.28 62.8 115.49 59.05 120.7 62.8 125.9 59.05 131.11 62.8 136.32 59.05 142.44 63.46 140.61 66 136.32 62.9 131.11 66.66 125.9 62.9 120.7 66.66"/><polygon class="cls-2" points="120.7 75.25 115.49 71.5 110.28 75.25 105.06 71.5 99.85 75.25 93.71 70.84 95.54 68.31 99.85 71.4 105.07 67.65 110.28 71.4 115.49 67.65 120.7 71.4 125.9 67.65 131.11 71.4 136.32 67.65 142.44 72.06 140.61 74.6 136.32 71.5 131.11 75.25 125.9 71.5 120.7 75.25"/><polygon class="cls-2" points="120.7 83.85 115.49 80.1 110.28 83.85 105.06 80.1 99.85 83.85 93.71 79.44 95.54 76.9 99.85 80 105.07 76.25 110.28 80 115.49 76.25 120.7 80 125.9 76.25 131.11 80 136.32 76.25 142.44 80.66 140.61 83.19 136.32 80.1 131.11 83.85 125.9 80.1 120.7 83.85"/><path class="cls-9" d="M21.81,35.13l5.45-3.44v-.16L21.81,28.1V24.69l9,5.9v2l-9,6Z"/><path class="cls-9" d="M33.88,42.86V40.05H45.23v2.81Z"/><rect class="cls-5" x="8.98" y="79.67" width="40.13" height="27.66" transform="translate(58.09 187.01) rotate(-180)"/><rect class="cls-2" x="5.11" y="75.66" width="40.13" height="27.66" transform="translate(50.35 178.98) rotate(-180)"/><rect class="cls-4" x="9.24" y="86.54" width="22.54" height="2.1"/><rect class="cls-4" x="9.24" y="90.71" width="16.25" height="2.1"/><rect class="cls-9" x="9.24" y="80.88" width="16.49" height="2.61"/><rect class="cls-5" x="9.24" y="95.63" width="31.99" height="2.1"/></g></svg>