<svg xmlns="http://www.w3.org/2000/svg" xmlns:xlink="http://www.w3.org/1999/xlink" viewBox="0 0 118.97 122.71"><defs><style>.cls-1,.cls-14,.cls-2{fill:#3151b7;}.cls-1{clip-rule:evenodd;}.cls-3{fill:#d2d6f5;}.cls-4{fill:#89a2f6;}.cls-5{fill:#ed8280;}.cls-6{fill:#001c59;}.cls-12,.cls-7{fill:#252e6a;}.cls-7{opacity:0.85;}.cls-8{fill:#fff;}.cls-9{fill:#c8daf4;opacity:0.58;}.cls-10{fill:#d1d7f4;}.cls-11{fill:#b0bef3;}.cls-12{opacity:0.86;}.cls-13{fill:#f8fafa;}.cls-14{fill-rule:evenodd;}.cls-15{clip-path:url(#clip-path);}.cls-16{clip-path:url(#clip-path-2);}</style><clipPath id="clip-path"><polygon class="cls-1" points="72.62 81.41 89.2 71.83 89.2 59.87 80.91 64.65 80.91 62.26 72.62 67.05 72.62 81.41"/></clipPath><clipPath id="clip-path-2"><polygon class="cls-2" points="72.62 81.41 89.2 71.83 89.2 57.47 72.62 67.05 72.62 81.41"/></clipPath></defs><title>Docs Icon 1</title><g id="Docs_Icon_1" data-name="Docs Icon 1"><rect class="cls-3" x="-20.52" y="-17.09" width="160" height="160"/><path class="cls-4" d="M14.44,120.22a1.09,1.09,0,0,1-1-1.11h0a1.08,1.08,0,0,1,1.12-1h0a1.07,1.07,0,0,1,1,1.11h0a1.08,1.08,0,0,1-1.08,1h0Zm3-1.1a1.08,1.08,0,0,1,1-1.18h0a1.08,1.08,0,0,1,1.18,1h0a1.08,1.08,0,0,1-1,1.18h-.11A1.09,1.09,0,0,1,17.41,119.12Zm-7.11.69h0a1.08,1.08,0,0,1-.89-1.24h0a1.07,1.07,0,0,1,1.24-.88h0a1.07,1.07,0,0,1,.89,1.23h0a1.06,1.06,0,0,1-1.06.9H10.3Zm11.1-1.22a1.06,1.06,0,0,1,.8-1.29h0a1.08,1.08,0,0,1,1.3.79h0a1.09,1.09,0,0,1-.81,1.3h0a1,1,0,0,1-.24,0h0A1.07,1.07,0,0,1,21.4,118.59Zm-15.15.26h0a1.07,1.07,0,0,1-.71-1.35h0a1.09,1.09,0,0,1,1.35-.71h0a1.08,1.08,0,0,1,.71,1.35h0a1.08,1.08,0,0,1-1,.76h0A1.19,1.19,0,0,1,6.25,118.85Zm19-1.31a1.07,1.07,0,0,1,.61-1.39h0a1.08,1.08,0,0,1,1.4.62h0a1.09,1.09,0,0,1-.62,1.39h0a1.07,1.07,0,0,1-.39.07h0A1.06,1.06,0,0,1,25.28,117.54Zm-22.91-.18a1.08,1.08,0,0,1-.53-1.43h0a1.08,1.08,0,0,1,1.43-.53h0a1.08,1.08,0,0,1,.53,1.43h0a1.08,1.08,0,0,1-1,.63h0A1,1,0,0,1,2.37,117.36ZM29,116a1.07,1.07,0,0,1,.42-1.46h0a1.07,1.07,0,0,1,1.46.42h0a1.07,1.07,0,0,1-.42,1.46h0a1,1,0,0,1-.52.14h0A1.08,1.08,0,0,1,29,116Zm-30.26-.62h0a1.07,1.07,0,0,1-.33-1.49h0a1.08,1.08,0,0,1,1.49-.33h0A1.07,1.07,0,0,1,.2,115h0a1.07,1.07,0,0,1-.91.5h0A1.11,1.11,0,0,1-1.28,115.36Zm33.71-1.42a1.08,1.08,0,0,1,.23-1.51h0a1.08,1.08,0,0,1,1.51.23h0a1.07,1.07,0,0,1-.23,1.5h0a1,1,0,0,1-.64.21h0A1.1,1.1,0,0,1,32.43,113.94Zm-37.06-1a1.07,1.07,0,0,1-.13-1.52h0a1.09,1.09,0,0,1,1.52-.13h0a1.08,1.08,0,0,1,.13,1.51h0a1.1,1.1,0,0,1-.83.38h0A1.07,1.07,0,0,1-4.63,112.89Zm40.22-1.44a1.08,1.08,0,0,1,0-1.52h0a1.08,1.08,0,0,1,1.53,0h0a1.09,1.09,0,0,1,0,1.53h0a1.08,1.08,0,0,1-.75.3h0A1.06,1.06,0,0,1,35.59,111.45ZM-7.63,110a1.09,1.09,0,0,1,.08-1.52h0a1.08,1.08,0,0,1,1.52.07h0a1.09,1.09,0,0,1-.07,1.53h0a1.11,1.11,0,0,1-.72.27h0A1.08,1.08,0,0,1-7.63,110Zm46-1.43a1.08,1.08,0,0,1-.18-1.52h0a1.09,1.09,0,0,1,1.52-.17h0a1.08,1.08,0,0,1,.17,1.51h0a1.06,1.06,0,0,1-.84.41h0A1.07,1.07,0,0,1,38.39,108.57Zm-48.59-1.83a1.08,1.08,0,0,1,.27-1.5h0a1.08,1.08,0,0,1,1.5.28h0a1.08,1.08,0,0,1-.28,1.5h0a1.12,1.12,0,0,1-.61.19h0A1.07,1.07,0,0,1-10.2,106.74Zm51-1.4a1.08,1.08,0,0,1-.38-1.48h0a1.06,1.06,0,0,1,1.47-.37h0a1.06,1.06,0,0,1,.38,1.47h0a1.08,1.08,0,0,1-.93.53h0A1.08,1.08,0,0,1,40.79,105.34Zm-53.12-2.17a1.08,1.08,0,0,1,.47-1.45h0a1.08,1.08,0,0,1,1.45.47h0a1.08,1.08,0,0,1-.47,1.45h0a1.11,1.11,0,0,1-.49.12h0A1.09,1.09,0,0,1-12.33,103.17Zm55.06-1.35a1.07,1.07,0,0,1-.57-1.41h0a1.06,1.06,0,0,1,1.41-.57h0a1.07,1.07,0,0,1,.57,1.41h0a1.07,1.07,0,0,1-1,.66h0A1.06,1.06,0,0,1,42.73,101.82ZM-14,99.34A1.08,1.08,0,0,1-13.3,98h0a1.09,1.09,0,0,1,1.38.66h0a1.08,1.08,0,0,1-.67,1.37h0a1,1,0,0,1-.35.06h0A1.08,1.08,0,0,1-14,99.34Zm58.14-1.27a1.07,1.07,0,0,1-.75-1.32h0A1.08,1.08,0,0,1,44.75,96h0a1.09,1.09,0,0,1,.76,1.33h0a1.08,1.08,0,0,1-1,.79h0A1,1,0,0,1,44.18,98.07Zm-59.24-2.74h0a1.07,1.07,0,0,1,.84-1.27h0a1.07,1.07,0,0,1,1.27.84h0a1.08,1.08,0,0,1-.84,1.27h0l-.22,0h0A1.07,1.07,0,0,1-15.06,95.33Zm60.18-1.16A1.09,1.09,0,0,1,44.19,93h0A1.09,1.09,0,0,1,45.4,92h0a1.07,1.07,0,0,1,.93,1.21h0a1.08,1.08,0,0,1-1.07.94h-.14Zm-60.74-3a1.07,1.07,0,0,1,1-1.14h0a1.09,1.09,0,0,1,1.15,1h0a1.09,1.09,0,0,1-1,1.15h-.07A1.09,1.09,0,0,1-15.62,91.2Zm60.07-2.11v0h0v0h0A1.07,1.07,0,0,1,45.52,88h0A1.07,1.07,0,0,1,46.6,89h0v0h0v0h0a1.07,1.07,0,0,1-1.07,1.08h0A1.08,1.08,0,0,1,44.45,89.09Zm-59.06-.9a1.07,1.07,0,0,1-1-1.14h0a1.07,1.07,0,0,1,1.14-1h0a1.08,1.08,0,0,1,1,1.15h0a1.07,1.07,0,0,1-1.07,1h-.07Zm58.8-3A1.08,1.08,0,0,1,45.11,84h0a1.08,1.08,0,0,1,1.21.93h0a1.07,1.07,0,0,1-.92,1.21h-.15A1.07,1.07,0,0,1,44.19,85.17Zm-58.42-1a1.08,1.08,0,0,1-.85-1.27h0a1.08,1.08,0,0,1,1.27-.84h0A1.08,1.08,0,0,1-13,83.35h0a1.09,1.09,0,0,1-1.06.86h0A.75.75,0,0,1-14.23,84.19Zm57.64-2.82a1.07,1.07,0,0,1,.75-1.32h0a1.08,1.08,0,0,1,1.33.75h0a1.09,1.09,0,0,1-.75,1.33h0a1.43,1.43,0,0,1-.29,0h0A1.08,1.08,0,0,1,43.41,81.37Zm-56.73-1.09A1.07,1.07,0,0,1-14,78.91h0a1.07,1.07,0,0,1,1.37-.67h0a1.07,1.07,0,0,1,.66,1.37h0a1.07,1.07,0,0,1-1,.73h0A1.13,1.13,0,0,1-13.32,80.28Zm55.45-2.56a1.09,1.09,0,0,1,.57-1.42h0a1.09,1.09,0,0,1,1.42.57h0a1.09,1.09,0,0,1-.57,1.42h0a1,1,0,0,1-.42.08h0A1.09,1.09,0,0,1,42.13,77.72Zm-54-1.2a1.08,1.08,0,0,1-.48-1.45h0a1.08,1.08,0,0,1,1.45-.47h0A1.06,1.06,0,0,1-10.44,76h0a1.07,1.07,0,0,1-1,.6h0A1,1,0,0,1-11.88,76.52Zm52.26-2.25h0a1.08,1.08,0,0,1,.38-1.48h0a1.08,1.08,0,0,1,1.47.38h0a1.06,1.06,0,0,1-.37,1.47h0a1,1,0,0,1-.55.16h0A1.08,1.08,0,0,1,40.38,74.27ZM-10,73a1.08,1.08,0,0,1-.28-1.5h0a1.09,1.09,0,0,1,1.5-.28h0a1.09,1.09,0,0,1,.28,1.5h0a1.1,1.1,0,0,1-.89.47h0A1,1,0,0,1-10,73Zm48.14-1.91a1.07,1.07,0,0,1,.18-1.51h0a1.07,1.07,0,0,1,1.51.18h0a1.08,1.08,0,0,1-.17,1.51h0a1.07,1.07,0,0,1-.67.23h0A1.09,1.09,0,0,1,38.18,71.08ZM-7.59,69.75a1.09,1.09,0,0,1-.07-1.53h0a1.07,1.07,0,0,1,1.52-.07h0a1.08,1.08,0,0,1,.07,1.52h0a1.07,1.07,0,0,1-.79.35h0A1.12,1.12,0,0,1-7.59,69.75Zm43.17-1.53a1.07,1.07,0,0,1,0-1.52h0a1.08,1.08,0,0,1,1.53,0h0a1.07,1.07,0,0,1,0,1.52h0a1.06,1.06,0,0,1-.77.33h0A1.08,1.08,0,0,1,35.58,68.22ZM-4.8,66.85a1.08,1.08,0,0,1,.12-1.52h0a1.08,1.08,0,0,1,1.52.12h0A1.08,1.08,0,0,1-3.28,67h0a1.05,1.05,0,0,1-.7.26h0A1.06,1.06,0,0,1-4.8,66.85Zm37.42-1.13a1.07,1.07,0,0,1-.23-1.5h0a1.06,1.06,0,0,1,1.5-.23h0a1.06,1.06,0,0,1,.23,1.5h0a1.06,1.06,0,0,1-.87.44h0A1.06,1.06,0,0,1,32.62,65.72ZM-1.66,64.35a1.07,1.07,0,0,1,.33-1.49h0a1.07,1.07,0,0,1,1.48.32h0a1.08,1.08,0,0,1-.32,1.49h0a1,1,0,0,1-.58.17h0A1.08,1.08,0,0,1-1.66,64.35Zm31-.71a1.08,1.08,0,0,1-.43-1.46h0a1.07,1.07,0,0,1,1.46-.43h0a1.08,1.08,0,0,1,.43,1.46h0a1.08,1.08,0,0,1-.95.56h0A1.08,1.08,0,0,1,29.35,63.64ZM1.79,62.28a1.07,1.07,0,0,1,.51-1.43h0a1.08,1.08,0,0,1,1.44.52h0a1.07,1.07,0,0,1-.52,1.43h0a1.11,1.11,0,0,1-.46.11h0A1.06,1.06,0,0,1,1.79,62.28ZM25.84,62h0a1.07,1.07,0,0,1-.62-1.39h0A1.08,1.08,0,0,1,26.61,60h0a1.08,1.08,0,0,1,.62,1.39h0a1.08,1.08,0,0,1-1,.69h0A1.06,1.06,0,0,1,25.84,62ZM5.48,60.7a1.08,1.08,0,0,1,.71-1.35h0a1.06,1.06,0,0,1,1.34.71h0a1.08,1.08,0,0,1-.7,1.35h0a1.25,1.25,0,0,1-.32.05h0A1.08,1.08,0,0,1,5.48,60.7Zm16.65.17a1.08,1.08,0,0,1-.8-1.29h0a1.09,1.09,0,0,1,1.3-.81h0a1.08,1.08,0,0,1,.8,1.3h0a1.08,1.08,0,0,1-1.05.83h0ZM9.35,59.62a1.08,1.08,0,0,1,.88-1.24h0a1.09,1.09,0,0,1,1.25.89h0a1.09,1.09,0,0,1-.89,1.24h-.18A1.08,1.08,0,0,1,9.35,59.62Zm9,.62a1.07,1.07,0,0,1-1-1.18h0a1.09,1.09,0,0,1,1.18-1h0a1.08,1.08,0,0,1,1,1.18h0a1.07,1.07,0,0,1-1.07,1h-.1Zm-5-1.16a1.08,1.08,0,0,1,1-1.12h0a1.08,1.08,0,0,1,1.11,1h0a1.08,1.08,0,0,1-1,1.12h0A1.08,1.08,0,0,1,13.33,59.08Z"/><path class="cls-4" d="M92.38,89.72a1.07,1.07,0,0,1-1-1.11h0a1.07,1.07,0,0,1,1.11-1h0a1.07,1.07,0,0,1,1,1.11h0a1.07,1.07,0,0,1-1.07,1h0Zm3-1.1a1.08,1.08,0,0,1,1-1.18h0a1.08,1.08,0,0,1,1.18,1h0a1.07,1.07,0,0,1-1,1.18h-.11A1.07,1.07,0,0,1,95.36,88.62Zm-7.12.69h0a1.06,1.06,0,0,1-.88-1.24h0a1.08,1.08,0,0,1,1.24-.88h0a1.08,1.08,0,0,1,.88,1.24h0a1.06,1.06,0,0,1-1.06.9h0A.55.55,0,0,1,88.24,89.31Zm11.1-1.21a1.08,1.08,0,0,1,.8-1.3h0a1.08,1.08,0,0,1,1.3.8h0a1.06,1.06,0,0,1-.8,1.29h0l-.25,0h0A1.08,1.08,0,0,1,99.34,88.1Zm-15.15.26h0A1.08,1.08,0,0,1,83.48,87h0a1.08,1.08,0,0,1,1.35-.71h0a1.07,1.07,0,0,1,.71,1.35h0a1.07,1.07,0,0,1-1,.75h0A1.22,1.22,0,0,1,84.19,88.36Zm19-1.32a1.08,1.08,0,0,1,.62-1.39h0a1.08,1.08,0,0,1,1.39.62h0a1.07,1.07,0,0,1-.62,1.39h0a1.07,1.07,0,0,1-.39.07h0A1.06,1.06,0,0,1,103.22,87Zm-22.91-.18a1.08,1.08,0,0,1-.53-1.43h0a1.09,1.09,0,0,1,1.44-.52h0a1.07,1.07,0,0,1,.52,1.43h0a1.08,1.08,0,0,1-1,.62h0A1,1,0,0,1,80.31,86.86Zm26.61-1.38a1.07,1.07,0,0,1,.42-1.46h0a1.08,1.08,0,0,1,1.47.42h0a1.09,1.09,0,0,1-.43,1.47h0a1.06,1.06,0,0,1-.52.13h0A1.06,1.06,0,0,1,106.92,85.48Zm-30.26-.62h0a1.08,1.08,0,0,1-.33-1.49h0A1.08,1.08,0,0,1,77.82,83h0a1.08,1.08,0,0,1,.33,1.49h0a1.1,1.1,0,0,1-.91.5h0A1.12,1.12,0,0,1,76.66,84.86Zm33.72-1.42a1.07,1.07,0,0,1,.22-1.51h0a1.08,1.08,0,0,1,1.51.23h0a1.08,1.08,0,0,1-.23,1.51h0a1.07,1.07,0,0,1-.64.21h0A1.05,1.05,0,0,1,110.38,83.44Zm-37.07-1a1.08,1.08,0,0,1-.13-1.51h0a1.07,1.07,0,0,1,1.52-.13h0a1.08,1.08,0,0,1,.13,1.52h0a1.08,1.08,0,0,1-.82.38h0A1.08,1.08,0,0,1,73.31,82.39ZM113.53,81a1.09,1.09,0,0,1,0-1.53h0a1.07,1.07,0,0,1,1.52,0h0a1.07,1.07,0,0,1,0,1.52h0a1.08,1.08,0,0,1-.75.3h0A1.11,1.11,0,0,1,113.53,81ZM70.32,79.5A1.08,1.08,0,0,1,70.39,78h0a1.09,1.09,0,0,1,1.53.08h0a1.08,1.08,0,0,1-.08,1.52h0a1.09,1.09,0,0,1-.72.28h0A1.07,1.07,0,0,1,70.32,79.5Zm46-1.43a1.08,1.08,0,0,1-.17-1.51h0a1.07,1.07,0,0,1,1.51-.18h0a1.08,1.08,0,0,1,.18,1.52h0a1.1,1.1,0,0,1-.85.4h0A1.07,1.07,0,0,1,116.33,78.07ZM67.74,76.24A1.06,1.06,0,0,1,68,74.75h0a1.08,1.08,0,0,1,1.5.27h0a1.08,1.08,0,0,1-.27,1.5h0a1.07,1.07,0,0,1-.61.19h0A1.06,1.06,0,0,1,67.74,76.24Zm51-1.39a1.09,1.09,0,0,1-.38-1.48h0a1.09,1.09,0,0,1,1.48-.38h0a1.08,1.08,0,0,1,.37,1.48h0a1.07,1.07,0,0,1-.92.53h0A1.08,1.08,0,0,1,118.73,74.85ZM65.61,72.67a1.08,1.08,0,0,1,.47-1.45h0a1.08,1.08,0,0,1,1.45.48h0a1.06,1.06,0,0,1-.47,1.44h0a1,1,0,0,1-.49.12h0A1.07,1.07,0,0,1,65.61,72.67Zm55.06-1.34a1.09,1.09,0,0,1-.57-1.42h0a1.08,1.08,0,0,1,1.41-.57h0a1.08,1.08,0,0,1,.58,1.41h0a1.08,1.08,0,0,1-1,.66h0A1.25,1.25,0,0,1,120.67,71.33ZM64,68.84a1.08,1.08,0,0,1,.67-1.37h0a1.08,1.08,0,0,1,1.37.66h0a1.09,1.09,0,0,1-.66,1.38h0a1.13,1.13,0,0,1-.36.06h0A1.09,1.09,0,0,1,64,68.84Zm58.15-1.26a1.08,1.08,0,0,1-.76-1.33h0a1.07,1.07,0,0,1,1.32-.75h0a1.07,1.07,0,0,1,.76,1.32h0a1.08,1.08,0,0,1-1,.79h0A1.33,1.33,0,0,1,122.13,67.58ZM62.88,64.83h0a1.08,1.08,0,0,1,.84-1.27h0A1.07,1.07,0,0,1,65,64.4h0a1.07,1.07,0,0,1-.84,1.27h0a.75.75,0,0,1-.21,0h0A1.08,1.08,0,0,1,62.88,64.83Zm60.18-1.16a1.07,1.07,0,0,1-.92-1.21h0a1.08,1.08,0,0,1,1.21-.93h0a1.09,1.09,0,0,1,.93,1.21h0a1.09,1.09,0,0,1-1.07.94h-.15Zm-60.73-3a1.08,1.08,0,0,1,1-1.15h0a1.08,1.08,0,0,1,1.15,1h0a1.08,1.08,0,0,1-1,1.15H63.4A1.07,1.07,0,0,1,62.33,60.71Zm60.06-2.12v0h0v0h0a1.08,1.08,0,0,1,1.08-1.08h0a1.08,1.08,0,0,1,1.08,1.08h0v0h0v0h0a1.08,1.08,0,0,1-1.08,1.08h0A1.08,1.08,0,0,1,122.39,58.59Zm-59.06-.9a1.08,1.08,0,0,1-1-1.14h0a1.08,1.08,0,0,1,1.15-1h0a1.07,1.07,0,0,1,1,1.14h0a1.07,1.07,0,0,1-1.07,1h-.07Zm58.8-3a1.07,1.07,0,0,1,.92-1.21h0a1.08,1.08,0,0,1,1.22.92h0a1.09,1.09,0,0,1-.93,1.21h-.14A1.07,1.07,0,0,1,122.13,54.67Zm-58.42-1a1.08,1.08,0,0,1-.84-1.27h0a1.08,1.08,0,0,1,1.27-.85h0A1.08,1.08,0,0,1,65,52.85h0a1.08,1.08,0,0,1-1.05.87h0Zm57.64-2.82a1.09,1.09,0,0,1,.76-1.33h0a1.07,1.07,0,0,1,1.32.75h0a1.08,1.08,0,0,1-.75,1.33h0a.92.92,0,0,1-.29,0h0A1.1,1.1,0,0,1,121.35,50.88Zm-56.72-1.1A1.08,1.08,0,0,1,64,48.41h0a1.09,1.09,0,0,1,1.37-.67h0A1.09,1.09,0,0,1,66,49.11h0a1.09,1.09,0,0,1-1,.73h0A1,1,0,0,1,64.63,49.78Zm55.45-2.56a1.06,1.06,0,0,1,.57-1.41h0a1.08,1.08,0,0,1,1.41.57h0a1.08,1.08,0,0,1-.57,1.41h0a1.06,1.06,0,0,1-.42.09h0A1.07,1.07,0,0,1,120.08,47.22Zm-54-1.2a1.07,1.07,0,0,1-.48-1.44h0A1.07,1.07,0,0,1,67,44.1h0a1.09,1.09,0,0,1,.48,1.45h0a1.09,1.09,0,0,1-1,.59h0A1,1,0,0,1,66.06,46Zm52.26-2.25h0a1.08,1.08,0,0,1,.38-1.47h0a1.06,1.06,0,0,1,1.47.37h0a1.08,1.08,0,0,1-.37,1.48h0a1.08,1.08,0,0,1-.55.15h0A1.09,1.09,0,0,1,118.32,43.77ZM68,42.49A1.08,1.08,0,0,1,67.7,41h0a1.07,1.07,0,0,1,1.5-.28h0a1.06,1.06,0,0,1,.28,1.49h0a1.07,1.07,0,0,1-.89.47h0A1.07,1.07,0,0,1,68,42.49Zm48.14-1.9a1.08,1.08,0,0,1,.18-1.52h0a1.07,1.07,0,0,1,1.51.18h0a1.08,1.08,0,0,1-.17,1.51h0A1.08,1.08,0,0,1,117,41h0A1.09,1.09,0,0,1,116.12,40.59ZM70.36,39.25a1.08,1.08,0,0,1-.08-1.52h0a1.08,1.08,0,0,1,1.52-.08h0a1.08,1.08,0,0,1,.08,1.52h0a1.07,1.07,0,0,1-.8.36h0A1,1,0,0,1,70.36,39.25Zm43.16-1.53a1.07,1.07,0,0,1,0-1.52h0a1.09,1.09,0,0,1,1.53,0h0a1.07,1.07,0,0,1,0,1.52h0a1.1,1.1,0,0,1-.78.33h0A1.08,1.08,0,0,1,113.52,37.72ZM73.14,36.35a1.08,1.08,0,0,1,.12-1.52h0a1.08,1.08,0,0,1,1.52.13h0a1.08,1.08,0,0,1-.12,1.52h0a1.07,1.07,0,0,1-.7.25h0A1.08,1.08,0,0,1,73.14,36.35Zm37.42-1.12a1.08,1.08,0,0,1-.23-1.51h0a1.08,1.08,0,0,1,1.51-.23h0a1.08,1.08,0,0,1,.23,1.51h0a1.09,1.09,0,0,1-.87.43h0A1.08,1.08,0,0,1,110.56,35.23ZM76.28,33.85a1.08,1.08,0,0,1,.33-1.49h0a1.07,1.07,0,0,1,1.49.33h0a1.08,1.08,0,0,1-.33,1.49h0a1.12,1.12,0,0,1-.58.17h0A1.1,1.1,0,0,1,76.28,33.85Zm31-.71a1.06,1.06,0,0,1-.43-1.46h0a1.08,1.08,0,0,1,1.46-.43h0a1.08,1.08,0,0,1,.43,1.46h0a1.09,1.09,0,0,1-1,.57h0A1.06,1.06,0,0,1,107.3,33.14ZM79.73,31.79a1.09,1.09,0,0,1,.52-1.44h0a1.08,1.08,0,0,1,1.43.53h0a1.08,1.08,0,0,1-.52,1.43h0a1.06,1.06,0,0,1-.46.1h0A1.07,1.07,0,0,1,79.73,31.79Zm24-.27h0a1.09,1.09,0,0,1-.62-1.4h0a1.08,1.08,0,0,1,1.39-.62h0a1.08,1.08,0,0,1,.62,1.39h0a1.06,1.06,0,0,1-1,.7h0A1.07,1.07,0,0,1,103.78,31.52ZM83.42,30.2a1.08,1.08,0,0,1,.71-1.35h0a1.08,1.08,0,0,1,1.35.71h0a1.08,1.08,0,0,1-.71,1.35h0a1.19,1.19,0,0,1-.32.05h0A1.08,1.08,0,0,1,83.42,30.2Zm16.66.17a1.06,1.06,0,0,1-.8-1.29h0a1.06,1.06,0,0,1,1.29-.8h0a1.07,1.07,0,0,1,.8,1.29h0a1.07,1.07,0,0,1-1,.84h0A.73.73,0,0,1,100.08,30.37ZM87.29,29.13a1.09,1.09,0,0,1,.88-1.25h0a1.09,1.09,0,0,1,1.25.89h0A1.08,1.08,0,0,1,88.53,30h0l-.17,0h0A1.09,1.09,0,0,1,87.29,29.13Zm9,.61a1.08,1.08,0,0,1-1-1.18h0a1.08,1.08,0,0,1,1.18-1h0a1.08,1.08,0,0,1,1,1.17h0a1.09,1.09,0,0,1-1.08,1h-.1Zm-5-1.16a1.08,1.08,0,0,1,1-1.11h0a1.08,1.08,0,0,1,1.12,1h0a1.08,1.08,0,0,1-1,1.11h0A1.08,1.08,0,0,1,91.27,28.58Z"/><polygon class="cls-5" points="123.91 94.33 58.72 131.97 -6.47 94.33 58.72 56.7 123.91 94.33"/><polygon class="cls-6" points="123.81 85.61 58.72 123.19 -6.37 85.61 58.72 48.03 123.81 85.61"/><polygon class="cls-4" points="99.72 83.73 99.72 33.79 56.47 8.82 13.22 33.79 13.22 83.73 56.47 108.69 99.72 83.73"/><polygon class="cls-7" points="13.22 83.72 56.47 108.69 56.55 58.71 13.22 33.79 13.22 83.72"/><polygon class="cls-6" points="13.22 37.17 56.47 62.15 56.55 58.71 13.22 33.79 13.22 37.17"/><polygon class="cls-8" points="17.66 47.58 26.35 52.6 26.36 51.2 17.66 46.19 17.66 47.58"/><polygon class="cls-8" points="17.66 61.08 22.43 63.82 22.45 62.42 17.66 59.69 17.66 61.08"/><polygon class="cls-8" points="17.66 73.69 22.43 76.43 22.45 75.03 17.66 72.3 17.66 73.69"/><polygon class="cls-9" points="17.66 57.16 26.35 62.19 26.36 60.78 17.66 55.77 17.66 57.16"/><ellipse class="cls-8" cx="14.64" cy="36.41" rx="0.34" ry="0.57" transform="translate(-14.67 10.32) rotate(-26.42)"/><ellipse class="cls-8" cx="15.89" cy="37.13" rx="0.34" ry="0.57" transform="translate(-14.86 10.95) rotate(-26.42)"/><ellipse class="cls-8" cx="17.13" cy="37.85" rx="0.34" ry="0.57" transform="translate(-15.05 11.57) rotate(-26.42)"/><polygon class="cls-9" points="17.66 51.71 32.59 60.4 32.6 59 17.66 50.32 17.66 51.71"/><polygon class="cls-9" points="17.66 54.44 22.02 56.99 22.04 55.59 17.66 53.04 17.66 54.44"/><polygon class="cls-8" points="17.66 67.73 32.59 76.42 32.6 75.02 17.66 66.34 17.66 67.73"/><polygon class="cls-8" points="17.66 77.1 32.59 85.79 32.6 84.39 17.66 75.71 17.66 77.1"/><polygon class="cls-9" points="17.66 70.46 22.02 73.01 22.04 71.61 17.66 69.06 17.66 70.46"/><polygon class="cls-10" points="99.72 33.79 56.55 58.71 13.4 33.8 56.47 8.82 99.72 33.79"/><polygon class="cls-8" points="64.43 13.45 22.64 39.17 13.37 33.75 56.47 8.82 64.43 13.45"/><polygon class="cls-6" points="99.72 33.79 97.17 35.26 53.94 10.29 56.47 8.82 99.72 33.79"/><polygon class="cls-11" points="46.23 17.06 45.53 17.48 40.92 14.81 41.6 14.39 46.23 17.06"/><polygon class="cls-11" points="44.08 18.35 43.38 18.77 38.76 16.1 39.45 15.68 44.08 18.35"/><polygon class="cls-11" points="41.92 19.65 41.22 20.06 36.61 17.4 37.3 16.98 41.92 19.65"/><polygon class="cls-12" points="94.96 36.47 80.93 44.64 58.61 32.11 72.59 23.87 94.96 36.47"/><polygon class="cls-13" points="97.15 28.04 83 36.19 58.61 22.52 73 14.04 97.15 28.04"/><polygon class="cls-12" points="70.55 43.77 55.97 52.14 32.01 38.25 46.4 29.76 70.55 43.77"/><polygon class="cls-13" points="70.87 41.51 56.3 49.88 32.33 35.99 46.72 27.5 70.87 41.51"/><polygon class="cls-11" points="85.31 28.15 84.09 28.88 68.27 19.95 69.48 19.21 85.31 28.15"/><polygon class="cls-11" points="75.08 25.68 73.85 26.4 65.68 21.78 66.89 21.05 75.08 25.68"/><polygon class="cls-11" points="54.1 35.93 52.92 36.6 45.3 32.02 46.46 31.34 54.1 35.93"/><polygon class="cls-11" points="56 39.96 54.82 40.63 42.9 33.7 44.06 33.02 56 39.96"/><polygon class="cls-11" points="49.07 39.5 47.83 40.21 39.74 35.44 40.97 34.73 49.07 39.5"/><polygon class="cls-8" points="101.2 51.83 106.01 50.35 101.2 48.88 99.72 44.06 98.24 48.88 93.42 50.35 98.24 51.83 99.72 56.65 101.2 51.83"/><polygon class="cls-8" points="9.43 103.7 14.83 102.05 9.43 100.39 7.78 95 6.13 100.39 0.73 102.05 6.13 103.7 7.78 109.09 9.43 103.7"/><polygon class="cls-6" points="16.74 110.47 19.7 109.57 16.74 108.67 15.84 105.71 14.93 108.67 11.98 109.57 14.93 110.47 15.84 113.43 16.74 110.47"/><polygon class="cls-8" points="75.81 124.95 79.94 123.68 75.81 122.42 74.55 118.29 73.28 122.42 69.15 123.68 73.28 124.95 74.55 129.07 75.81 124.95"/><polygon class="cls-6" points="81.4 23.84 83.66 23.15 81.4 22.46 80.71 20.2 80.02 22.46 77.76 23.15 80.02 23.84 80.71 26.1 81.4 23.84"/><path class="cls-8" d="M2.23,53.37-3.63,50V43.22l5.86-3.38,5.86,3.38V50Zm-3.39-4.81,3.39,2,3.39-2V44.65l-3.39-2-3.39,2Z"/><path class="cls-8" d="M109.12,65.28l-3.48-2v-4l3.48-2,3.49,2v4Zm-2-2.86,2,1.16,2-1.16V60.09l-2-1.17-2,1.17Z"/><circle class="cls-6" cx="7.66" cy="37.16" r="1.57"/><circle class="cls-6" cx="104.65" cy="67.04" r="1.22"/><polygon class="cls-8" points="109.57 103.71 105.03 100.44 100.48 103.71 95.94 100.44 91.38 103.71 86.04 99.87 87.63 97.65 91.38 100.35 95.94 97.08 100.48 100.35 105.03 97.08 109.57 100.35 114.11 97.08 118.65 100.35 123.19 97.08 128.53 100.92 126.94 103.14 123.19 100.44 118.65 103.71 114.11 100.44 109.57 103.71"/><polygon class="cls-8" points="109.57 111.21 105.03 107.94 100.48 111.21 95.94 107.94 91.38 111.21 86.04 107.36 87.63 105.15 91.38 107.85 95.94 104.58 100.48 107.85 105.03 104.58 109.57 107.85 114.11 104.58 118.65 107.85 123.19 104.58 128.53 108.42 126.94 110.64 123.19 107.94 118.65 111.21 114.11 107.94 109.57 111.21"/><polygon class="cls-8" points="109.57 118.71 105.03 115.44 100.48 118.71 95.94 115.44 91.38 118.71 86.04 114.86 87.63 112.65 91.38 115.35 95.94 112.08 100.48 115.35 105.03 112.08 109.57 115.35 114.11 112.08 118.65 115.35 123.19 112.08 128.53 115.92 126.94 118.14 123.19 115.44 118.65 118.71 114.11 115.44 109.57 118.71"/><polygon class="cls-14" points="72.62 81.41 89.2 71.83 89.2 59.87 80.91 64.65 80.91 62.26 72.62 67.05 72.62 81.41"/><g class="cls-15"><polygon class="cls-2" points="72.62 81.41 89.2 71.83 89.2 57.47 72.62 67.05 72.62 81.41"/><g class="cls-16"><polygon class="cls-2" points="67.44 90.38 94.38 74.83 94.38 48.5 67.44 64.06 67.44 90.38"/></g></g></g></svg>