<svg xmlns="http://www.w3.org/2000/svg" viewBox="0 0 118.97 122.71"><defs><style>.cls-1{fill:#d2d6f5;}.cls-2{fill:#ed8280;}.cls-3{fill:#89a2f6;}.cls-4{fill:#3151b7;}.cls-5{fill:#252e6a;}.cls-6{fill:#001c59;}.cls-7{fill:#fff;}.cls-8{fill:#e7e9f7;}.cls-9{fill:#3c6df0;}</style></defs><title>Docs Icon 4</title><g id="Docs_Icon_4" data-name="Docs Icon 4"><rect class="cls-1" x="-20.52" y="-18.46" width="160" height="160"/><path class="cls-2" d="M15.76,52-3,41.21V19.58L15.76,8.77,34.49,19.58V41.21Z"/><path class="cls-3" d="M14.85,67.41a1.27,1.27,0,0,1-1.23-1.31h0a1.27,1.27,0,0,1,1.31-1.23h0a1.27,1.27,0,0,1,1.23,1.31h0a1.28,1.28,0,0,1-1.27,1.23h0Zm3.5-1.3a1.27,1.27,0,0,1,1.14-1.39h0a1.27,1.27,0,0,1,1.39,1.14h0a1.27,1.27,0,0,1-1.14,1.38h-.12A1.28,1.28,0,0,1,18.35,66.11ZM10,66.93h0a1.27,1.27,0,0,1-1.05-1.46h0a1.28,1.28,0,0,1,1.47-1h0a1.27,1.27,0,0,1,1,1.46h0a1.26,1.26,0,0,1-1.25,1.06H10Zm13.08-1.44A1.28,1.28,0,0,1,24,64h0a1.27,1.27,0,0,1,1.53.94h0a1.27,1.27,0,0,1-.94,1.53h0a1,1,0,0,1-.3,0h0A1.27,1.27,0,0,1,23.05,65.49ZM5.19,65.8h0a1.26,1.26,0,0,1-.84-1.59h0A1.27,1.27,0,0,1,6,63.37H6A1.27,1.27,0,0,1,6.78,65h0a1.27,1.27,0,0,1-1.21.9h0A1.76,1.76,0,0,1,5.19,65.8Zm22.43-1.55a1.27,1.27,0,0,1,.73-1.64h0a1.27,1.27,0,0,1,1.64.73h0A1.26,1.26,0,0,1,29.26,65h0a1.2,1.2,0,0,1-.45.09h0A1.27,1.27,0,0,1,27.62,64.25ZM.62,64A1.27,1.27,0,0,1,0,62.35H0a1.27,1.27,0,0,1,1.69-.62h0a1.27,1.27,0,0,1,.61,1.69h0a1.27,1.27,0,0,1-1.15.74h0A1.24,1.24,0,0,1,.62,64ZM32,62.41a1.27,1.27,0,0,1,.5-1.72h0a1.27,1.27,0,0,1,1.73.5h0a1.27,1.27,0,0,1-.5,1.72h0a1.26,1.26,0,0,1-.61.16h0A1.28,1.28,0,0,1,32,62.41Zm-35.67-.73h0a1.27,1.27,0,0,1-.38-1.75h0a1.26,1.26,0,0,1,1.75-.39h0a1.27,1.27,0,0,1,.39,1.75h0A1.28,1.28,0,0,1-3,61.88h0A1.34,1.34,0,0,1-3.69,61.68ZM36.06,60a1.25,1.25,0,0,1,.27-1.77h0a1.26,1.26,0,0,1,1.77.27h0a1.26,1.26,0,0,1-.27,1.77h0a1.23,1.23,0,0,1-.75.25h0A1.26,1.26,0,0,1,36.06,60ZM-7.63,58.77A1.26,1.26,0,0,1-7.78,57h0A1.27,1.27,0,0,1-6,56.83h0a1.28,1.28,0,0,1,.15,1.79h0a1.27,1.27,0,0,1-1,.45h0A1.24,1.24,0,0,1-7.63,58.77Zm47.41-1.7a1.26,1.26,0,0,1,0-1.79h0a1.27,1.27,0,0,1,1.8,0h0a1.26,1.26,0,0,1,0,1.79h0a1.24,1.24,0,0,1-.88.36h0A1.26,1.26,0,0,1,39.78,57.07Zm-50.94-1.71a1.27,1.27,0,0,1,.09-1.79h0a1.27,1.27,0,0,1,1.79.09h0a1.27,1.27,0,0,1-.08,1.79h0a1.29,1.29,0,0,1-.86.33h0A1.26,1.26,0,0,1-11.16,55.36Zm54.24-1.68a1.28,1.28,0,0,1-.21-1.79h0a1.28,1.28,0,0,1,1.79-.21h0a1.27,1.27,0,0,1,.2,1.79h0a1.26,1.26,0,0,1-1,.48h0A1.28,1.28,0,0,1,43.08,53.68ZM-14.2,51.52a1.26,1.26,0,0,1,.32-1.76h0a1.27,1.27,0,0,1,1.77.32h0a1.27,1.27,0,0,1-.33,1.77h0a1.27,1.27,0,0,1-.72.22h0A1.25,1.25,0,0,1-14.2,51.52Zm60.1-1.65a1.27,1.27,0,0,1-.44-1.74h0a1.27,1.27,0,0,1,1.74-.44h0a1.27,1.27,0,0,1,.44,1.74h0a1.26,1.26,0,0,1-1.09.62h0A1.3,1.3,0,0,1,45.9,49.87Zm-62.61-2.56a1.27,1.27,0,0,1,.56-1.71h0a1.27,1.27,0,0,1,1.71.56h0A1.29,1.29,0,0,1-15,47.87h0a1.28,1.28,0,0,1-.57.13h0A1.28,1.28,0,0,1-16.71,47.31Zm64.9-1.59a1.27,1.27,0,0,1-.67-1.66h0a1.28,1.28,0,0,1,1.67-.68h0a1.28,1.28,0,0,1,.67,1.67h0a1.27,1.27,0,0,1-1.17.77h0A1.27,1.27,0,0,1,48.19,45.72ZM-18.63,42.8a1.27,1.27,0,0,1,.78-1.62h0a1.27,1.27,0,0,1,1.62.78h0A1.28,1.28,0,0,1-17,43.58h0a1.23,1.23,0,0,1-.42.07h0A1.28,1.28,0,0,1-18.63,42.8Zm68.54-1.5A1.26,1.26,0,0,1,49,39.74h0a1.28,1.28,0,0,1,1.56-.89h0a1.28,1.28,0,0,1,.89,1.56h0a1.27,1.27,0,0,1-1.23.94h0A1.26,1.26,0,0,1,49.91,41.3Zm-69.84-3.23h0a1.28,1.28,0,0,1,1-1.5h0a1.27,1.27,0,0,1,1.5,1h0a1.27,1.27,0,0,1-1,1.5h0l-.25,0h0A1.27,1.27,0,0,1-19.93,38.07ZM51,36.7a1.27,1.27,0,0,1-1.09-1.43h0a1.27,1.27,0,0,1,1.43-1.09h0a1.27,1.27,0,0,1,1.09,1.43h0a1.28,1.28,0,0,1-1.26,1.1H51Zm-71.59-3.49a1.26,1.26,0,0,1,1.18-1.35h0A1.27,1.27,0,0,1-18,33h0a1.28,1.28,0,0,1-1.19,1.35h-.09A1.27,1.27,0,0,1-20.58,33.21Zm70.8-2.49v0h0v0h0a1.27,1.27,0,0,1,1.27-1.27h0a1.27,1.27,0,0,1,1.27,1.27h0v0h0v0h0A1.26,1.26,0,0,1,51.49,32h0A1.26,1.26,0,0,1,50.22,30.72ZM-19.4,29.66a1.28,1.28,0,0,1-1.19-1.35h0a1.28,1.28,0,0,1,1.35-1.19h0A1.28,1.28,0,0,1-18,28.47h0a1.28,1.28,0,0,1-1.27,1.19h-.08Zm69.31-3.57A1.27,1.27,0,0,1,51,24.66h0a1.27,1.27,0,0,1,1.43,1.09h0a1.28,1.28,0,0,1-1.09,1.43h-.17A1.27,1.27,0,0,1,49.91,26.09Zm-68.86-1.15a1.26,1.26,0,0,1-1-1.49h0a1.27,1.27,0,0,1,1.49-1h0a1.27,1.27,0,0,1,1,1.5h0a1.28,1.28,0,0,1-1.25,1h0Zm68-3.32a1.26,1.26,0,0,1,.89-1.56h0a1.27,1.27,0,0,1,1.56.88h0a1.28,1.28,0,0,1-.89,1.57h0a1.27,1.27,0,0,1-.34,0h0A1.28,1.28,0,0,1,49,21.62Zm-66.87-1.29a1.28,1.28,0,0,1-.78-1.62h0A1.27,1.27,0,0,1-17,17.92h0a1.29,1.29,0,0,1,.79,1.62h0a1.29,1.29,0,0,1-1.21.86h0A1.53,1.53,0,0,1-17.87,20.33Zm65.36-3a1.29,1.29,0,0,1,.67-1.67h0a1.28,1.28,0,0,1,1.67.67h0A1.27,1.27,0,0,1,49.16,18h0a1.24,1.24,0,0,1-.5.1h0A1.28,1.28,0,0,1,47.49,17.31ZM-16.18,15.9a1.27,1.27,0,0,1-.56-1.71h0a1.26,1.26,0,0,1,1.7-.56h0a1.27,1.27,0,0,1,.56,1.71h0a1.26,1.26,0,0,1-1.13.69h0A1.28,1.28,0,0,1-16.18,15.9Zm61.61-2.65h0a1.27,1.27,0,0,1,.44-1.75h0a1.27,1.27,0,0,1,1.74.45h0a1.27,1.27,0,0,1-.44,1.74h0a1.3,1.3,0,0,1-.65.18h0A1.26,1.26,0,0,1,45.43,13.25Zm-59.35-1.52A1.26,1.26,0,0,1-14.24,10h0a1.26,1.26,0,0,1,1.76-.33h0a1.27,1.27,0,0,1,.33,1.77h0a1.29,1.29,0,0,1-1,.55h0A1.23,1.23,0,0,1-13.92,11.73ZM42.83,9.49A1.27,1.27,0,0,1,43,7.71h0a1.27,1.27,0,0,1,1.79.2h0a1.28,1.28,0,0,1-.21,1.79h0a1.28,1.28,0,0,1-.79.27h0A1.28,1.28,0,0,1,42.83,9.49ZM-11.12,7.91a1.27,1.27,0,0,1-.09-1.79h0A1.28,1.28,0,0,1-9.41,6h0a1.27,1.27,0,0,1,.09,1.79h0a1.26,1.26,0,0,1-.94.42h0A1.29,1.29,0,0,1-11.12,7.91Zm50.89-1.8a1.26,1.26,0,0,1,0-1.79h0a1.28,1.28,0,0,1,1.8,0h0a1.28,1.28,0,0,1,0,1.8h0a1.26,1.26,0,0,1-.91.39h0A1.24,1.24,0,0,1,39.77,6.11ZM-7.84,4.5a1.28,1.28,0,0,1,.15-1.79h0a1.27,1.27,0,0,1,1.79.14h0A1.27,1.27,0,0,1-6,4.64h0A1.24,1.24,0,0,1-6.86,5h0A1.31,1.31,0,0,1-7.84,4.5ZM36.28,3.17A1.28,1.28,0,0,1,36,1.39h0a1.29,1.29,0,0,1,1.78-.27h0a1.27,1.27,0,0,1,.27,1.78h0a1.26,1.26,0,0,1-1,.52h0A1.27,1.27,0,0,1,36.28,3.17ZM-4.13,1.55A1.27,1.27,0,0,1-3.75-.21h0A1.27,1.27,0,0,1-2,.18h0a1.26,1.26,0,0,1-.39,1.75h0a1.22,1.22,0,0,1-.68.2h0A1.25,1.25,0,0,1-4.13,1.55ZM32.43.71A1.27,1.27,0,0,1,31.92-1h0a1.26,1.26,0,0,1,1.72-.5h0a1.26,1.26,0,0,1,.5,1.72h0A1.28,1.28,0,0,1,33,.87h0A1.2,1.2,0,0,1,32.43.71ZM-.07-.88A1.27,1.27,0,0,1,.54-2.57h0A1.27,1.27,0,0,1,2.23-2h0A1.26,1.26,0,0,1,1.62-.27h0a1.29,1.29,0,0,1-.54.12h0A1.27,1.27,0,0,1-.07-.88ZM28.28-1.2h0a1.28,1.28,0,0,1-.73-1.64h0a1.27,1.27,0,0,1,1.64-.74h0a1.27,1.27,0,0,1,.73,1.64h0a1.26,1.26,0,0,1-1.18.82h0A1.48,1.48,0,0,1,28.28-1.2Zm-24-1.55a1.27,1.27,0,0,1,.84-1.59h0a1.27,1.27,0,0,1,1.59.83h0a1.27,1.27,0,0,1-.84,1.59h0a1.19,1.19,0,0,1-.37.06h0A1.28,1.28,0,0,1,4.28-2.75Zm19.64.2a1.27,1.27,0,0,1-1-1.52h0A1.27,1.27,0,0,1,24.5-5h0a1.27,1.27,0,0,1,.95,1.53h0a1.28,1.28,0,0,1-1.24,1h0A1,1,0,0,1,23.92-2.55ZM8.85-4a1.26,1.26,0,0,1,1-1.46h0a1.26,1.26,0,0,1,1.46,1h0a1.26,1.26,0,0,1-1,1.46h0L10.1-3h0A1.27,1.27,0,0,1,8.85-4Zm10.57.73a1.27,1.27,0,0,1-1.14-1.39h0a1.26,1.26,0,0,1,1.38-1.14h0a1.28,1.28,0,0,1,1.15,1.39h0a1.28,1.28,0,0,1-1.27,1.14h-.12ZM13.54-4.66A1.28,1.28,0,0,1,14.77-6h0a1.27,1.27,0,0,1,1.31,1.23h0a1.29,1.29,0,0,1-1.23,1.32h0A1.28,1.28,0,0,1,13.54-4.66Z"/><polygon class="cls-3" points="87.17 102.73 82.92 99.66 78.67 102.73 74.41 99.66 70.15 102.72 65.14 99.13 66.63 97.05 70.15 99.58 74.41 96.52 78.67 99.58 82.92 96.52 87.17 99.58 91.42 96.52 95.67 99.58 99.93 96.52 104.93 100.12 103.43 102.19 99.93 99.66 95.67 102.73 91.42 99.66 87.17 102.73"/><polygon class="cls-3" points="87.17 109.75 82.92 106.68 78.67 109.75 74.41 106.68 70.15 109.75 65.14 106.15 66.63 104.07 70.15 106.6 74.41 103.54 78.67 106.6 82.92 103.54 87.17 106.6 91.42 103.53 95.67 106.6 99.93 103.54 104.93 107.14 103.43 109.21 99.93 106.68 95.67 109.75 91.42 106.68 87.17 109.75"/><polygon class="cls-3" points="87.17 116.77 82.92 113.7 78.67 116.77 74.41 113.7 70.15 116.77 65.14 113.17 66.63 111.09 70.15 113.62 74.41 110.56 78.67 113.62 82.92 110.56 87.17 113.62 91.42 110.56 95.67 113.62 99.93 110.56 104.93 114.16 103.43 116.23 99.93 113.7 95.67 116.77 91.42 113.7 87.17 116.77"/><path class="cls-4" d="M62,20.66l-6.58-3.8V9.25L62,5.45l6.59,3.8v7.61ZM58.2,15.25,62,17.45l3.81-2.2v-4.4L62,8.65l-3.81,2.2Z"/><polygon class="cls-5" points="61.3 102.77 64.49 101.8 61.3 100.82 60.33 97.64 59.35 100.82 56.16 101.8 59.35 102.77 60.33 105.96 61.3 102.77"/><rect class="cls-6" x="31.29" y="32.4" width="81.58" height="61.09"/><rect class="cls-7" x="26.9" y="27.31" width="82.3" height="60.82"/><rect class="cls-4" x="26.9" y="27.31" width="82.3" height="6.97"/><rect class="cls-6" x="-1.13" y="78.08" width="42.05" height="25.63"/><rect class="cls-8" x="-3.34" y="76.02" width="41.43" height="24.63"/><rect class="cls-2" x="3.01" y="80.89" width="18.3" height="2.89"/><rect class="cls-4" x="3.01" y="87.28" width="25.03" height="2.33"/><rect class="cls-4" x="3.01" y="91.8" width="18.04" height="2.33"/><path class="cls-6" d="M97.11,27.71a13.07,13.07,0,0,0,13,13.07V27.21h-13C97.12,27.37,97.11,27.54,97.11,27.71Z"/><circle class="cls-7" cx="111.34" cy="26.11" r="10.88"/><polygon class="cls-8" points="67.97 41.26 43.99 41.26 43.99 53.25 48.18 53.25 48.18 57.99 53.75 53.25 67.97 53.25 67.97 41.26"/><path class="cls-9" d="M111.34,19.91a6.21,6.21,0,1,0,6.21,6.2A6.21,6.21,0,0,0,111.34,19.91Zm0,9.9a3.7,3.7,0,1,1,3.7-3.7A3.69,3.69,0,0,1,111.34,29.81Z"/><path class="cls-2" d="M110.15,20v2.58a4,4,0,0,1,1.19-.19,3.85,3.85,0,0,1,1.19.19V20a5.79,5.79,0,0,0-1.19-.12A5.93,5.93,0,0,0,110.15,20Z"/><path class="cls-2" d="M112.53,32.2V29.61a3.58,3.58,0,0,1-1.19.2,3.67,3.67,0,0,1-1.19-.2V32.2a6.76,6.76,0,0,0,1.19.12A6.58,6.58,0,0,0,112.53,32.2Z"/><path class="cls-2" d="M117.43,24.92h-2.59a3.67,3.67,0,0,1,.2,1.19,3.58,3.58,0,0,1-.2,1.19h2.59a5.79,5.79,0,0,0,.12-1.19A5.93,5.93,0,0,0,117.43,24.92Zm-12.17,0a5.93,5.93,0,0,0-.12,1.19,5.79,5.79,0,0,0,.12,1.19h2.59a3.58,3.58,0,0,1-.2-1.19,3.67,3.67,0,0,1,.2-1.19Z"/><rect class="cls-4" x="34.24" y="41.26" width="5.85" height="5.85"/><polygon class="cls-8" points="67.97 64.87 43.99 64.87 43.99 76.85 48.18 76.85 48.18 81.59 53.75 76.85 67.97 76.85 67.97 64.87"/><rect class="cls-4" x="34.24" y="64.87" width="5.85" height="5.85"/><rect class="cls-2" x="86.37" y="40.52" width="13.94" height="3.16"/><rect class="cls-8" x="86.37" y="47.39" width="16.91" height="3.16"/><rect class="cls-4" x="86.37" y="52.6" width="11.44" height="3.16"/><rect class="cls-8" x="86.37" y="57.62" width="14.52" height="3.16"/><path class="cls-2" d="M54.81,97.1,49.3,93.92V87.56l5.51-3.19,5.52,3.19v6.36Z"/></g></svg>