<?xml version="1.0" encoding="UTF-8"?>
<svg width="16px" height="16px" viewBox="0 0 16 16" version="1.1" xmlns="http://www.w3.org/2000/svg" xmlns:xlink="http://www.w3.org/1999/xlink">
    <!-- Generator: Sketch 52.2 (67145) - http://www.bohemiancoding.com/sketch -->
    <title>support</title>
    <desc>Created with Sketch.</desc>
    <g id="support" stroke="none" stroke-width="1" fill="none" fill-rule="evenodd">
        <g id="Support" fill="#152935" fill-rule="nonzero">
            <path d="M8,0 C3.582,0 0,3.582 0,8 C0,12.418 3.582,16 8,16 C12.418,16 16,12.418 16,8 C16,3.582 12.418,0 8,0 Z M8,0.571428571 C9.46371429,0.571428571 10.826,1.00285714 11.9777143,1.73657143 L9.87771429,3.83657143 C9.28809446,3.56813985 8.64784786,3.42902358 8,3.42857143 C7.33028571,3.42857143 6.69571429,3.57685714 6.12228571,3.83657143 L4.02228571,1.73657143 C5.174,1.00285714 6.53628571,0.571428571 8,0.571428571 Z M3.83657143,9.87771429 L1.73657143,11.9777143 C1.00285714,10.8262857 0.571428571,9.46371429 0.571428571,8 C0.571428571,6.53628571 1.00285714,5.17371429 1.73657143,4.02228571 L3.83657143,6.12228571 C3.56810613,6.71189435 3.42898825,7.35214833 3.42857143,8 C3.42857143,8.66971429 3.57685714,9.304 3.83657143,9.87771429 Z M8,15.4285714 C6.53628571,15.4285714 5.174,14.9971429 4.02228571,14.2634286 L6.12228571,12.1634286 C6.71189435,12.4318939 7.35214833,12.5710117 8,12.5714286 C8.66971429,12.5714286 9.304,12.4231429 9.87771429,12.1634286 L11.9777143,14.2634286 C10.826,14.9971429 9.46371429,15.4285714 8,15.4285714 Z M11.7265714,9.44485714 C11.3189193,10.4909582 10.4915297,11.3183479 9.44542857,11.726 C8.98484525,11.9064068 8.49465458,11.9993289 8,12 C7.49,12 7.00342857,11.9005714 6.55457143,11.726 C5.01814856,11.1271233 4.00474218,9.64900759 4,8 C4.00705741,5.79379089 5.79379089,4.00705741 8,4 C10.2062091,4.00705741 11.9929426,5.79379089 12,8 C12,8.51 11.9005714,8.996 11.7265714,9.44485714 Z M12.1634286,9.87771429 C12.4317254,9.28804973 12.5708353,8.64783265 12.5714286,8 C12.5708706,7.35216355 12.4317591,6.7119391 12.1634286,6.12228571 L14.2634286,4.02228571 C14.9971429,5.17371429 15.4285714,6.53628571 15.4285714,8 C15.4285714,9.46371429 14.9971429,10.8262857 14.2634286,11.9777143 L12.1634286,9.87771429 Z" id="Shape"></path>
        </g>
    </g>
</svg>