<?xml version="1.0" encoding="UTF-8"?>
<svg width="61px" height="38px" viewBox="0 0 61 38" version="1.1" xmlns="http://www.w3.org/2000/svg" xmlns:xlink="http://www.w3.org/1999/xlink">
    <!-- Generator: Sketch 51.3 (57544) - http://www.bohemiancoding.com/sketch -->
    <title>v2-java-spring</title>
    <desc>Created with Sketch.</desc>
    <defs></defs>
    <g id="v2-java-spring" stroke="none" stroke-width="1" fill="none" fill-rule="evenodd">
        <g id="Group" fill="#6EB340">
            <g id="i-runtime-tomcat-copy" fill-rule="nonzero">
                <polygon id="Shape" points="0.8 17.3 5.5 17.3 5.5 21.9 0.8 21.9"></polygon>
                <path d="M5.8,23.7 C6,23.8 6.3,23.8 6.7,23.8 C7.6,23.8 8.3,23.6 8.3,22.4 L8.3,6.4 L12.6,6.4 L12.6,22.7 C12.6,25.9 11.4,27.4 7.1,27.4 C6.6,27.4 6.2,27.4 5.7,27.3 L5.7,23.7 L5.8,23.7 Z M12.7,4 L8.4,4 L8.4,0.5 L12.7,0.5 L12.7,4 Z" id="Shape"></path>
                <path d="M15.4,11.1 C15.6,7.1 19.2,5.9 22.7,5.9 C25.8,5.9 29.5,6.6 29.5,10.3 L29.5,18.4 C29.5,19.8 29.6,21.2 30,21.9 L25.7,21.9 C25.5,21.4 25.4,20.9 25.4,20.4 C24,21.8 22.1,22.3 20.2,22.3 C17.2,22.3 14.9,20.8 14.9,17.7 C15,10.7 25.4,14.4 25.2,10.9 C25.2,9.1 23.9,8.8 22.4,8.8 C20.8,8.8 19.7,9.5 19.6,11.1 L15.4,11.1 Z M25.2,14.3 C24.5,14.9 23,15 21.7,15.2 C20.4,15.4 19.2,15.9 19.2,17.5 C19.2,19.1 20.4,19.5 21.8,19.5 C25.1,19.5 25.2,16.9 25.2,15.9 L25.2,14.3 Z" id="Shape"></path>
                <polygon id="Shape" points="40.4 21.9 35.7 21.9 30.4 6.4 34.9 6.4 38.1 17 38.2 17 41.5 6.4 45.7 6.4"></polygon>
                <path d="M46.2,11.1 C46.4,7.1 50,5.9 53.5,5.9 C56.6,5.9 60.3,6.6 60.3,10.3 L60.3,18.4 C60.3,19.8 60.4,21.2 60.8,21.9 L56.5,21.9 C56.3,21.4 56.2,20.9 56.2,20.4 C54.8,21.8 52.9,22.3 51,22.3 C48,22.3 45.7,20.8 45.7,17.7 C45.8,10.7 56.2,14.4 56,10.9 C56,9.1 54.7,8.8 53.2,8.8 C51.6,8.8 50.5,9.5 50.4,11.1 L46.2,11.1 Z M56,14.3 C55.3,14.9 53.8,15 52.5,15.2 C51.2,15.4 50,15.9 50,17.5 C50,19.1 51.2,19.5 52.6,19.5 C55.9,19.5 56.1,16.9 56.1,15.9 L56.1,14.3 L56,14.3 Z" id="Shape"></path>
            </g>
            <path d="M17.1342963,33.4902684 C17.044765,33.3708934 17,33.2216768 17,33.0426143 C17,32.7839683 17.129321,32.5651174 17.3879669,32.3860548 C17.5272378,32.2965235 17.6714805,32.2517586 17.8206993,32.2517586 C18.0296056,32.2517586 18.2285611,32.3462624 18.4175715,32.5352729 C18.7160091,32.8436584 19.026877,33.0724571 19.3501844,33.2216759 C19.6734918,33.3708947 20.0639418,33.445503 20.5215461,33.445503 C21.2974839,33.4156593 21.685447,33.1222 21.685447,32.5651165 C21.685447,32.2766268 21.553639,32.0577758 21.2900191,31.908557 C21.0263993,31.7593382 20.6160537,31.6101217 20.0589702,31.4609029 C19.4819908,31.3017361 19.0119586,31.1425718 18.6488595,30.9834051 C18.2857604,30.8242384 17.9724057,30.5830049 17.7087858,30.2596975 C17.4451659,29.9363901 17.3133579,29.5011751 17.3133579,28.9540395 C17.3133579,28.4765393 17.4501398,28.0612199 17.7237076,27.7080687 C17.9972754,27.3549176 18.3553951,27.0813538 18.7980776,26.8873694 C19.24076,26.693385 19.7107922,26.5963942 20.2081882,26.5963942 C20.7155322,26.5963942 21.2228685,26.690898 21.7302124,26.8799085 C22.2375563,27.068919 22.6354672,27.3474566 22.9239569,27.7155296 C23.0532798,27.8746963 23.1179403,28.0537562 23.1179403,28.2527146 C23.1179403,28.4815168 23.0234365,28.6705244 22.834426,28.8197432 C22.6951552,28.9291704 22.5359908,28.9838831 22.3569283,28.9838831 C22.138074,28.9838831 21.9590141,28.9142487 21.8197432,28.7749778 C21.6406807,28.5561236 21.409395,28.3820376 21.1258793,28.2527146 C20.8423636,28.1233917 20.5215479,28.0587312 20.1634228,28.0587312 C19.4073809,28.0587312 19.0293656,28.3322949 19.0293656,28.8794305 C19.0293656,29.0982847 19.099,29.2748576 19.2382709,29.4091546 C19.3775417,29.5434515 19.5541147,29.6479031 19.767995,29.7225125 C19.9818752,29.7971219 20.2827953,29.8891388 20.6707642,29.9985659 C21.2079519,30.1477847 21.6556016,30.3019752 22.0137267,30.4611419 C22.3718518,30.6203086 22.6752589,30.864029 22.9239569,31.1923104 C23.1726549,31.5205917 23.297002,31.9533198 23.297002,32.4905075 C23.297002,32.9779555 23.1527593,33.4032228 22.8642696,33.7663218 C22.57578,34.1294209 22.2052255,34.4054716 21.7525951,34.5944821 C21.2999648,34.7834925 20.8349065,34.8779964 20.3574063,34.8779964 C19.7008436,34.8779964 19.0890556,34.7685709 18.5220242,34.5497166 C17.9549927,34.3308624 17.4924214,33.9777165 17.1342963,33.4902684 Z M27.8260944,26.5963942 C28.5125009,26.5963942 29.1342366,26.7729671 29.6913201,27.1261183 C30.2484036,27.4792695 30.6885925,27.9691972 31.0118999,28.5959162 C31.3352073,29.2226351 31.4968586,29.9339008 31.4968586,30.7297344 C31.4968586,31.525568 31.3376943,32.2393206 31.0193608,32.8710135 C30.7010274,33.5027064 30.2658124,33.9951211 29.7137028,34.3482723 C29.1615932,34.7014234 28.5522923,34.8779964 27.8857816,34.8779964 C27.4082814,34.8779964 26.9581448,34.7810056 26.5353582,34.5870212 C26.1125716,34.3930367 25.7619127,34.1567771 25.4833709,33.8782354 L25.4833709,36.8029093 C25.4833709,37.0615552 25.3988148,37.2779192 25.2297002,37.4520079 C25.0605856,37.6260965 24.8467085,37.7131395 24.5880626,37.7131395 C24.3294166,37.7131395 24.1155396,37.6285834 23.9464249,37.4594688 C23.7773103,37.2903541 23.6927542,37.0715031 23.6927542,36.8029093 L23.6927542,27.6558424 C23.6927542,27.3971965 23.7773103,27.1808325 23.9464249,27.0067439 C24.1155396,26.8326552 24.3294166,26.7456123 24.5880626,26.7456123 C24.8467085,26.7456123 25.0605856,26.8326552 25.2297002,27.0067439 C25.3988148,27.1808325 25.4833709,27.3971965 25.4833709,27.6558424 L25.4833709,27.7155296 C25.722121,27.417092 26.0553713,27.155963 26.4831319,26.9321348 C26.9108925,26.7083066 27.3585421,26.5963942 27.8260944,26.5963942 Z M27.6022673,33.2365977 C28.2389342,33.2365977 28.7611922,32.9978512 29.1690569,32.5203511 C29.5769216,32.0428509 29.7808509,31.4459846 29.7808509,30.7297344 C29.7808509,30.0134841 29.5794086,29.4191048 29.1765178,28.9465786 C28.773627,28.4740524 28.2488821,28.2377928 27.6022673,28.2377928 C26.9556525,28.2377928 26.4284206,28.4740524 26.0205559,28.9465786 C25.6126912,29.4191048 25.4087619,30.0134841 25.4087619,30.7297344 C25.4087619,31.4459846 25.6126912,32.0428509 26.0205559,32.5203511 C26.4284206,32.9978512 26.9556525,33.2365977 27.6022673,33.2365977 Z M36.1456498,26.8500649 C36.3495822,27.0191795 36.4515468,27.218135 36.4515468,27.4469371 C36.4515468,27.7553226 36.3719647,27.9866083 36.2127979,28.1408011 C36.0536312,28.2949938 35.8646236,28.3720891 35.6457693,28.3720891 C35.5635148,28.3720891 34.6549577,28.416017 34.1438572,28.8898109 C33.7277646,29.2755317 33.6832275,30.0811873 33.6832275,30.2820802 L33.6832275,33.8185482 C33.6832275,34.0771941 33.5986714,34.2935581 33.4295568,34.4676467 C33.2604421,34.6417353 33.0465651,34.7287783 32.7879191,34.7287783 C32.5292732,34.7287783 32.3153961,34.6417353 32.1462815,34.4676467 C31.9771669,34.2935581 31.8926108,34.0771941 31.8926108,33.8185482 L31.8926108,27.6558424 C31.8926108,27.3971965 31.9771669,27.1808325 32.1462815,27.0067439 C32.3153961,26.8326552 32.5292732,26.7456123 32.7879191,26.7456123 C33.0465651,26.7456123 33.2604421,26.8326552 33.4295568,27.0067439 C33.5986714,27.1808325 33.6832275,27.3971965 33.6832275,27.6558424 L33.6832275,27.8498259 C33.9120297,27.4419611 34.2403061,27.1310933 34.6680667,26.917213 C35.0958272,26.7033327 35.9417175,26.6809502 36.1456498,26.8500649 Z M38.9584102,33.8185482 C38.9584102,34.0771941 38.8738541,34.2935581 38.7047395,34.4676467 C38.5356248,34.6417353 38.3217477,34.7287783 38.0631018,34.7287783 C37.8044559,34.7287783 37.5905788,34.6417353 37.4214642,34.4676467 C37.2523495,34.2935581 37.1677935,34.0771941 37.1677935,33.8185482 L37.1677935,27.6558424 C37.1677935,27.3971965 37.2523495,27.1808325 37.4214642,27.0067439 C37.5905788,26.8326552 37.8044559,26.7456123 38.0631018,26.7456123 C38.3217477,26.7456123 38.5356248,26.8326552 38.7047395,27.0067439 C38.8738541,27.1808325 38.9584102,27.3971965 38.9584102,27.6558424 L38.9584102,33.8185482 Z M38.04818,25.7756949 C37.7099507,25.7756949 37.4712042,25.7209821 37.3319333,25.611555 C37.1926625,25.5021279 37.1230281,25.3081464 37.1230281,25.0296046 L37.1230281,24.7460903 C37.1230281,24.4675485 37.1976363,24.273567 37.3468551,24.1641399 C37.4960739,24.0547127 37.7348204,24 38.0631018,24 C38.411279,24 38.6549994,24.0547127 38.7942703,24.1641399 C38.9335412,24.273567 39.0031756,24.4675485 39.0031756,24.7460903 L39.0031756,25.0296046 C39.0031756,25.3180943 38.9310542,25.5145628 38.7868094,25.6190159 C38.6425645,25.7234691 38.3963572,25.7756949 38.04818,25.7756949 Z M43.9650003,26.5963942 C44.9796882,26.5963942 45.681006,26.8973143 46.0689749,27.4991634 C46.4569438,28.1010126 46.6509254,28.9341384 46.6509254,29.9985659 L46.6509254,33.8185482 C46.6509254,34.0771941 46.5663693,34.2935581 46.3972547,34.4676467 C46.22814,34.6417353 46.0142629,34.7287783 45.755617,34.7287783 C45.4969711,34.7287783 45.283094,34.6417353 45.1139794,34.4676467 C44.9448647,34.2935581 44.8603087,34.0771941 44.8603087,33.8185482 L44.8603087,29.9985659 C44.8603087,29.4514303 44.7459093,29.0211892 44.5171071,28.7078297 C44.288305,28.3944702 43.895368,28.2377928 43.3382845,28.2377928 C42.7613051,28.2377928 42.3086815,28.404418 41.9804002,28.7376733 C41.6521188,29.0709286 41.4879806,29.491222 41.4879806,29.9985659 L41.4879806,33.8185482 C41.4879806,34.0771941 41.4034245,34.2935581 41.2343099,34.4676467 C41.0651952,34.6417353 40.8513182,34.7287783 40.5926722,34.7287783 C40.3340263,34.7287783 40.1201492,34.6417353 39.9510346,34.4676467 C39.7819199,34.2935581 39.6973639,34.0771941 39.6973639,33.8185482 L39.6973639,27.6558424 C39.6973639,27.3971965 39.7819199,27.1808325 39.9510346,27.0067439 C40.1201492,26.8326552 40.3340263,26.7456123 40.5926722,26.7456123 C40.8513182,26.7456123 41.0651952,26.8326552 41.2343099,27.0067439 C41.4034245,27.1808325 41.4879806,27.3971965 41.4879806,27.6558424 L41.4879806,27.9095131 C41.7565744,27.551388 42.1072333,27.2430071 42.5399679,26.9843611 C42.9727024,26.7257152 43.4477085,26.5963942 43.9650003,26.5963942 Z M54.1046917,26.5963942 C54.3633376,26.5963942 54.5772147,26.6753395 54.7463293,26.8332325 C54.9154439,26.9911254 55,27.1954545 55,27.4462256 L55,33.6458157 C55,34.77893 54.6244716,35.6171434 53.8734037,36.1604809 C53.1223357,36.7038185 52.1698366,36.9754832 51.0158779,36.9754832 C50.7174403,36.9754832 50.3070947,36.9290448 49.7848289,36.8361666 C49.2625631,36.7432884 48.8920086,36.6504116 48.6731544,36.5575333 C48.1857063,36.3624891 47.9419859,36.0931463 47.9419859,35.7494969 C47.9419859,35.6844821 47.9569076,35.6101807 47.9867513,35.5265903 C48.0464388,35.3222582 48.1484035,35.1666895 48.2926483,35.0598795 C48.4368932,34.9530696 48.5935706,34.8996654 48.7626852,34.8996654 C48.8621644,34.8996654 48.9566682,34.9135969 49.0461995,34.9414604 C49.0859912,34.9507482 49.3321985,35.0366593 49.7848289,35.1991962 C50.2374593,35.3617331 50.6478048,35.4430003 51.0158779,35.4430003 C51.752024,35.4430003 52.3016383,35.306007 52.6647374,35.0320162 C53.0278365,34.7580255 53.2093833,34.3702647 53.2093833,33.8687224 L53.2093833,33.2000025 C52.9905291,33.487925 52.6597657,33.7479801 52.2170832,33.9801757 C51.7744008,34.2123712 51.2993947,34.3284672 50.7920508,34.3284672 C50.0956964,34.3284672 49.461526,34.1636109 48.8895206,33.8338932 C48.3175151,33.5041755 47.8673785,33.0467572 47.5390971,32.4616244 C47.2108158,31.8764916 47.0466776,31.2124223 47.0466776,30.4693965 C47.0466776,29.7263708 47.2083288,29.0599796 47.5316362,28.4702029 C47.8549436,27.8804262 48.2976195,27.4206859 48.8596769,27.0909682 C49.4217344,26.7612506 50.0459571,26.5963942 50.7323636,26.5963942 C51.2397075,26.5963942 51.7122266,26.6939149 52.1499351,26.8889591 C52.5876436,27.0840034 52.9407895,27.3208393 53.2093833,27.5994739 L53.2093833,27.4462256 C53.2093833,27.2047423 53.2939394,27.0027352 53.463054,26.8401983 C53.6321687,26.6776614 53.8460457,26.5963942 54.1046917,26.5963942 Z M51.0158779,33.2365977 C51.6823885,33.2365977 52.227029,33.0003382 52.6498156,32.527812 C53.0726022,32.0552858 53.2839923,31.4609064 53.2839923,30.7446562 C53.2839923,30.0284059 53.0726022,29.4315397 52.6498156,28.9540395 C52.227029,28.4765393 51.6823885,28.2377928 51.0158779,28.2377928 C50.3493672,28.2377928 49.8072137,28.4765393 49.3894011,28.9540395 C48.9715884,29.4315397 48.7626852,30.0284059 48.7626852,30.7446562 C48.7626852,31.4609064 48.9715884,32.0552858 49.3894011,32.527812 C49.8072137,33.0003382 50.3493672,33.2365977 51.0158779,33.2365977 Z" id="spring"></path>
        </g>
    </g>
</svg>