<svg id="Docs_Watson_SDK" data-name="Docs Watson SDK" xmlns="http://www.w3.org/2000/svg" viewBox="0 0 118.97 122.71"><defs><style>.cls-1{fill:#d2d6f5;}.cls-2{fill:#fff;}.cls-3,.cls-5{fill:#252e6a;}.cls-4{fill:#ea8281;}.cls-5{opacity:0.85;}.cls-6{fill:#001c59;}.cls-7{fill:#3c6df0;}.cls-8{fill:#ed8280;}.cls-9{fill:#89a3f2;}</style></defs><title>Docs Icon 4 copy 2</title><rect class="cls-1" x="-20.52" y="-18.46" width="160" height="160"/><polygon class="cls-2" points="81.2 53.6 84.97 52.44 81.2 51.28 80.04 47.51 78.88 51.28 75.11 52.44 78.88 53.6 80.04 57.37 81.2 53.6"/><polygon class="cls-3" points="73.45 62.49 76.57 61.53 73.45 60.58 72.49 57.46 71.54 60.58 68.42 61.53 71.54 62.49 72.49 65.61 73.45 62.49"/><path id="Shape" class="cls-2" d="M52.75,20V17.2l-2.62-.73A7.31,7.31,0,0,0,49.5,15l1.26-2.29-2-1.91-2.4,1.26a8.47,8.47,0,0,0-1.54-.6L44.05,9H41.17l-.77,2.5a8.2,8.2,0,0,0-1.54.6l-2.38-1.26-2.06,2,1.32,2.29a7.31,7.31,0,0,0-.63,1.43l-2.63.74V20l2.63.74a7.76,7.76,0,0,0,.63,1.45l-1.32,2.29,2.06,1.95,2.41-1.25a7.23,7.23,0,0,0,1.54.6l.77,2.51h2.9l.77-2.51a8.47,8.47,0,0,0,1.54-.6l2.39,1.25,2-2-1.33-2.29a6.36,6.36,0,0,0,.63-1.44Zm-7-1.44a3.07,3.07,0,1,1-3.07-3A3.08,3.08,0,0,1,45.73,18.53Z"/><circle class="cls-2" cx="30.58" cy="43.88" r="12.62"/><path class="cls-4" d="M25.66,36.52l2.28,2.39A1.52,1.52,0,0,1,27.89,41,1.36,1.36,0,0,1,26,41l-2.29-2.4a4.36,4.36,0,0,0-.35,1.71,4.06,4.06,0,0,0,4,4.14,3.72,3.72,0,0,0,1.14-.18l6.22,6.51a1.8,1.8,0,0,0,2.63,0,2,2,0,0,0,0-2.76L31.07,41.5a4.19,4.19,0,0,0-2.64-5.17,3.74,3.74,0,0,0-1.15-.18A3.85,3.85,0,0,0,25.66,36.52Z"/><path class="cls-5" d="M42,105.66a1.81,1.81,0,0,1-1.76-1.86h0A1.83,1.83,0,0,1,42.08,102h0a1.82,1.82,0,0,1,1.75,1.87h0A1.81,1.81,0,0,1,42,105.66H42Zm5-1.85a1.81,1.81,0,0,1,1.62-2h0a1.8,1.8,0,0,1,2,1.62h0a1.8,1.8,0,0,1-1.62,2h-.18A1.81,1.81,0,0,1,47,103.81ZM35,105h0a1.82,1.82,0,0,1-1.49-2.09h0a1.81,1.81,0,0,1,2.09-1.48h0a1.81,1.81,0,0,1,1.49,2.08h0A1.8,1.8,0,0,1,35.3,105h0A1.51,1.51,0,0,1,35,105Zm18.66-2A1.8,1.8,0,0,1,55,100.75h0a1.81,1.81,0,0,1,2.18,1.34h0a1.81,1.81,0,0,1-1.34,2.18h0a1.51,1.51,0,0,1-.42,0h0A1.8,1.8,0,0,1,53.66,102.93Zm-25.46.44h0A1.81,1.81,0,0,1,27,101.1h0a1.81,1.81,0,0,1,2.27-1.19h0a1.8,1.8,0,0,1,1.19,2.26h0a1.81,1.81,0,0,1-1.73,1.28h0A2,2,0,0,1,28.2,103.37Zm32-2.21a1.81,1.81,0,0,1,1-2.34h0a1.83,1.83,0,0,1,2.35,1h0a1.81,1.81,0,0,1-1,2.34h0a1.92,1.92,0,0,1-.66.12h0A1.8,1.8,0,0,1,60.18,101.16Zm-38.51-.31a1.81,1.81,0,0,1-.89-2.4h0a1.82,1.82,0,0,1,2.41-.88h0a1.81,1.81,0,0,1,.88,2.41h0a1.8,1.8,0,0,1-1.64,1h0A1.73,1.73,0,0,1,21.67,100.85Zm44.72-2.31a1.81,1.81,0,0,1,.72-2.46h0a1.82,1.82,0,0,1,2.46.71h0a1.81,1.81,0,0,1-.72,2.46h0a1.72,1.72,0,0,1-.87.23h0A1.81,1.81,0,0,1,66.39,98.54ZM15.53,97.49h0A1.82,1.82,0,0,1,15,95h0a1.81,1.81,0,0,1,2.5-.55h0a1.8,1.8,0,0,1,.55,2.5h0a1.81,1.81,0,0,1-1.53.84h0A1.85,1.85,0,0,1,15.53,97.49ZM72.21,95.1a1.8,1.8,0,0,1,.38-2.53h0a1.82,1.82,0,0,1,2.53.38h0a1.82,1.82,0,0,1-.38,2.54h0a1.79,1.79,0,0,1-1.08.35h0A1.8,1.8,0,0,1,72.21,95.1ZM9.9,93.34a1.81,1.81,0,0,1-.21-2.55h0a1.81,1.81,0,0,1,2.55-.21h0a1.82,1.82,0,0,1,.22,2.55h0a1.82,1.82,0,0,1-1.39.64h0A1.8,1.8,0,0,1,9.9,93.34Zm67.61-2.41a1.82,1.82,0,0,1,0-2.56h0a1.82,1.82,0,0,1,2.57,0h0A1.81,1.81,0,0,1,80.07,91h0a1.79,1.79,0,0,1-1.26.51h0A1.8,1.8,0,0,1,77.51,90.93ZM4.87,88.49A1.82,1.82,0,0,1,5,85.93H5a1.82,1.82,0,0,1,2.56.13h0a1.8,1.8,0,0,1-.13,2.55h0a1.76,1.76,0,0,1-1.21.47h0A1.84,1.84,0,0,1,4.87,88.49Zm77.35-2.41a1.8,1.8,0,0,1-.3-2.54h0a1.81,1.81,0,0,1,2.55-.3h0a1.82,1.82,0,0,1,.29,2.55h0a1.78,1.78,0,0,1-1.42.68h0A1.76,1.76,0,0,1,82.22,86.08ZM.54,83A1.81,1.81,0,0,1,1,80.49H1A1.81,1.81,0,0,1,3.52,81h0a1.82,1.82,0,0,1-.46,2.52h0a1.81,1.81,0,0,1-1,.32H2A1.79,1.79,0,0,1,.54,83Zm85.71-2.35a1.82,1.82,0,0,1-.64-2.49h0a1.81,1.81,0,0,1,2.48-.63h0A1.81,1.81,0,0,1,88.73,80h0a1.83,1.83,0,0,1-1.56.89h0A1.77,1.77,0,0,1,86.25,80.66ZM-3,77a1.81,1.81,0,0,1,.8-2.43h0a1.81,1.81,0,0,1,2.43.79h0A1.82,1.82,0,0,1-.6,77.8h0a1.86,1.86,0,0,1-.82.19h0A1.81,1.81,0,0,1-3,77Zm92.55-2.26a1.82,1.82,0,0,1-1-2.38h0a1.82,1.82,0,0,1,2.38-1h0a1.82,1.82,0,0,1,1,2.38h0a1.82,1.82,0,0,1-1.67,1.1h0A1.76,1.76,0,0,1,89.51,74.74ZM-5.78,70.57a1.82,1.82,0,0,1,1.12-2.31h0a1.82,1.82,0,0,1,2.31,1.12h0a1.81,1.81,0,0,1-1.12,2.3h0a1.8,1.8,0,0,1-.59.11h0A1.84,1.84,0,0,1-5.78,70.57ZM92,68.44a1.82,1.82,0,0,1-1.28-2.22h0a1.82,1.82,0,0,1,2.23-1.28h0a1.81,1.81,0,0,1,1.27,2.23h0a1.8,1.8,0,0,1-1.75,1.33h0A2,2,0,0,1,92,68.44ZM-7.63,63.82h0a1.81,1.81,0,0,1,1.42-2.14h0A1.8,1.8,0,0,1-4.08,63.1h0a1.81,1.81,0,0,1-1.41,2.14h0a2.19,2.19,0,0,1-.36,0h0A1.82,1.82,0,0,1-7.63,63.82Zm101.16-2a1.82,1.82,0,0,1-1.56-2h0a1.83,1.83,0,0,1,2-1.56h0a1.82,1.82,0,0,1,1.56,2h0a1.82,1.82,0,0,1-1.8,1.57h0Zm-102.09-5A1.81,1.81,0,0,1-6.87,55h0a1.82,1.82,0,0,1,1.93,1.68h0a1.82,1.82,0,0,1-1.69,1.93h-.12A1.82,1.82,0,0,1-8.56,56.89Zm101-3.55a.43.43,0,0,0,0-.05h0s0,0,0,0h0a1.82,1.82,0,0,1,1.81-1.82h0A1.82,1.82,0,0,1,96,53.23h0v.06h0v.05h0a1.81,1.81,0,0,1-1.82,1.81h0A1.81,1.81,0,0,1,92.4,53.34ZM-6.87,51.83a1.81,1.81,0,0,1-1.7-1.92h0a1.81,1.81,0,0,1,1.93-1.69h0a1.8,1.8,0,0,1,1.69,1.92h0a1.8,1.8,0,0,1-1.8,1.69h-.12ZM92,46.75a1.81,1.81,0,0,1,1.55-2h0a1.8,1.8,0,0,1,2,1.55h0a1.82,1.82,0,0,1-1.55,2h-.24A1.82,1.82,0,0,1,92,46.75ZM-6.23,45.11A1.81,1.81,0,0,1-7.65,43h0a1.8,1.8,0,0,1,2.13-1.42h0A1.8,1.8,0,0,1-4.1,43.69h0a1.81,1.81,0,0,1-1.77,1.45h0A2.19,2.19,0,0,1-6.23,45.11Zm96.89-4.74a1.82,1.82,0,0,1,1.26-2.23h0a1.82,1.82,0,0,1,2.23,1.27h0a1.8,1.8,0,0,1-1.26,2.22h0a1.59,1.59,0,0,1-.48.07h0A1.82,1.82,0,0,1,90.66,40.37ZM-4.69,38.53a1.81,1.81,0,0,1-1.12-2.31h0a1.82,1.82,0,0,1,2.3-1.12h0a1.81,1.81,0,0,1,1.12,2.31h0A1.81,1.81,0,0,1-4.1,38.63h0A2,2,0,0,1-4.69,38.53Zm93.2-4.3a1.82,1.82,0,0,1,1-2.38h0a1.82,1.82,0,0,1,2.38.95h0a1.82,1.82,0,0,1-1,2.38h0a1.78,1.78,0,0,1-.71.15h0A1.82,1.82,0,0,1,88.51,34.23Zm-90.8-2a1.81,1.81,0,0,1-.8-2.43h0A1.81,1.81,0,0,1-.65,29h0a1.81,1.81,0,0,1,.8,2.43h0a1.82,1.82,0,0,1-1.62,1h0A1.87,1.87,0,0,1-2.29,32.21Zm87.85-3.78h0A1.81,1.81,0,0,1,86.19,26h0a1.82,1.82,0,0,1,2.49.63h0a1.81,1.81,0,0,1-.63,2.48h0a1.84,1.84,0,0,1-.93.26h0A1.83,1.83,0,0,1,85.56,28.43ZM.94,26.28a1.81,1.81,0,0,1-.46-2.52h0A1.8,1.8,0,0,1,3,23.29H3a1.81,1.81,0,0,1,.46,2.52h0A1.8,1.8,0,0,1,2,26.6H2A1.89,1.89,0,0,1,.94,26.28Zm80.93-3.2a1.82,1.82,0,0,1,.29-2.55h0a1.81,1.81,0,0,1,2.55.3h0a1.8,1.8,0,0,1-.3,2.54h0a1.82,1.82,0,0,1-1.12.39h0A1.8,1.8,0,0,1,81.87,23.08ZM4.94,20.83a1.82,1.82,0,0,1-.13-2.56h0a1.82,1.82,0,0,1,2.56-.13h0a1.81,1.81,0,0,1,.12,2.56h0a1.79,1.79,0,0,1-1.34.59h0A1.8,1.8,0,0,1,4.94,20.83Zm72.55-2.57a1.8,1.8,0,0,1,0-2.56h0a1.81,1.81,0,0,1,2.56,0h0a1.81,1.81,0,0,1,0,2.56h0a1.84,1.84,0,0,1-1.31.56h0A1.86,1.86,0,0,1,77.49,18.26ZM9.62,16a1.81,1.81,0,0,1,.21-2.56h0a1.81,1.81,0,0,1,2.55.21h0a1.81,1.81,0,0,1-.21,2.55h0A1.76,1.76,0,0,1,11,16.6h0A1.82,1.82,0,0,1,9.62,16Zm62.9-1.9a1.81,1.81,0,0,1-.39-2.53h0a1.81,1.81,0,0,1,2.53-.39h0a1.82,1.82,0,0,1,.39,2.54h0a1.82,1.82,0,0,1-1.46.73h0A1.76,1.76,0,0,1,72.52,14.06ZM14.9,11.75a1.8,1.8,0,0,1,.55-2.5h0a1.81,1.81,0,0,1,2.5.54h0a1.82,1.82,0,0,1-.55,2.51h0a1.82,1.82,0,0,1-1,.28h0A1.79,1.79,0,0,1,14.9,11.75ZM67,10.56a1.81,1.81,0,0,1-.72-2.46h0a1.8,1.8,0,0,1,2.45-.72h0a1.82,1.82,0,0,1,.72,2.46h0a1.82,1.82,0,0,1-1.6.94h0A1.78,1.78,0,0,1,67,10.56ZM20.69,8.28a1.82,1.82,0,0,1,.87-2.41h0A1.81,1.81,0,0,1,24,6.75h0a1.8,1.8,0,0,1-.87,2.41h0a1.91,1.91,0,0,1-.77.17h0A1.81,1.81,0,0,1,20.69,8.28Zm40.43-.45h0a1.83,1.83,0,0,1-1-2.34h0a1.82,1.82,0,0,1,2.35-1h0a1.82,1.82,0,0,1,1,2.34h0A1.81,1.81,0,0,1,61.77,8h0A1.82,1.82,0,0,1,61.12,7.83ZM26.9,5.62a1.81,1.81,0,0,1,1.19-2.27h0a1.8,1.8,0,0,1,2.26,1.19h0a1.81,1.81,0,0,1-1.19,2.27h0a2,2,0,0,1-.54.08h0A1.81,1.81,0,0,1,26.9,5.62Zm28,.29a1.81,1.81,0,0,1-1.34-2.18h0a1.82,1.82,0,0,1,2.18-1.35h0a1.83,1.83,0,0,1,1.35,2.18h0A1.82,1.82,0,0,1,55.31,6h0A2.18,2.18,0,0,1,54.89,5.91ZM33.41,3.81a1.81,1.81,0,0,1,1.48-2.09h0A1.82,1.82,0,0,1,37,3.21h0A1.81,1.81,0,0,1,35.49,5.3h0l-.3,0h0A1.8,1.8,0,0,1,33.41,3.81Zm15.07,1a1.81,1.81,0,0,1-1.63-2h0a1.81,1.81,0,0,1,2-1.63h0a1.82,1.82,0,0,1,1.63,2h0a1.81,1.81,0,0,1-1.81,1.63h-.17Zm-8.38-2A1.8,1.8,0,0,1,41.85,1h0a1.82,1.82,0,0,1,1.87,1.75h0A1.81,1.81,0,0,1,42,4.64h-.06A1.8,1.8,0,0,1,40.1,2.89Z"/><rect class="cls-6" x="31.99" y="77.51" width="65.18" height="35.04"/><polygon class="cls-6" points="97.19 77.52 73.16 77.52 83.59 60.85 107.62 60.85 97.19 77.52"/><rect class="cls-7" x="31.99" y="77.39" width="41.17" height="35.21"/><polygon class="cls-7" points="73.16 77.52 31.99 77.52 20.85 60.95 62.03 60.95 73.16 77.52"/><path class="cls-2" d="M60,86.56a12.05,12.05,0,0,0-9-1.24.94.94,0,0,0-.55,1.1.87.87,0,0,0,1.1.56,8.91,8.91,0,0,1,4.29-.14c-2.21,1.1-4.7,3.73-6.77,7.19a20.56,20.56,0,0,0-1.8,4,14.37,14.37,0,0,1-1.38-1.65c-1.11-1.8-1.25-3.32-.69-4.43s2.21-1.79,4.42-1.66a.9.9,0,1,0,.14-1.79c-2.9-.28-5,.69-6.08,2.49s-.69,3.87.69,6.08a19.64,19.64,0,0,0,2.21,2.76c-.14.69-.28,1.38-.42,1.94v1.52a12,12,0,0,1-2.07-4.15.92.92,0,0,0-1.8.41,12.14,12.14,0,0,0,11.75,9.27,11.83,11.83,0,0,0,10.37-5.95A12,12,0,0,0,60,86.56Zm-9.54,8.3c3-5.26,6.91-7.74,8.57-6.78a10.32,10.32,0,0,1,3.73,14c-1.38,2.35-6.63,2.08-11.47-.69a15,15,0,0,1-2.9-2.07C49.11,97.9,49.66,96.38,50.49,94.86ZM49,105.77c-.83-.41-1.25-1.79-1-3.73,0-.27.14-.55.14-.83l2.49,1.66a17.15,17.15,0,0,0,8.29,2.49h.83A10.39,10.39,0,0,1,49,105.77Zm-7-16.86-3.18-1.79a.75.75,0,0,0-1.11.27.73.73,0,0,0,.28,1.11l3.18,1.79a.5.5,0,0,0,.41.14.78.78,0,0,0,.7-.41A.73.73,0,0,0,41.92,88.91Zm12.16-5.66a.89.89,0,0,0,.83-.83V79.24a.83.83,0,0,0-1.66,0v3A.93.93,0,0,0,54.08,83.25ZM61,85a.51.51,0,0,0,.42.14.77.77,0,0,0,.69-.41L63.76,82a.72.72,0,0,0-.28-1.1.89.89,0,0,0-1.24.27l-1.66,2.77A1,1,0,0,0,61,85ZM47.17,85c-.14,0-.27.14-.41.14a.75.75,0,0,1-.69-.41L44.41,82a1.11,1.11,0,0,1,.41-1.24.91.91,0,0,1,1.25.27l1.65,2.77A1.47,1.47,0,0,1,47.17,85Zm23.36,2.35a.9.9,0,0,0-1.24-.27l-3.18,1.79a.9.9,0,0,0-.28,1.25.77.77,0,0,0,.69.41.51.51,0,0,0,.42-.14l3.18-1.79A.85.85,0,0,0,70.53,87.39Z"/><path class="cls-8" d="M68.67,33.91v9.23l-7.9,4.61-7.9-4.61V33.91l7.9-4.61M56.2,41.19l4.57,2.67,4.57-2.67V35.86l-4.57-2.67L56.2,35.86Z"/><polygon class="cls-9" points="104.16 101.39 108.36 98.37 112.56 101.39 116.75 98.37 120.96 101.39 125.9 97.84 124.43 95.79 120.96 98.29 116.75 95.26 112.56 98.29 108.36 95.26 104.16 98.29 99.97 95.26 95.77 98.29 91.57 95.26 86.64 98.82 88.11 100.86 91.57 98.37 95.77 101.39 99.97 98.37 104.16 101.39"/><polygon class="cls-9" points="104.16 108.32 108.36 105.3 112.56 108.32 116.75 105.3 120.96 108.32 125.9 104.77 124.43 102.72 120.96 105.22 116.75 102.19 112.56 105.21 108.36 102.19 104.16 105.21 99.97 102.19 95.77 105.21 91.57 102.19 86.64 105.74 88.11 107.79 91.57 105.3 95.77 108.32 99.97 105.3 104.16 108.32"/><polygon class="cls-9" points="104.16 115.25 108.36 112.22 112.56 115.25 116.75 112.22 120.96 115.25 125.9 111.69 124.43 109.65 120.96 112.14 116.75 109.12 112.56 112.14 108.36 109.12 104.16 112.14 99.97 109.12 95.77 112.14 91.57 109.12 86.64 112.67 88.11 114.72 91.57 112.22 95.77 115.25 99.97 112.22 104.16 115.25"/></svg>