<?xml version="1.0" encoding="UTF-8"?>
<svg width="24px" height="16px" viewBox="0 0 24 16" version="1.1" xmlns="http://www.w3.org/2000/svg" xmlns:xlink="http://www.w3.org/1999/xlink">
    <!-- Generator: Sketch 49.2 (51160) - http://www.bohemiancoding.com/sketch -->
    <title>whats_new_hover-icon</title>
    <desc>Created with Sketch.</desc>
    <defs></defs>
    <g id="whats_new_hover-icon" stroke="none" stroke-width="1" fill="none" fill-rule="evenodd">
        <path d="M2.4,6.1712 L2.4,5.6 L1.6,5.6 L1.6,4.8 L0,4.8 L0,11.2 L1.6,11.2 L1.6,10.4 L2.4,10.4 L2.4,9.8288 L4,10.2856 L4,12.8 C4,13.6836556 4.7163444,14.4 5.6,14.4 L8.8,14.4 C9.6836556,14.4 10.4,13.6836556 10.4,12.8 L10.4,12.1144 L24,16 L24,0 L2.4,6.1712 Z M8.8,12.8 L5.6,12.8 L5.6,10.7432 L8.8,11.6576 L8.8,12.8 Z M22.4,13.8792 L3.2,8.3928 L3.2,7.6072 L22.4,2.1216 L22.4,13.8792 Z" id="Shape" fill="#5596E6" fill-rule="nonzero"></path>
    </g>
</svg>