<?xml version="1.0" encoding="UTF-8"?>
<svg width="25px" height="16px" viewBox="0 0 25 16" version="1.1" xmlns="http://www.w3.org/2000/svg" xmlns:xlink="http://www.w3.org/1999/xlink">
    <!-- Generator: Sketch 49.3 (51167) - http://www.bohemiancoding.com/sketch -->
    <title>whats_new</title>
    <desc>Created with Sketch.</desc>
    <defs></defs>
    <g id="whats_new" stroke="none" stroke-width="1" fill="none" fill-rule="evenodd">
        <g id="announcement_64" fill="#3D70B2">
            <g id="what's-new-hover">
                <g id="what's-new">
                    <path d="M2.5,6.1716 L2.5,5.6 L1.66666667,5.6 L1.66666667,4.8 L0,4.8 L0,11.2 L1.66666667,11.2 L1.66666667,10.4 L2.5,10.4 L2.5,9.8284 L4.16666667,10.2856 L4.16666667,12.8 C4.16666667,13.6836556 4.91285875,14.4 5.83333333,14.4 L9.16666667,14.4 C10.0871412,14.4 10.8333333,13.6836556 10.8333333,12.8 L10.8333333,12.1144 L23.7354912,15.6531735 C24.2681054,15.7992577 24.8182991,15.4859132 24.9643833,14.953299 C24.9880211,14.8671169 25,14.7781552 25,14.6887902 L25,1.31122961 C25,0.758944856 24.5522847,0.311229606 24,0.311229606 C23.9106302,0.311229606 23.8216636,0.32320982 23.7354772,0.346850186 L2.5,6.1716 Z M10,12.8 C10,13.2412 9.62583333,13.6 9.16666667,13.6 L5.83333333,13.6 C5.37375,13.6 5,13.2412 5,12.8 L5,10.5144 L10,11.886 L10,12.8 Z M24.1666667,14.9396 L2.5,8.9964 L2.5,7.0036 L24.1666667,1.0608 L24.1666667,14.9396 Z" id="Shape" fill-rule="nonzero"></path>
                </g>
            </g>
        </g>
    </g>
</svg>